/* XPM */
static char *c3BhY2Urb3JpZ2luKzkrNQ__[] = {
/* columns rows colors chars-per-pixel */
"64 64 256 2 ",
"   c #010102",
".  c #0C0301",
"X  c #03020B",
"o  c #070A07",
"O  c #170604",
"+  c #051108",
"@  c #050716",
"#  c #07151C",
"$  c #150E11",
"%  c #250906",
"&  c #380A05",
"*  c #2F0D0D",
"=  c #020727",
"-  c #130B2B",
";  c #091526",
":  c #010E38",
">  c #061539",
",  c #141537",
"<  c #172238",
"1  c #272D36",
"2  c #2C313C",
"3  c #303038",
"4  c #2D1022",
"5  c #4B0503",
"6  c #560401",
"7  c #561813",
"8  c #651905",
"9  c #6D1109",
"0  c #5E2000",
"q  c #772715",
"w  c #54282C",
"e  c #6E2A28",
"r  c #751322",
"t  c #4B5E0D",
"y  c #525C15",
"u  c #4E610E",
"i  c #45610D",
"p  c #52660E",
"a  c #546B09",
"s  c #4E6212",
"d  c #4F6419",
"f  c #526513",
"g  c #556915",
"h  c #596D15",
"j  c #54661A",
"k  c #566A1A",
"l  c #5A6D1C",
"z  c #5C6617",
"x  c #5D711D",
"c  c #587414",
"v  c #5A700B",
"b  c #616D1E",
"n  c #61751E",
"m  c #647A1D",
"M  c #697B1D",
"N  c #617516",
"B  c #5B6D22",
"V  c #596824",
"C  c #5E7221",
"Z  c #5D7529",
"A  c #5D6B38",
"S  c #666D27",
"D  c #627523",
"F  c #657A24",
"G  c #6A7E25",
"H  c #62732C",
"J  c #667A29",
"K  c #6A7D2A",
"L  c #6A7628",
"P  c #757D2A",
"I  c #677A35",
"U  c #697433",
"Y  c #051747",
"T  c #061554",
"R  c #0A104F",
"E  c #192749",
"W  c #1A3A59",
"Q  c #112952",
"!  c #243A5A",
"~  c #2A2B47",
"^  c #041866",
"/  c #081B7A",
"(  c #0B2469",
")  c #102E6E",
"_  c #1C3D65",
"`  c #1C3B6B",
"'  c #173468",
"]  c #173676",
"[  c #0D2978",
"{  c #233E64",
"}  c #253E68",
"|  c #363C68",
" . c #2F346F",
".. c #523C52",
"X. c #703751",
"o. c #51266E",
"O. c #1D425D",
"+. c #22425E",
"@. c #264358",
"#. c #3B4356",
"$. c #1E4163",
"%. c #1C436A",
"&. c #1B4272",
"*. c #234264",
"=. c #224168",
"-. c #2A4669",
";. c #274876",
":. c #364F70",
">. c #504D57",
",. c #576852",
"<. c #667946",
"1. c #6B7857",
"2. c #4F5B6F",
"3. c #4C6369",
"4. c #596768",
"5. c #547072",
"6. c #6C7667",
"7. c #6D6F68",
"8. c #6C5F4E",
"9. c #8A0403",
"0. c #851A05",
"q. c #981903",
"w. c #931613",
"e. c #960C0B",
"r. c #A60604",
"t. c #BB0403",
"y. c #B5190B",
"u. c #AC170B",
"i. c #952608",
"p. c #8E2B14",
"a. c #A32818",
"s. c #B22F13",
"d. c #BC102F",
"f. c #A83A23",
"g. c #B83A29",
"h. c #AE2E2D",
"j. c #922D23",
"k. c #C80605",
"l. c #DA0602",
"z. c #D61704",
"x. c #CD1612",
"c. c #EB0301",
"v. c #E90A07",
"b. c #F40202",
"n. c #FB0202",
"m. c #F80608",
"M. c #F5160B",
"N. c #EA1A14",
"B. c #F81615",
"V. c #E90D0F",
"C. c #D32D14",
"Z. c #F9221B",
"A. c #F22C13",
"S. c #F21A24",
"D. c #CE3832",
"F. c #F92723",
"G. c #FA3629",
"H. c #FD3B36",
"J. c #E9392A",
"K. c #C1163A",
"L. c #B14132",
"P. c #85473C",
"I. c #D94839",
"U. c #CA4531",
"Y. c #FB4539",
"T. c #F04B39",
"R. c #B43A47",
"E. c #CD364A",
"W. c #FF3F40",
"Q. c #8F4C4A",
"!. c #936F5D",
"~. c #AE6C5E",
"^. c #B25964",
"/. c #976A68",
"(. c #8E7473",
"). c #AF6B73",
"_. c #BE555C",
"`. c #D4444C",
"'. c #FD4D44",
"]. c #F94A48",
"[. c #FC534A",
"{. c #FB5447",
"}. c #ED4F4C",
"|. c #D77679",
" X c #D26C72",
".X c #D75C68",
"XX c #6C8126",
"oX c #6D822C",
"OX c #6D892D",
"+X c #668429",
"@X c #718423",
"#X c #71852D",
"$X c #74892E",
"%X c #798D2E",
"&X c #768927",
"*X c #7A912D",
"=X c #6E8331",
"-X c #6A8437",
";X c #728532",
":X c #7A8533",
">X c #758A33",
",X c #798D35",
"<X c #73843A",
"1X c #758A3A",
"2X c #7A8D3A",
"3X c #7C9135",
"4X c #7E923B",
"5X c #7A973A",
"6X c #6E913D",
"7X c #6D861E",
"8X c #788A46",
"9X c #7D9342",
"0X c #799549",
"qX c #788754",
"wX c #7A9354",
"eX c #6A8646",
"rX c #788564",
"tX c #788474",
"yX c #6A8363",
"uX c #818C39",
"iX c #819635",
"pX c #81953C",
"aX c #85993D",
"sX c #879839",
"dX c #82862F",
"fX c #8EA13D",
"gX c #818B43",
"hX c #829542",
"jX c #859A42",
"kX c #899D44",
"lX c #899D49",
"zX c #859A4A",
"xX c #889855",
"cX c #8F9551",
"vX c #8CA245",
"bX c #8DA24A",
"nX c #8FA94C",
"mX c #92A54B",
"MX c #94A94B",
"NX c #96AA52",
"BX c #98A953",
"VX c #828F6C",
"CX c #889769",
"ZX c #898874",
"AX c #869375",
"SX c #988D6D",
"DX c #97A076",
"FX c #0E2C87",
"GX c #452D83",
"HX c #38558C",
"JX c #3D6990",
"KX c #4C7190",
"LX c #405692",
"PX c #D4758A",
"IX c #9A9385",
"UX c #C88286",
/* pixels */
"C k k ,XaX>XC C kXMXpXm aX%X>XbXiXG n D z K pXaXK l #XmXjXXX%XkX@XaXaX#XG h f k ,XpX>XF g jXNXjXG pXpX#XjXvX:Xb z f J pXuX#Xx K ",
"pXJ k oX#XG F F XX>X,X>XMXsX,XjX>XK ,XhXl k oX,XG F J ,X,X>X,XlX>XpXpX#X>XpX1XD D K ;XK F G $X,X#XkXlX3XpX,X%XpX2XK l G G G G D ",
"fXG s l F >XpXjXG D J $XkX,X@XK ,XuXlXkXD g l J $XzX2Xx F #X>XpX3XoXK $XpXvX2Xl f J 2X3XaXG x m $XpXaX>XG XXpXkXkX#Xf x G ,XhXpX",
"3XG D J >X,XkXNX2XK l D >X>XD D K #X#X$XD D K 4XiXNXmX=Xl J #X3XoXD J #X&X$X#Xx C ;X4X3XMXpXoXl n 2X>Xn m F G >X&Xn l ;X>XpXvXmX",
"pXK K ,XXXN F ;X1XJ g D >X>Xn l x m 3XaXoXXXoXJ m F #X;Xl k oX,X#XD f n >XaX3XJ #XoXG m #X2XK j b #X2XD l l J XXbX>XoX=XF F G #X",
"zXoXXXaXM $X;XB x l g C #XF f z J 3XaX,XJ OX,X>XpXG F D f k J K D l l #XjXaX>XK ,X>X,X#Xx D B j b #XK l D n oXbX3XXX=X2X$X>XM x ",
"G n C =XK jX2Xl g Z J x F D C B J jX4XD x =X+XoX2XoXl g D J D D B l C 1XhX>XD l G oX2XhXn f n J K l D l l D 4XhXK C D oX#X4X>XC ",
"G D l d H J J +XXX5X9XD h D J B J K K Z d k l l ;X=XD OXbX1Xg l D l D G F J D j B k D K G F ,XvX#Xl l D D D #Xm Z k s x x J =XC ",
"l l s j l l x #XaXvXhXD j f K >XOXG J H s s k g D x >XcXaX;XJ z g XX>XOXOXZ Z j g V k g K 0XbX,XoXoXf XX$X#XG oXl j j d j l D #X",
"B f J lX,XG J B oXJ oX>XpX,X>X>XK D z j C 1XjX,X+Xc J 8XK @X2X9X5X4XP K x g x k 5XjX;Xc C =X>XM oX4XpX>XoXG #X#XB x K aXpX#XC B ",
"<XD #XkXaX4X>XoXJ C l oX3XvXvX3X1X,X:XK K >X3X4X:XzXwX<.<.-XgXCXxXqXxXwXqXxX9X,X3X3XiX1X;XF x g oXoXbXkXpX$X2X>XK oX>XaX,X3X#X#X",
"jXpXD f l #XiXvX3XJ k j l ,XvXiXiXkXvXpXoXx k U ,XDXUX XPXPX X|.PX X X|..X^.(.tXZ g M kXzX%X#XZ g g >XBX,XhXpX4X4X$Xx x x ,XaXpX",
"x m K D x #XjXaXaXG D K C J #X,X5X%XM c D G #X1.IX).}.Y.Y.].G.G.G.G.Y.M.n.l.e.Q.!.8X#X:X3X3XP V oXoXoX#XG #X$XG XXG K ;XK =X3X3X",
";X#XpXsX$X@X#XK K F >XlX>XD D J F J XX@X2XiXsXSX|.}.[.[.[.Y.F.B.F.B.B.B.v.B.S.t.Q.ZX2XP J 7XL -X4XpXoXf >XoX#X#X;X,X4X3X#XG <X;X",
"jXkXaX%X3X>XG C k D pXaX#Xn J K G =XaXmXzX*XuXDX.X'.[.].H.Z.v.b.n.n.m.c.m.n.c.z.9 (.0X>XH a n 4X2X,XoXoXoXoXG 3X2XpX$X$X$X$XK k ",
"fXmX,Xl J ;XoXn h D K J D J ,X,XOXD *XvXzXG L SX.X].'.].B.n.m.m.c.b.b.b.n.b.V.y.9.(.0X#XA g n OX#Xp K #X#X#X#X$XvXvXXX#XG oX#XXX",
"XX>X4X1Xx G >X#X#Xz B V j D >XhX@Xn C +X2XuX<XZX~.U.{.H.M.n.n.n.n.n.b.b.n.z.u.i.9 (.wX$X#X&Xi z g g l =X3X,Xn l #X;X2XK l oX;X>X",
"x k C C f n oX4XOXoXl S C h x G 1X8XJ F P a b VXQ.a.U.I.C.z.z.k.k.k.k.k.k.q.9 9 6 (.U F 2X2X-X#Xb J D F J OX#XuXh G G l g x #X#X",
"=Xg l K K K l oX5XlXuXn oX+Xc 3X&X%X#Xj b n G VXw 8 p.p.q.0.0.0.5 6 6 6 5 6 5 5 5 7.8Xa <X5XMX;X=X6XK K >X>X3X@Xx f n K J #Xn oX",
"oXk l 2XlX2Xx x uXBXsX7XvX1X9XfXiXoX-X<.(.(.).!.e 0.L.L.g.g.D.f.h.a.h.w.r.r.e.w.8 X.7.SX).SXcX*XoX5X3X#XBX2XoXG ;Xl K 1XhXK h G ",
"kX#Xg D K oXXX#XoXOX+XOXMXuX2XpXqX0XDXSXP.a.I.}.L.C.I.{.'.[.[.[.].].Y.G.M.b.v.z.s.i.i.y.v.^.ZX*XP dXaX*X>X>X,XiX2X;Xp J oXoX#XXX",
"4X#Xp n #X,XjXkX>Xc x -X4X%X;XrXUX^.!.P.g.T.{.H.J.C.U.I.'.[.[.[.[.].J.Z.m.n.n.M.N.N.x.x.i.r._.(.8XjX4X@Xc =X;XpXhXoXf g ;X1XlX3X",
"4X#Xl oX#X1X3XaX4XP b I 1X1XCX/.`.s.u.g.}.].].G.M.z.f.L.I.}.}.Y.[.H.M.n.n.b.v.c.m.b.b.y.8 i.l.R.!.wX6XoXl J +X&X,XoXoX;X#X;XpXlX",
"jX;XoX2XK n x #XoXl z c -XSX XE.j.f.E.].'.Y.Z.M.m.z.p.q f.I.}.[.'.H.M.b.b.b.n.n.n.b.b.e.o 7 r u.E.~.6XZ S j Z pXjX$X#X;XoXn @XXX",
"1Xl #X,X#X$X,X#Xk y k =XG 8.L.a.7 q U.'.H.A.M.m.m.l.x.w.8 p.L.U.I.I.G.F.m.n.b.b.n.n.b.e.  $ * q r./.G l V +XvXbX#X#XK XX,X,X#X#X",
"oXn l K K >X>Xn x :X=XF S 4.e 7 o w `.H.S.n.n.m.c.c.V.w.% % 7 p.j.L.D.J.B.M.b.n.n.m.l.0.. . O & 9 >.<.Z l J oX#XK l l ;XoX1X#Xp ",
"H l s k k J D K >XmX5Xx ,.:.$ $ T o.`.H.B.m.n.n.n.t.9 4 T R % & & 7 r h.T.G.m.n.b.z.w.8 .     . % , 3.<.D L K #X;Xf j t g ;XoX;X",
"D g l D l D l oXpXaX>X;X5.' < > / GXE.G.B.V.K.d.t.r - R [ ( > + # @ % q f.D.F.M.b.y.8 & .   .   O = | 1.3X<XG J f k K l j B t K ",
"k l oXlXlX>XG x =Xh ;XI 2.FXW ' FXo.K.A.m.d. ./ $ - ^ FX_ ! ' ) / R @ O . e D.H.V.e.& .     o     X - 1.5X<X+Xl s x ;XlXzX4X;Xh ",
"2X#X#X#X#X3XpX,XoXx g <.HX;.3.HX[ o.x.V.h.X. .) E E ) ] ! @.;.&.FXQ E , > ~ e h.y.9 o   X       X .   6.jX9XaXsX>XoXoX>X#X>XpXoX",
"2XoXK l g #X,XkX2X=Xl yXHXHXKXKX;.>.C.h...%.{ @.W *.{ _ -.=.W ! $.*.' ]  .R @ * 0 &     X .   .   o   6.pX,XhXsX4XoXD h n >XpXkX",
"D K ;X2XoXoX#X,X:XoX=XtXJX;.KXKX;.#.>... .&.W =.*.} +.O.} } +.-.@.-.=.` [ [ ( , % %                   6.uX>X-Xn n oX#X#XoXoX,X>X",
"*XpX,X$X,XoX#XXXu -XvXCXHX;.JXKX-.=._ %._ -.*.O.*.+.*.{ *.*.*.+.+.+.*.-._ ] FX^ : = X X       X       7.D K :X2X,X%XkXaX#X,XoXC ",
"vXkX,XoX1X,XoXg u <X6XqX:.%.=.-.-.*.$.+.+.*.*.=.*.{ *.{ *.*.*.*.*.{ *.+.*.$.` ' ^ : X           o     4.2XG K 4XBXvX$XG >X,XJ h ",
"3XkXaXK x oX$XoXl l V S 5.;.%.O.*.$.+.+.+.*.{ *.{ *.} -.*.*.*.*.+.{ *.+.+.O.O.] FXT X             o . 7.zXK F G jXkXoXD K XX>XXX",
"n G ;XG l G ;X4XoXg B v ,.;.$.=.! +.O.-.{ { { +.*.*.-.@.*.+.+.*.-.{ *.$.O.$.` ) / Y X               X 7.zXG G N x ;X2XK D J >X1X",
"oXx l D l n n G 4X3X+XN I KX_ _ *.-._ *.{ -.! +.*.O.! *.+.+.*.*.=.O.$.$.-.FXFXQ : =               o X 6.I pX>X,Xl l l l g k D >X",
"x s l ,X2XK D K aXMXoXG zX3.W E ] ` %.*.*.*.*.=.*.*.+.+.+.*.*.-.*.$.] ' E Q ^ Y X                 X X 7.hX3XuX$XD f l ;X9XoXg J ",
"2XD l K 4X#XK #X>X,X$X>XvX,.> ; ( ) ' ` *.*.-.%.*.*.*.*.=.=.` ` -.] FXT +   @ X       X         @   X tXbX%X#XG ;XD m ;XhX#Xn G ",
"bXK f k #X#X>X,X#Xx XX8XiXqX<   T ( ) ] ` { { *.=.=.$.*.=.{ ' ' < Y T :     X                   o   4.ZXG XX,XkXzXJ g x F $XhX,X",
"2XoXh x #X2XkXbX2XK H G &XqX>.X . = ^ [ W ! _ W W W W @.! ' ^ T                     .   X         ~ qX&XC XX2X%X3XK g n #X,XkXmX",
"4X#XJ ,XoXoX#X$X2XD D D ,X1XU 3     = > # = # # ; ; # # ; ; : =                           o   o X 4.8XF B p D 3XaXoXJ 1X#XG oX,X",
"jX#XoX4XG #X#XoXK j p J <Xm l ,.< @ @     .   o                                             o   1 qXJ D B oX$XhXpXoXoX4XG OXXXn ",
"#XC K ,X1X3X>Xn n j B #XN x C A 3.Q @   X   X                                     X           - 7.I C j g =XkXhXF x J ;X#XkX,Xn ",
";Xl l l x J ;X#Xm hX8Xl N l B D -X:.  o     X                                           X o   #.A p H <Xa l oX=XK B D B n ;XJ l ",
"B f f j f l l K pXkXzXI g l H J G 4.-     X .                                       X X +   1 tX;Xh V h &X=X;Xl D f s l l h B ;X",
"D l F ,XoXK D K ,X$XK 2X#X$X>XuX,X<.2.= @ X                                         X o   ~ VX8XG $XK oX2X1XK h B l n ;X#Xn n J ",
"K x ;XaXhXpXJ D m B x XXzXaXiXpX&XG 5.` ; + @   X .                               X o   >.6.D C $X,XvXjXhX=XK @XK #X;XlX4X3X;XJ ",
"2X;Xl D x >X4XbX2XoXg l l >XvX*X3XMXxX5.;.< + . X X .   @ o   o o o X X X   X o o o   >.AX9X$Xf k C >XaXiX3XjXvX,XoXoXf OX;XpXvX",
";XoXoXK x oX3X,X,Xn l oXoX#X,X,X3X@X7X>X5. .T =                           X       @ 4.CXsX*X;Xl J F G ,X2XaX3X#XoXoXoXoXp #X,XpX",
"oXoX4XhX>XK #X&XoXx #XkX;Xg ;X;X#X#XL M OXyX3.' # 1 2 2 1 1 1 1 2 2 1 1 2 2 2 2 ~ 6.qX7XXX1XC #XaX#XD l K K #X@X@X#X4XpXG oX$X#X",
"vXaX;X#X,X;XG oXx G pXBX#X#Xl l U ,XvXbXiX5X0XeXqXyX1.1.rXAXVX6.1.,.rXrXqXAXVXrXVXhX@X;X1Xh oXhXvX,XoXC K D #XhX3XvX,XoX4X,XoXG ",
"vXmX#XD G 4XoXD t ;X#XK oXXX,X$XZ x *XMXlXG N @X%XJ j l oX;X=XH ;XjXoXoX;XjXbX5X@X#XK -Xl f x oXoXoXXXpX>XoXD ;XMXpX#X#XG K #Xp ",
"G pX4X;Xh K ;XoXB f l g x #X,X3X=XC c &X5X%XF V F #X=XD h g j l oX,X>X+Xp XX,X,XXXC ;X,X,XB h v k l x >X3X#Xl l >X#XoX#XK #X>X#X",
"D J #X=Xg l =XhX,XK J f l p #X#X<XoXm x K K K S F >X3XoXn k l C p oXJ ,XK n l oX<XF f J >X$XoX#Xk l C x $X>X>X#XoX>XK oXf oX,X1X",
"oXl t l D B D J 3XpX#XB 1X=Xl oX&XpX2XS p D Z c g n %XvX9XJ D ,X#XK #X1X2X;Xh l H l x h K hX2X;Xn ;X=XB D ;XpX*XoXt g l K h G #X",
"F x B ;XhX,Xx l aXmX3XXXvX4X#XvXpXG n n x J ,X3XD l oXvXkX$X>XaX#X3XmX;XoXXXoXj G ,X#XK l ,XvXkX>X3X3X%XvX4X#XoXf g <XK #X>XG #X",
"pXJ f J 1X,XoXoXXXoX#X3XvXiX,XpX2X>XpX4Xl l ;X#X>XoXoX#X#X$XpXkXXX,X>X>X>XpX#Xf #XOXK ;X#X#X;X,X,X4X3X$X3X2X#X4X;XoXu #X$XXXG #X",
"bX#Xg l G 3XpXhX>XC F >XpX,X$XG K ,XkXkXC l D #X,XaX,XF n XX,XpX,X#X;XoX3XkX#Xj g oX#X3XjXoXoXl #XjX,X#X#XG $XpXpX#Xg u >X3XaX,X",
",X#XD F G ,XsXlX4XK x D ,X#XF h F #X;X2XD D J >X,XkXbX2XD n oX#X,XG g >XG #XoX#XK oX,X#XkXlX=Xj XX#X1X;Xk #X$X#X,XoXoXXX$XpX,XhX",
"jX;X;XpXK m F G =XD g x 1XoXx g h G iXaXK >X>XF x m #XK l l oX,XoXk f f $XvX4XG ,X#XXXXXoXoXJ V N K K K f t G pXaX>XoX#XXXXX#XK ",
"pXn J 9X;X,X4XD l g l D oXD x C oXjXjX#Xh 1XpX#X3XoXD n l l G K l D l ,XkX3XK ;X1XG ,X,XK oXl f oX#X;Xl f 1X4XkX$X#XK 2X#X3X#Xp ",
"1Xl B K K 4X2XD D J K D D l C D J pX3XJ l G oXoXhXK x n XXG x x l x =X=X4X#Xn l =X;X;XoXg f K oX;Xt f ;Xf K 2XpXoXg ;XJ oX#X1X#X",
"n B l B C D D J oXkXpXx l x B B C l F K l j l B J G J ,XlX1Xl l ;XB l D g D K j h g k oX;XoXhX4XK g K f oXD n g =Xg k k h K D K "
};
