/* XPM */
static char *c3BhY2Urb3JpZ2luKzY_[] = {
/* columns rows colors chars-per-pixel */
"64 64 253 2 ",
"   c #540A09",
".  c #680804",
"X  c #780903",
"o  c #741C02",
"O  c #7A1E04",
"+  c #7B1E0A",
"@  c #761807",
"#  c #751911",
"$  c #6E2908",
"%  c #742304",
"&  c #7B2106",
"*  c #752509",
"=  c #7C230A",
"-  c #7D290A",
";  c #742C07",
":  c #673809",
">  c #783207",
",  c #7D2412",
"<  c #792817",
"1  c #6C3417",
"2  c #752A29",
"3  c #762F32",
"4  c #793236",
"5  c #6D2D29",
"6  c #5D2924",
"7  c #014F03",
"8  c #045706",
"9  c #0F590D",
"0  c #3C5C13",
"q  c #325708",
"w  c #046908",
"e  c #01750E",
"r  c #02790D",
"t  c #077705",
"y  c #1C6E15",
"u  c #037C12",
"i  c #0A7B13",
"p  c #077818",
"a  c #157714",
"s  c #096C18",
"d  c #276E15",
"f  c #356714",
"g  c #2D7114",
"h  c #10782E",
"j  c #2E7426",
"k  c #59460C",
"l  c #4C590B",
"z  c #52590B",
"x  c #584910",
"c  c #4A5715",
"v  c #555414",
"b  c #61430D",
"n  c #664812",
"m  c #615115",
"M  c #4D610E",
"N  c #486508",
"B  c #53650E",
"V  c #57680A",
"C  c #4F6212",
"Z  c #486518",
"A  c #526514",
"S  c #556915",
"D  c #5A6D16",
"F  c #53661A",
"G  c #566A1A",
"H  c #5A6D1C",
"J  c #5C6719",
"K  c #5D721D",
"L  c #5A7418",
"P  c #5B730E",
"I  c #636A1A",
"U  c #61751E",
"Y  c #647A1D",
"T  c #69791A",
"R  c #717F1D",
"E  c #475A2A",
"W  c #754C2F",
"Q  c #4E6722",
"!  c #5C6D22",
"~  c #5B6B26",
"^  c #5E7221",
"/  c #5B7928",
"(  c #537B2E",
")  c #626D22",
"_  c #656928",
"`  c #627523",
"'  c #657A24",
"]  c #6A7D25",
"[  c #63752B",
"{  c #667A29",
"}  c #6A7D2A",
"|  c #6A7521",
" . c #737C29",
".. c #6C7C34",
"X. c #687838",
"o. c #717D36",
"O. c #5B3A4A",
"+. c #553755",
"@. c #346548",
"#. c #317651",
"$. c #7D5656",
"%. c #724C4F",
"&. c #5B7955",
"*. c #4D6A4F",
"=. c #6C7947",
"-. c #737B47",
";. c #79665B",
":. c #797B58",
">. c #66775C",
",. c #5F746D",
"<. c #737567",
"1. c #6D536E",
"2. c #841A04",
"3. c #810D10",
"4. c #822405",
"5. c #82240B",
"6. c #842B0D",
"7. c #8A2B0D",
"8. c #882405",
"9. c #862C11",
"0. c #8B2D12",
"q. c #872411",
"w. c #932B13",
"e. c #8E3213",
"r. c #873B17",
"t. c #933316",
"y. c #963A1A",
"u. c #9C3B1C",
"i. c #973619",
"p. c #933208",
"a. c #A83901",
"s. c #A23C1D",
"d. c #A4371E",
"f. c #83332E",
"g. c #9D3D21",
"h. c #943A24",
"j. c #843333",
"k. c #893836",
"l. c #A33E21",
"z. c #AB3D22",
"x. c #B03D28",
"c. c #96471C",
"v. c #A4421F",
"b. c #AE431F",
"n. c #A34603",
"m. c #9E4423",
"M. c #9A4A27",
"N. c #8F512D",
"B. c #A44222",
"V. c #A94224",
"C. c #A4492A",
"Z. c #A7552E",
"A. c #845450",
"S. c #8A5C64",
"D. c #8B6463",
"F. c #857C69",
"G. c #867D72",
"H. c #86634D",
"J. c #01810A",
"K. c #038115",
"L. c #138218",
"P. c #22841D",
"I. c #1D8421",
"U. c #298828",
"Y. c #33892C",
"T. c #338E31",
"R. c #6C861D",
"E. c #4A993A",
"W. c #4A8F36",
"Q. c #6C8126",
"!. c #6D822C",
"~. c #688528",
"^. c #71852D",
"/. c #74892E",
"(. c #7A8D2E",
"). c #748527",
"_. c #7A932D",
"`. c #6E8231",
"'. c #698736",
"]. c #728532",
"[. c #798634",
"{. c #758A33",
"}. c #798D35",
"|. c #748A3B",
" X c #7A8D39",
".X c #77843A",
"XX c #7C9135",
"oX c #7E923B",
"OX c #7A9739",
"+X c #6C9026",
"@X c #4FA13D",
"#X c #3A8149",
"$X c #4D9841",
"%X c #519B44",
"&X c #468855",
"*X c #558654",
"=X c #6C8443",
"-X c #788C47",
";X c #7E9442",
":X c #79984D",
">X c #678A57",
",X c #768958",
"<X c #79975B",
"1X c #5BA64B",
"2X c #5EA654",
"3X c #67AA56",
"4X c #6DAE55",
"5X c #5C8463",
"6X c #578B71",
"7X c #73926E",
"8X c #6EB361",
"9X c #79BA63",
"0X c #74AF70",
"qX c #7AC069",
"wX c #808C3A",
"eX c #829436",
"rX c #82953C",
"tX c #849A3D",
"yX c #879A38",
"uX c #81912B",
"iX c #8BA13F",
"pX c #818949",
"aX c #839542",
"sX c #859A42",
"dX c #899D44",
"fX c #8A9D4A",
"gX c #869648",
"hX c #849355",
"jX c #9A9658",
"kX c #8F8E52",
"lX c #8CA145",
"zX c #8DA24A",
"xX c #91A54B",
"cX c #94A94B",
"vX c #96A954",
"bX c #878668",
"nX c #91816B",
"mX c #889A66",
"MX c #849D79",
"NX c #8D8A74",
"BX c #87BB6C",
"VX c #85B879",
"CX c #8DA769",
"ZX c #83C26C",
"AX c #8BC46C",
"SX c #8CC373",
"DX c #8BC973",
"FX c #86C575",
"GX c #92C476",
"HX c #74A183",
"JX c #87B886",
"KX c #87A684",
"LX c #9E9087",
/* pixels */
"^ G G }.tX{.^ ^ tXvXoXY tX(.{.xXeX] U U G } rXyX} H ^.cXsXQ./.fXQ.tXsX/.' D A G }.rX{.{ S sXvXsXQ.rXoX).dXlX[.I S A } rX}.Q.U } ",
"rX{ G !.!.).' { Q./.}.{.cXtX}.sX{.} wXaXH G ^.{.{ ` } }.XX/.}.lX(.rXoX/.{.rX X^ ` !.^.} ' Q.{.}.^.dXlXXXeX}.{.rXwX} K { { ] { | ",
"iX] C G ` {.tXtX] ' ' ^.dX}. .} }. XfXfX` A H { ].dX}.! ' !.{.rX}.!.!.].rXzXoXG A [ oXXXtX] D Y ].eXsX].] Q.eXdXdX).S K ] {.aXrX",
"eX] ` { {.}.dXvXoX{ H ' {.{.' K } ^.)./.` ` } rXeXvXzX].K { ].XX!.` { ).^./.^.K ^ `.oXXXcXrX!.H U  X}.U ' ' } {./.U G ].{.rXlXcX",
"rX} ] XXQ.U { ].'.{ S ^ {.{.U H L ' XXtX!.~.~.{ Y ' ^.`.H G !.}.].` A K (.tXXX} ^.!.] Y !. X{ F H ^. X` D H ' ~.lX].} `.' ' Y /.",
"gX!.] tXT /.`.^ K K S ^ ^.' A G { oXtX{.' /. X/.eX] { ` S G { { ` H H ].tXtX{.} }.{.}.^.K ` ^ F U ].} H ` ` !.lXXX} ]. X{.}.] D ",
"} ` K ].Q.sX XH G ' { ^ ' ` U ! } dXrX` G `.`.!.oX`.L S ' { ` ` ^ G U {.aX{.` G } !. XoX` S K } } ` ! K H ' oXdX} ` ` `.^.oX{.` ",
"Q.K ! Z [ { { { ~.oX;X` D ` ' ~ ` } } / F F G L `.`.` !.zX].A ^ ` ^ ` { ' { ` F H G ` ^.{ ' {.lX .G H ` ^ ` !.` ^ G C K L ~.`.! ",
"K H C A G H K !.yXlXtX` F A } {.~.Q.X.` F Q D G [ K [.zXtX].{ A A `.|.].^./ G Q V G Q D } rXzXXX!.!.A Q./.^.} !.! G F C Q H ` ^.",
"~ C } fX}.!.} H !.{ !.}.oX}.}.{.!.^ ! B I .XrX.X} ^ { '.} /.}./.XX_.).{ _ I U ) eXaX|.K ` !.].] !.oXrX{.^.] ^.^.H ! !.aXrX^.H ` ",
"].` !.sXsXoX}.!.[ ^ H } XXlXdXXX|.oX}.Q.] ^.uXaX(./...^ F ~ ].fXcXrX}._.+X} } '.yXrXoX{. .^ D J !.`.zXlXrX/.oX^.} ]./.tX}.}.].^.",
"sX;X[ A H ).eXlXoX{ G F H }.lXeXXXdXzXrX..U P [ hXhXmXmX7X,X,X7XMXmXCX7XKXmX;X).H B Q.tXsX;X].` S S ].vX}.rXrXoXoX/.L H K }.aXyX",
"L Y !.' U ^.tXtXtX] ^ } ^ { ^.}.eX}.Y L [ } o.=.KXJXJXJXJXVX0XJX0XJXJXVX0X&X&X-X`.} ).}.oX;X].A Q.!.!.^.} ^./.] Q.] } ].!.^.XX}.",
"].].tXeX/.Q.^.} } ` }.lX{.` ` { ' ] R.).}.dXMXKX0XVXDXAXDXDXqX4X1X1X1X1XE.t s ,.>X:X}.Q.' ' { `.oXrX!.A {.!.^.^.`.}.oXXX^.{ [.].",
"gXdXrX(.XX{.] ` G ' oXsX^.U } { [ !.tXxXyXaXKXJXVXSXSXSXSX9X1XU.L.K.p u L.L.i t *X<X}./.' A { ;XXX}.!.!.!.!.Y XXoXoX/./././.} G ",
"iXxX}.G { ].!.U D ! !.{ ` { }.}.^.' {.vXyX|.0XFXGXFXFXFX8X%XU.L.i t K.K.u i i J.@.>X'.^.L A ' ' !.B } ].^.^./.^.cXlXQ.^.Q.!.!.!.",
"!.{. X|.U ] {.^.~.S ~ ~ J U /.oX{.P L ..rX;X0X8X9XAXSXSX3Xa e a p i i u r K.t w #.<X .^.]. .B B S A ! `.XX}.L ! ^.{.}.!.H ^.].{.",
"U S ^ ` A U } rX/.{.H H ^ G ^ R.wX].!.{ ' ~ >X5X3XBXGXBX1XI.u r K.r r u u p w 8 @.X.N !.-X{.`.=X` } ^ ` ] ^.^. XD ' { H S L ^.^.",
"^.A H } } } K } aXfX|.K ^.!.L |.).-XX.S U L '.5X,XmXjXjX-X_ Z M c c c c c c E @.:.=X] N ).dXtX}.!.^.!.!.{.}.XX!.L A ` !.{ ].K } ",
"!.S H  XfX XU L oXcXoX!.cXoX}.dXyX].!.Y ~ o.fXgXH.N.c.C.Z.V.i.> > > : $ $ $ W :.} ;XrX[.S `.fXrXQ.rXXX^.cXXX!.] ].G } .X;X} D ).",
"dX^.S U } !.!.).} R.R.].jXwXuX}.>X&.5X>X6XHX6X6X=.kXjXkXkXkX-.Q l c c c z z E *.>.5X5X&.*X'. X/ ].XXdX}./.^.}.rX;X].C ' } ^.^.] ",
"XX^.S U !.}.sXdX].L U ].XX(.].&.*.7 e U.4XBXE.t $X8XBXGXVXSX3XY.I.U.I.i K.u w 7 8 w t r h 5X=.R `.oXoX^.L ^.].rXaX!.A S ].{.zXoX",
"oX).L } ].{.oXtXoX'.F ^.XX/.&.@.7 y %X8XAXVXW.9 y Y.2XBXGXGXBX9X8X8X%XU.r J.r s w 8 8 s u h #X=...].].!.H { } !.}.!.).].^.].oXfX",
"gX]... X!.U K !.].^ A Y ,X&.@.7 U.@X8XAXGX0XW.9 8 w U.3X9XAXDXDXGXDX9XE.Y.I.i t e 8 9 q N y s #XX.;X].K ` A U rXsX/.^.^.!.U Q.Q.",
"{.D !.oX!.{.}.^.) M G |.&.8 s d 1XBXFXFXFXBX$Xi w 8 9 j E.9XSXSXGXZXqXAX3XU.u L.e r f : : Z a t #X,XY ~ ~ ~.tXlX^.^.Q.!.}.XX^.!.",
"`.^ G !.!.[.{.U S [.'.X.&.8 q _ :XBXSXBX4X%XY.K.w 9 q l G E.4XqXGXFXDXDX4XU.r r u r f b ; 1 x f h >XG ~ J ' }.{.} G K `.!.]./.A ",
"} H C G G } ` } }.fX;X/ &.c b c.kXBXZX9XT.L.a e d f x ; k Z W.<XCXCX9XqX1XY.i u u r f : * & : l j ,.=.X.' [  .} ].A F l A `.!.`.",
"^ G G ^ G ^ H ^.tXaX(.-X;.: r.c.jXBX1XU.L.u i a f x ; % > : n N.| W.Y.Y.U.i r u u i g b & = & : : 5 H.=X{.|.}  .A G ..D A H C `.",
"G ! !.fXdX}.] L } K !.-X$.8.g.Z.jXBXE.i d c f c b * 5.9.0.0.q.O : l 0 0 f y K.K.y f v : 2.5.= O # @ 2 nXXX^.' L M ^ ].fXfXoX].D ",
" X!.^.^.^.}.rX}.!._ G -.D.p.b.M.jXBXW.d m > : $ - = w.l.g.l.w.6.% > > > b f a i f k > $ = = % o , 2.2 LXdXeX;XtX{.!.!.{.^.{.rX!.",
"oX} !.H S ^.}.dXoX} K =.H.n.x.Z.o.W.( x : 4.6.e.t.e.u.l.B.z.u.r.e.e.w.e.r.m c y f : & * & O = = + @ 4 G.oX}.OXsXrX!.Y S K {.rXdX",
"` } `. X!.!.^.}.[.'.] pXS.a.V.c.I f n 8.* - y.z.m.V.B.c.B.b.s.B.s.V.B.c.i.7.: Z c : O 2.= & = & 2.+ 3 7X-XwX~.| ` } !.{.!.!.}.{.",
"XXeXXX{.}.!.^.Q.S `.dXjXD.a.C.B.c.M.c.y.u.u.s.v.B.B.B.B.B.B.B.B.V.V.B.B.B.y.e.> > $ * & = = + = = O 3 F.| {  X{.(.(.tXtX/.}.^.K ",
"lXdX}.!.{.}.!.S A `.!.hXS.a.M.B.M.B.c.v.s.B.B.B.B.B.B.v.B.B.B.B.B.v.v.v.V.B.r.c.9.6.9.6.5.5.= = o + 3 F..X' } aXvXzX/.] {.}.{ S ",
"XXtXrX} K !.].^.G [ J =.S.a.m.v.s.V.V.V.B.B.B.m.B.B.B.V.V.B.B.s.v.v.B.v.V.V.B.u.s.s.g.u.i.0.= & O O 5 NXrX^.D ] tXdX!.U !.!.].!.",
"K Q.].} D } {.}.} G ! =.S.p.g.b.V.B.B.v.B.B.b.s.y.i.i.B.V.B.B.B.v.B.C.v.v.V.V.V.V.i.i.v.B.0.& % = @ 3 F.rX!.] U U ]. X..^ ' ].oX",
"!.K K ` H U K ] tX/.!.-.$.2.h.s.B.B.B.c.B.B.s.s.e.6.w.u.B.B.l.l.s.B.B.B.v.s.s.s.y.6.4.t.i.7.= = = 5.3 F.' {.rX}.H G H G S S { ].",
"K C H {. X} ` !.yXxX`.-X$.X h.z.B.B.B.V.B.m.i.0.- = 7.B.C.B.u.0.i.s.V.V.c.t.6.7.- & - 6.6.5.= = & O 3 G.aX XeX^.` A U ].oX`.S ' ",
" X` H `.oX].} ).{.rX!.<X$.X h.u.s.B.V.V.V.g.0.= = = 0.u.B.B.i.& 9.t.l.B.i.5.& = & & & & & O O O & O 3 NXfXoX .] ].` ` {.aX^.U ] ",
"zX!.A A ^.^.{.}.].~ `.hX$.X = 8.i.v.V.s.l.l.i.5.* O = 5.7.g.u.5.* 5.w.u.i.6.= = = & = = & & % = & % 3 bX[.} }.zXgX} S L ' ].sX}.",
" X!.D ^ `.oXsXzXOX} U ,XS.. w.% r.l.i.t.u.B.t.= = & O & 0.s.i.4.= & 5.9.0.6.+ & = = % & = 5.+ + o @ 6 NX' ^. X{.}.!.G ` ^.}.dXxX",
"oX].] }.!.!.)./.[.` ^ [ F.2 ; < t.l.w.5.7.g.t.& % = = 4.0.y.t.4.= O = = = & o = o = 2.% * @ * 4.#   +.bX! l '  XtX!.{ {.!.] !.}.",
"sX^.!.oX] ^.].!.X.H Q [ pXH.5 6.8.9.q.q.= 9.q.% O = = = 6.9.6.= = O & & & O O = = O % 5.= * O & # %.>.o.U } OXOXoX!.!.oX] ^.Q.U ",
"!.U } {.}. X}.L ^ S ~ X.L >.1.  < ; % 5.= % O 5.O = & O & = = o & & & & & & & & 5.o & 5.o & % # 5 NX~.N J ..gXOX] L { ].!.dX}.U ",
"].! H H K } ].].T rX}.L D ~ ,.+.6 < - o , = % 5.= = & = & & & & O & = O = = & O o - 4.@ 7.% *   +.7XJ o.Q K } !.} ! ^ ! ` ].} H ",
"! A A G C G H } tXfXfX] H ~ =.,.O., 2.* = 2.- % = & & = = = * & & = & & & & = & * 2.% < O 8.. O.<.X.I ~ /.Q. XJ [ C A G D D ^ `.",
"^ G ' {.!.!.^ ..oX`.o.^.`.'./.rXF.2 X + 5.O O & = O O & = & & & = = & & O = = = 4.% % * q.. %.bX`.R. .`.{.).' [ K G ^ {.^.K ^ { ",
"} U ].rXtXoX!.U U L D ].gXtXfXuXgXnXA.. & , + 4.& & = = & & = & & O & & = O O & & + q.2.# $.bX_ ~.rXfXlXeX!.Q. .} ^.].lXoXXX].} ",
" X`.H ` U ].oXlXoX} G H H ].lX(.uXzXNXA.@ + 5.o + , + = + O O = & - & o = & & O , - % 2 D.mX^.S Q ` ].tXeXXXdXdXXX!.!.A !.{.oXlX",
"].!.!.} K !.XXXXoXK S ^.^.^.}.XX{.aXQ.hXD.X 3.2 O = = = = = & & = @ = = , = , + , X 4 G.xX]..XG { ' { }. XtXXX^.!.!.!.!.A /.{.rX",
"!.!.oXaX{.} !./.Q.L ^.fX{.A ].].{.`.R.Y <XbX5 # o o O @ O O @ o O % O @ % @ @ O @ %.G.aX!.`.{ !.tX^.' H } } ^.Q.Q.^.oXrXQ.!./.^.",
"lXtX{.^.}./.] !.K ] rXvX^.].H D } /.aXxX_.hXnXN.f.f.f.j.j.j.f.k.j.2 j.k.f.j.k.f.$.F.-X].'.D ).oXlX}.} U } U ^.sXXXlXXXQ. X}.!.Q.",
"lXxX^.` ] oX!.^ M ..^.!.Q.Q.}.].^ ` XXvXyXT ..,XbXF.:.-.:.:.:.:.bXbXbXpXbXNXmXbX-X).).X.S I S } !.^.} rX}.Q.` ].vXoX/.!.!.] !.B ",
"] rXoX^.S !.[.} ! G G A L ^.}.oX/.~ H (.wX{.' U Q.~.`.` G ! G ~ !.{. X} L ] }.eX] ` } XXoXQ L D G G L (.XX^.H K /.!.!.].} !.{.^.",
"U { ].].A G `.aX}.] ' A S A ).]./.!.` L } [.) L U ].}.^.U A A ` G } o.} } ` !  .o.U P | '.|.] !.G H ) K {.{.].^.!.{.!.!.A !.}.}.",
"`.G M G ` ` ` } }.tX^.` |.`.H !.!.tXXX) C ! { ) S Y }.dX X| { {.} ).!.}.oX!.S G / [ H H ).wXrX).U ].`.~ ^ {.rX(.!.M A D !.S !.^.",
"` ^ ^ ].aX}.K H yXcXXXQ.lXrX^.lXoXQ.U U ^ { {.XX' D !.zXdX/.{.tXQ.eXxX].Q.!.`.G !.{.^.} H }.lXsX{.oXXX/.lXoX!.!.A S ].} ]./.] ^.",
"rX` A { {.}.!.!.!.!.^.XXlXeX}.rXoX].rXoXG D {.^.].!.!.)./.{.eXdXQ. X{.{.}.eX!.A ^.!.!.^.^.^.].{.XXoXXX/.XXXX/.rX].!.B ].].Q.] ].",
"zX].S H } oXrXaX].^ { {.rX}./.] !.}.dXgX^ G [ ^.}.sX X' U ] }.rX}.^.].!.XXdX!.G S !.^.XXsX!.!.^ ^.tXoX^.^.' {.oXrX^.S N {.XXtX}.",
"XX^.` ' ' XXrXdXoX} L ` }.^.' D Y !.{.oX' ` { {.{.dXzX X` U } /.}.{ S {.] !.).!.!.Q.}.^.dXfX`.F Q.^.{.].S ]./.^.}.Q.!.!./.rX}.rX",
"sX{.].oX} Y ' Q...` S K {.!.K G D Q.XXtX!.{.{.' L Y ^.} G H ^.{.^.G A A {.lXoX] |.^.Q.Q.!.!.} F U !.} } A l !.oXtX{.!.].^.Q.^.Q.",
"rXK } ;X].}.XX` D G D ' !.` H ^ !.sXdX!.D {.rX^.rX!.` K G K } } D ` H {.dXoX!.`.}.]  X}.} `.H A Q.^.].G A {.oXdX/.!.}  X!.XX^.A ",
"{.H ! } } oXoX` ^ { } K ` H ^ ` } rXoX' H { } !.rX!.K U } ] ^ H ! ^ `.`.oX^.U D ^.].].!.S A !.!.].C A ].A } oXaX!.S ].{ !.^.{.`.",
"` ^ G ! H { ` { !.fXaXK H K ^ ! ^ D ` } ! F H ! } { { }.zX}.G H ].H H ` S ` } F S S G `.^.!.rXXX..A } A !.` K A ^.S G D S !.` } "
};
