/* XPM */
static char *c3BhY2Urb3JpZ2luKzkrMw__[] = {
/* columns rows colors chars-per-pixel */
"64 64 256 2 ",
"   c #520506",
".  c #741705",
"X  c #6E0F0D",
"o  c #7B2512",
"O  c #5E3032",
"+  c #712F2E",
"@  c #621C2F",
"#  c #4B5E0D",
"$  c #525C17",
"%  c #4E620E",
"&  c #4F680C",
"*  c #52650D",
"=  c #556A0A",
"-  c #4F6212",
";  c #4E6A18",
":  c #526514",
">  c #556915",
",  c #596D16",
"<  c #53651A",
"1  c #566A19",
"2  c #5A6D1B",
"3  c #596618",
"4  c #5D721D",
"5  c #597516",
"6  c #52730A",
"7  c #616C1D",
"8  c #636A15",
"9  c #61741E",
"0  c #647A1E",
"q  c #69771B",
"w  c #60710B",
"e  c #78473A",
"r  c #5B6E22",
"t  c #576A26",
"y  c #5E7221",
"u  c #5C7627",
"i  c #5E6F33",
"p  c #626825",
"a  c #627523",
"s  c #657A24",
"d  c #6A7D25",
"f  c #62752B",
"g  c #667B29",
"h  c #6A7D2A",
"j  c #6A7425",
"k  c #727C2B",
"l  c #687A34",
"z  c #737D33",
"x  c #757C37",
"c  c #656736",
"v  c #633544",
"b  c #725050",
"n  c #6D7D54",
"m  c #737253",
"M  c #786B63",
"N  c #6A7166",
"B  c #7A7964",
"V  c #745866",
"C  c #981C13",
"Z  c #901105",
"A  c #A60A04",
"S  c #A61604",
"D  c #B01812",
"F  c #86260A",
"G  c #893B09",
"H  c #972714",
"J  c #902E0F",
"K  c #BA2A09",
"L  c #B3330E",
"P  c #8F3733",
"I  c #AC2F2A",
"U  c #B01729",
"Y  c #C80D04",
"T  c #D90708",
"R  c #D91808",
"E  c #CF190F",
"W  c #EC0903",
"Q  c #E90607",
"!  c #F50201",
"~  c #FA0202",
"^  c #F40A03",
"/  c #FC030B",
"(  c #F40C0A",
")  c #F70708",
"_  c #E91708",
"`  c #F4140A",
"'  c #E70B18",
"]  c #EC1712",
"[  c #FA1814",
"{  c #FC0414",
"}  c #CD2C10",
"|  c #F82A06",
" . c #FA3D03",
".. c #FB221C",
"X. c #FA2914",
"o. c #FB3716",
"O. c #EB2E14",
"+. c #D91623",
"@. c #F11420",
"#. c #E51321",
"$. c #CE302D",
"%. c #FA2624",
"&. c #F73528",
"*. c #FC3734",
"=. c #EC3C33",
"-. c #8A4605",
";. c #954D0E",
":. c #BF4118",
">. c #9D6206",
",. c #A46806",
"<. c #AB7A07",
"1. c #B27B08",
"2. c #AF7116",
"3. c #8D583E",
"4. c #8F7438",
"5. c #B96A25",
"6. c #A84422",
"7. c #FF4809",
"8. c #FE5E02",
"9. c #FE5D0A",
"0. c #FF5300",
"q. c #FD4813",
"w. c #FF5C14",
"e. c #FE5D1C",
"r. c #FB5515",
"t. c #EC4F1A",
"y. c #C77C00",
"u. c #FE6202",
"i. c #FD620B",
"p. c #F86607",
"a. c #FE6B14",
"s. c #FD621B",
"d. c #FC6516",
"f. c #FF701C",
"g. c #FF4C2D",
"h. c #FD5B24",
"j. c #FC5827",
"k. c #FF4A34",
"l. c #FC473A",
"z. c #FB5638",
"x. c #EE502B",
"c. c #FC6527",
"v. c #FC7724",
"b. c #F66336",
"n. c #A93343",
"m. c #C7384B",
"M. c #8E5955",
"N. c #8F4E48",
"B. c #B94B4F",
"V. c #8A6C54",
"C. c #A9655E",
"Z. c #8E5867",
"A. c #AC5C63",
"S. c #996865",
"D. c #8B7665",
"F. c #967B69",
"G. c #977777",
"H. c #87746D",
"J. c #A36668",
"K. c #A5786B",
"L. c #A77A75",
"P. c #CA4B4D",
"I. c #FB5A45",
"U. c #F3524E",
"Y. c #FE6446",
"T. c #EF714D",
"R. c #D0685D",
"E. c #6F851E",
"W. c #5E862B",
"Q. c #658225",
"!. c #6C8126",
"~. c #6E822C",
"^. c #6D8B2C",
"/. c #68862A",
"(. c #71852D",
"). c #74892E",
"_. c #798E2E",
"`. c #768327",
"'. c #78922D",
"]. c #6E8331",
"[. c #6B8637",
"{. c #728532",
"}. c #7A8533",
"|. c #758A33",
" X c #798D34",
".X c #73833A",
"XX c #758A3A",
"oX c #7A8D39",
"OX c #7E8639",
"+X c #7C9135",
"@X c #7E923B",
"#X c #769539",
"$X c #699139",
"%X c #788846",
"&X c #7D9342",
"*X c #789548",
"=X c #7A8B57",
"-X c #738B48",
";X c #7CA144",
":X c #768860",
">X c #BA840B",
",X c #838C39",
"<X c #82953C",
"1X c #849A3D",
"2X c #859837",
"3X c #8E9231",
"4X c #8CA23F",
"5X c #A78B38",
"6X c #CA9A1A",
"7X c #CE8C12",
"8X c #CFA414",
"9X c #CB9120",
"0X c #FF843D",
"qX c #F0903A",
"wX c #EAB326",
"eX c #F8AD2F",
"rX c #858E45",
"tX c #839542",
"yX c #869A42",
"uX c #8A9D44",
"iX c #8A9C4A",
"pX c #84994A",
"aX c #828258",
"sX c #879457",
"dX c #939D49",
"fX c #8CA145",
"gX c #8DA24A",
"hX c #84A548",
"jX c #91A54B",
"kX c #95A94C",
"lX c #97AA53",
"zX c #888968",
"xX c #989267",
"cX c #978274",
"vX c #938D6E",
"bX c #A28971",
"nX c #AAA85E",
"mX c #F88C55",
"MX c #FD9D5A",
"NX c #FD944B",
"BX c #CFAA47",
"VX c #FFA459",
"CX c #F5936D",
"ZX c #F7B678",
"AX c #FDAD6E",
"SX c #FAC57F",
"DX c #98A48B",
"FX c #A79F8B",
"GX c #F6BC86",
"HX c #FDC798",
"JX c #FCCC92",
"KX c #FCD6A6",
"LX c #EDCDB4",
"PX c #FEE3B4",
"IX c #FDEAD2",
"UX c #E8DED6",
/* pixels */
"y 1 1  X1X|.y u 1XkX<X9 1X_.}.gX+X!.9 a 3 h <X1Xh 1 ).kXyXd ).uX!.1XyX).s 2 : 1  X<X|.g > yXlXyX~.<X@X).1XdX).q : : g <XoX(.7 h ",
"<Xg 1 ~.~.!.s s !.|. X|.kX1X XuX}.d  XyX1 1 (.|.g a d  X+X|.+XgX).<X@X).).<XXXa a h {.d s d |.|.^.uXuX X<X X X,XoXh y d d d d a ",
"4Xd - 1 a  X<XyXd s g (.yX X!.d XX<XuXuXa : 2 d {.uXXXa a (.|.<X+Xd h {.<XjX<X: - g @X+X1Xd 4 q {.<XyX}.d !.<XuXuX).: 7 d |.<X<X",
"2Xd a g }. XuXlX@Xh 1 s  X).s a h k ).).a a ].@X<XlXjXh 4 g (.+X(.a d {.`.).(.9 a ].@X+XkX<Xd 4 q  X|.9 s s d |.).9 1 (.|.<XgXjX",
"<Xh d  X!.9 a {.XXg > y }.|.9 2 4 0 +X1X~.h ~.g q s (.].2 1 ~. X{.a : 4 |.1X+Xg {.~.s 0 ~.oXh < 1 (.XXa 2 2 g /.fX).h ].s 0 d (.",
"pXh !.<X0 ).{.u 4 2 1 y (.s : 1 g @X1X X0 {.#X^.@Xd s a 1 1 g g a 2 2 {.1X1X|.~. X X X(.4 y y < 2 }.(.1 9 9 ~.fX+Xh {.XX|. Xd , ",
"h a 4 z !.yXoX2 > u g y g 9 y r g uX@Xa 4 ].~.~.@X^.2 1 a h a a r 1 y |.tX|.a 1 d ~.oX@Xa > y g ~.y y r 2 a <XyXh a g ~.{.@X|.4 ",
"0 s r ; a g h g /.@X@Xa , a g r a h h u < 1 4 1 ].].9 ~.gX|.- y a a a d s g a < 2 1 a (.g s  XuX~.1 2 a a a ~.q u 1 - 4 4 Q.].y ",
"2 r - : 1 2 4 ~.2XfX1Xa < : d |.).d g a < < 2 1 f y XXuX1X-Xu & * Q.^.{.k 0 5 t 1 - y 1 d <XjXXX~.].* !.).(.h ~.2 3 < $ < 2 a ^.",
"r - h iX X~.g 4 ~.!.~.|.@XoX|.|.h a 3 1 y {.<X XQ.5 4 g ].[.|.2X<X,X(.Q.u 1 3 t @XtX].2 a k }.s (.@X@X|.~.d (.(.1 r ~.1X<X{.2 y ",
".Xa (.uX1X@X X~.f y 2 ~.+XgXfX+X|.XX X~.g {.<X<XsXDXDXDXvXxXFXbXbXxXbXbXcXzXcXcXsXsX&X{.^.a , > ~.~.gXgX<X).oX).z ^.|.1X X X{.(.",
"yX@Xa : 2 (.+XfX@Xg 1 < 1  XuX2X2X1XuX<X~.a 2 y DXLXLXGXZXZXCXmXT.b.j.=.$.P + @ M m ].4XfX@X].y > > (.lX XtX<X@X@X).4 1 4  X1X1X",
"4 s ~.a 4 ).1X1X1Xd 4 l a g (. X2X).0 5 9 h h a =XDXFXCXmXCXT.c.r.o.| Y S Z o e B aXd '.+X<Xz 1 d ~.(.~.~.~.).d (.d d {.~.~.oX+X",
"{.(.<X2X).!.).h h s  XfX|.a a g g d ~.(. X1X@X^.g :XG.R.Y.Y.Y.Y.b.&.} L J F e zXOX,X^.!.d d h ^.<X@X~.: |.!.).(.~.|.@X+X(.d {.{.",
"yXuX<X'.+X}.d a > a @X1X(.9 g h g ~.yXkX1X+X X_.sXnXBXeXeXVXeXeXeX7Xy.1.1.>X4.sX'._.+X.Xh 3 9 @XoX X~.~.~.~.d +XoX<X).).).(.h 1 ",
"fXjX X1 g {.~.9 1 a ~.g a g  X X~.0 |.jX1Xd g ~.vX5X7X8X6X8X6X6X>X<.<.2.,.,.4.:X0 y .X].2 3 q ~.(.* ~.{.(.(.(.(.jXfX!.(.~.~.(.(.",
"~.).oX Xy d |.).(.: 1 r 1 a |.@X}.5 1 }.oX^.|.2 n v   X F Z F F F o F o .   O %X].{.{./.].].% > > 1 r ].+X X4 1 (.|. X^.2 d {. X",
"9 > y a : 9 h @X(.{.2 r a 2 9 !._.%Xg g d w 2 < %X4.>X>X5.9X7X<.,.>.>.>.,.;.4.aXk = % x OX,X{.z 4 h y a s (.).oX, g g 1 : 9 (.(.",
"{.1 2 h h h 2 ~.<XuXXXy {.~.,  X~.2Xz 2 = i l ,XF.BXwXwXwXwX8X>X1.>X>X>X>X>X3Xm i ].s & ^.tXjX X~.{.h ~.)._.+X~.4 > a z g (.4 ~.",
"d 1 1 oXiX@X4 4 <XjX<X(.gX X+XgX3X[.W.a $ {.sXD.N.5.y.5.2.;.6.-.-.-.G G -.-.G @ b sX&X!.: ].hX#X~.<X@X(.lX+X!.!.~.1 h |.tXh , ~.",
"uX(.> a h ~.~.(.d (.(.(.jX+X@X X9 .X;X#Xd i V P L } $.I K S A S S S S F + F .     b -Xg ,Xk ~.(.). XyX}.|.(. X<XoX{.* g h ~.(.~.",
"@X(.* 9 ~. X1XuX).4 9 ~.+X X~.2 |.$X&X3Xm O X E _ ` ` _ _ _ _ _ _ Q _ L G F F . o . b :X;X-X8 0 {.@X+X(.4 (.).<XtX~.: > {.|.gX+X",
"@X~.5 h {.|.+X1X@X].1 (. X(.(.1 g {.rXC.n.I $. . . . . . . .o.*.&.[ ' } } E E H G H H e M @Xz 1 h |.).^.1 g ~.~. X~.~.{.(.).@XuX",
"yX{.z oX~.9 4 (.h y 1 y {.d g 1 l :XC.=.U.U.z.e.u.9.u.u.p.8.w.I.l.X.) ` ! ) ] L L 6.I C o H.-X; : }.(.4 a < a @XuX|.(.{.d 9 ~.~.",
"|.1 (.@X).}. X~.6 $ c !.].2 i V M.R.R.mXVXMXmXf.8.i.i.u.u.u.i.s.j.k.*.[ ! ~ ^ ` ] R O._ D H b n 0 l u t 7 k <XjX(.(.d ~. X+X(.~.",
"].a 1 h h {.|.9 2 %Xl s ; 4 D.+ I T.GXGXKXJXZXqXv.a.u.u.u.u.u.i.s.j.k.*.%.( Q ) ! ! ! ! ( Y C P n u 5 l 2 9 (.oXh > 2 (.~.|.{.: ",
"h 2 - 1 1 h a h |.4X1X, 2 p F.P.T.AXHXIXIXIXKXZXNXv.u.p.u.u.8.u.i.9.c.z.l.[ ! / ~ ! / ! ! ) E Z + M f u a g !.h {.: < # : ].~.{.",
"a : 1 a 1 a 1 {.uX'. X!.%XV.N.I.mXAXLXIXIXIXKXSXVXv.u.u.p.8.u.u.8.u.p.e.g.X.! ~ ~ ) ! ! ~ ~ W _ A P b -X|.%Xs d < 1 ].1 : 2 - h ",
"< y ~.gXiX|.d 5 {.4 [.{.zXP :.t.0XMXJXKXKXPXKXZXNXf.8.u.p.8.u.p.u.u.u.u.r.X.` ^ ! ! ~ / ~ ! ~ ~ ' Z   N 2X!.z 4 - 4 {.iXiX@X{.1 ",
"oX~.(.(.(. X1X X~.f : f G.P.t.p.a.v.MXJXJXHXAX0Xv.i.8.u.u.u.u.p.u.u.u.u.w.g.*.%.! ! ^ ~ ! W ^ ~ ' S @ M uX2XtX&X|.~.~.|.{.|.<X(.",
"oX~.h 2 > ~. XuX'.h , r L.z.w.d.u.8.v.NXVXNX0Xf.p.u.u.u.u.u.u.u.i.u.u.i.d.j.k.O.! ~ ! ~ / ! ! / Q Y C K.%X{.gXtX@X~.9 , 9 ).<XuX",
"a h {.oX~.~.(. X{.^.].XXK.b.p.i.p.8.a.c.a.a.f.p.u.u.p.u.u.u.u.u.u.u.u.i.i.d.r.| ! ~ / ! ! ~ ~ ! ~ Q +.J.-X#Xd q 9 ~.~.|.~.~. X|.",
"'.<X+X|. X~.(.!.3 !.tXlXvXc.8.p.u.u.u.u.u.u.u.u.u.8.u.u.u.u.8.u.i.u.u.i.p.u.0.| ! ! ~ ~ ! ! ! ! ( ! #.S.f h XX X_._.uX<X). X~.4 ",
"fXuX X~.|. X~.> : ^.).*XbXh.u.i.u.u.u.u.u.u.8.u.u.u.u.u.u.u.u.u.u.p.u.9.i.d.r.| ~ ! ! ! ~ ! ~ ! / ~ ] J.%Xj ^.@XlXdX).d |. Xg > ",
"+XyX<Xd 4 ~.(.(.t y 7 p F.t.8.u.u.u.8.i.u.u.u.u.u.u.u.u.u.u.u.u.u.u.i.u.d.z.k.X.~ ! ~ ! ! ! ! ! ) ! @.K.pXk 4 s 1XuX~.a h ^.{.~.",
"9 d |.h 1 h {.@Xl 1 7 t cXb.d.9.u.u.u.i.u.u.u.u.u.u.u.u.8.u.u.u.u.i.u.u.9.g.*...! ! ! ! ! ~ ~ ! W / ' K.-X`.!.9 y {.XX(.a g |.|.",
"(.4 2 a 2 4 4 d 2X^.!.g cXU.c.h.u.u.u.u.u.u.u.u.u.u.u.u.u.u.u.u.u.u.p.p.r.X.[ ) ! ! ~ ~ ! ! ! ~ ( ~ @.S./.oX X,X2 1 4 1 : 1 a {.",
"4 - 2 |.oX~.a ~.2XfX'./.K.&.q.w.u.u.u.u.u.u.u.u.u.8.u.u.u.u.8.u.u.u.i.c.g.X.! ! ! ~ ! ! ~ ~ ! ! ~ / ' J.pX X X}.a 1 2 {.&X(.1 s ",
"oXa 2 ].@X{.h (.OXtX{.XXbX$.O.r.w.i.u.u.u.u.u.u.u.u.u.u.u.u.u.u.p.w.j.k.*.[ ~ ~ ! ! ~ ! ! ! ! ! / Q +.L.iX+X!.h ].a q {.<X).q d ",
"gX~.: : ~.(.|. X^.y j &XcXH $.x.e.w.i.u.u.u.u.u.u.u.8.u.u.u.u.u.s.j.k.=.%.( ! ^ ~ ! ! ! ~ ! ~ ! Q D D cXz !. XuXyXh : 4 g {.tX X",
"oXh 1 4 {.oXyXgXOXd f W.%XS.I x.l.h.r.e.u.p.u.u.u.p.u.u.u.u.i.h.z.l.&.[ ! ! ~ ! ~ ! / ) ! ! ! ~ ] C Z.sX6 .X@X`.oX~.3 y {. XyXjX",
"<X{.d  X~.(.(.).XXj r u rX-XS.+.&.I.j.u.u.u.i.u.9.8.u.u.u.p.h.z.l.X.` ) ~ ! ! ! ^ / ! ~ ! ! W / Q J.:Xz 2 & j  X1X~.g  X~.!.(. X",
"yX(.~.@Xd (.(.~.Q.p # f `.W.D.U R &.l.g.s.i.u.p.8.u.d.h.j.q.o.o...` ! ! / ! ! ~ ~ ! ! ~ / / ^ T U H.W.8 f s {.hX@X~.].@Xd (.!.9 ",
"~.9 h |.|.+X X9 y $ a (.4 4 x N.A _ ..U.z.7.8.8.8.9.j.l.*.[ ^ ! ) ~ ~ ~ ! ! ! ! W ~ ! Q / ! E Z M.m u * > [.iXoXs 5 g {.~.uX X4 ",
"{.y 2 2 4 h {.].g <X<X, u 3 8 n Z.Q ) O.O.X.| | | | X...[ ^ ! / ! ~ ~ ~ ! ! ~ ! ~ ) ! ! ( Y Z S.=X8 i %X= 1 ~.}.h r a 2 a {.d 2 ",
"r : - 1 - 1 1 z tXfX<Xl 1 ; q l xXA.+.Q ~ / ! ! ! ! ! ! ^ ! ! { ! ! ! ! ! ! ~ ~ / ! Q ' Y P M sX[.: t 3 (.(.).1 a - < 1 5 1 a {.",
"y 1 a |.~.~.y ~.+X}.d XX].^.'. Xk =XC.#.! ] ! ! / ! ~ / ) ! ! ! ^ ! ~ ~ ! ! ! / W Q T A P :X*Xd !.]./.}.<X{.d 7 r 1 a XX(.9 r g ",
"h a {.1XtX@X!.a 5 t a d uX1X2X@X}.q n G.m.! ~ ( ~ ! ! ! ~ ~ ~ ! ! ~ ~ ~ ~ ! ! ! ^ W S N.B l p y `.@X1X4X+Xg ].(.d (.{.uX+X X{.h ",
"@X{.2 y 9 {.@XgXoX~.1 2 4 (.fX'.&X4X2X*XF.m.' T ] _ _ W ( Q ^ / ^ / ~ ` _ _ W _ Y C b vXtX2X~.t 1 a |.1X2X+X1XfX X~.^.: (.{.<XgX",
"].~.~.h 4 ~.+X+X X4 1 ~.(.(. X X'. X`.E.*X:XM.I S } R ^ ~ ! ~ ! ! ~ ` } L } K S P N.&X|._._.^.3 d g d  XoX<X+X(.~.~.~.~.* {. X+X",
"!.~.@X<X|.d (.(.~.9 (.uX{.> {.{.}.(.q q ).#X*XD.m V.C.B.P.P.P.P.P.B.B.N.V.V.V.V.aXsX^.^.).{.a (.1X(.a 2 h ~.(.!.(.!.@X<X!.~.).(.",
"gX1X|.{.oX).d ~.4 d @XlX(.{.2 2 h [.pXjX1X,X,X<XrX.Xl a XXpXsXl l p x .X|.jXiX&X X).(.{..X1 g yXfX}.~.y h a (.<X+XgX+X!.@X}.(.d ",
"gXjX(.a d @X~.9 # ].(.(.!.d  X|.u u +XkX1X/.a s  Xs 1 : ~.|.z u h tXk (.).uXkX1X!.`.k }.> > 4 {.~.^.!.@X X!.a |.lX+X(.(.d d ~.: ",
"!.@X@X{.1 h {.h r 3 1 : 4 ). X+X|.8 8  X<X^.0 a !.}.(.a 2 : < f z oX{.~.> /.). X{.7 k |.|.4 , & 3 1 4 }.+X).1 4 _.~.~.{.~.~.|.~.",
"9 g {.{.: 1 {.tXoXd a : 1 : (.).).~.u u Q.{.d 5 4 }.<XQ.4 , 7 7 > ~.Q.^.~.4 9 |.[.y 1 /.].(.!.).1 1 a 4 ).|.{.~.~.|.~.~.: ~. X|.",
"(.1 # 1 a a a h +X<X(.a XX{.2 d (.2X X2 < p f y r 4  XfX&Xg d ^.~./.{.}.,X].> 1 y j 2 > (.<X,X[.a {.].r y |.<X+X~.# > 1 h , ~.).",
"a a r {.yX X9 1 1XjX+X!.fX@X(.gX@Xd 9 9 y g |.+Xa , !.gXuX).|.yX`.+XgX|.~.!.~.1 h |.(.h 4 |.gXyX|.@X2X).gX<X^.].: 1 {.h {.).!.~.",
"<Xa : h {. Xh ^.~.~.(.+XfX2X X+X@X|.<X@X1 2 |.(.|.(.~.(.).).<XuX!.+X|.|.|.<X~.: ).~.~.(.{.(.{.|. X+X X|. X X(.@X{.~.% (.{.~.!.(.",
"jX(.> 2 h @X<XtX(.a g |.<X X).!.h  XuXyXa 1 a (.oX<X Xs 9 d  X<X|.).{.~.+XuX(.1 > ~.(.+XyX~.~.y (.yXoX(.(.s _.@X<X(.> * |.+X<XoX",
" X(.a a d  X<XuX@Xh 4 9 |.(.s , s ~.|.oXa a h |. XuXjXXXa 9 d |.|.h : |.!.(.~.~.~.!. X(.uXiX].: !.(. X{.: ).|.~.|.~.~.!.).<X X<X",
"yX{.{.@Xd s d !.(.a > 4 |.~.5 3 , !.+X1Xd XX|.0 9 0 (.h 1 2 (.oX(.1 : : ).fX@Xd |.(.d d (.^.l < 9 d h h : # d <X1X{.^.(.~.!.(.d ",
"<Xa g tX{. XoXa 1 1 1 a ].g 4 r ~.1XuX(.2 |.<X(.+X~.a 4 1 2 d d 1 a 2 |.uX@X~.]. Xd oX@Xd (.1 - !.(.{.2 3 {.@XuX).(.h oX(.+X).: ",
"|.2 r h h @X@Xa a h h 9 a 2 a a h <X@Xs 1 h ~.~.&X~.4 9 ~.d a 2 r a ~.{.oX^.4 2 (.{.~.{.: : ~.~.{.% : {.: h @X<X(.: {.g ~.(.{.{.",
"a y 1 r 2 a a g ~.iXtX4 2 2 r r a 1 a h r 3 r 2 h d g  XiX X1 1 {.2 2 a 1 a h 3 1 1 1 {.{.d @X@X].- z : ~.a 9 : {.: 1 1 , h y ~."
};
