/* XPM */
static char *c3BhY2Urb3JpZ2luKzkrNA__[] = {
/* columns rows colors chars-per-pixel */
"64 64 241 2 ",
"   c #34060A",
".  c #372839",
"X  c #430705",
"o  c #590E0C",
"O  c #6E0E04",
"+  c #782713",
"@  c #4C2B31",
"#  c #77322B",
"$  c #4F2010",
"%  c #4B5E0D",
"&  c #505C12",
"*  c #4E620E",
"=  c #54680E",
"-  c #4F6212",
";  c #4F661C",
":  c #526514",
">  c #556915",
",  c #5A6D16",
"<  c #53661A",
"1  c #566A1A",
"2  c #5A6D1B",
"3  c #5D711D",
"4  c #5A7317",
"5  c #61751E",
"6  c #657A1E",
"7  c #65781A",
"8  c #616E16",
"9  c #71463A",
"0  c #5B6E22",
"q  c #576924",
"w  c #5E7221",
"e  c #5E7529",
"r  c #627523",
"t  c #657A24",
"y  c #6A7D25",
"u  c #647529",
"i  c #667A2A",
"p  c #6A7E2A",
"a  c #68752E",
"s  c #72792C",
"d  c #677B33",
"f  c #737D33",
"g  c #656D29",
"h  c #40583E",
"j  c #1E3D59",
"k  c #213E63",
"l  c #1E3C5F",
"z  c #4A3B4D",
"x  c #1E435D",
"c  c #2A465B",
"v  c #1F4565",
"b  c #234464",
"n  c #24426B",
"m  c #294A6A",
"M  c #2D536D",
"N  c #37586B",
"B  c #294A72",
"V  c #2F5372",
"C  c #3A5D79",
"Z  c #355976",
"A  c #304F6E",
"S  c #3D627D",
"D  c #366275",
"F  c #554B5C",
"G  c #704F50",
"H  c #566E55",
"J  c #6C7A52",
"K  c #4F546D",
"L  c #6E5767",
"P  c #45657C",
"I  c #5C6573",
"U  c #686A77",
"Y  c #6D7175",
"T  c #8D0D0A",
"R  c #B60302",
"E  c #AA0000",
"W  c #902912",
"Q  c #AB331A",
"!  c #A62D1C",
"~  c #872725",
"^  c #863729",
"/  c #993221",
"(  c #A83029",
")  c #D30A08",
"_  c #CA2617",
"`  c #D0312E",
"'  c #E22A28",
"]  c #E73F3F",
"[  c #E21A18",
"{  c #B24636",
"}  c #CB4135",
"|  c #F84A3A",
" . c #933A45",
".. c #B13A50",
"X. c #CD3D43",
"o. c #8F514A",
"O. c #B1504A",
"+. c #886D79",
"@. c #A76E72",
"#. c #865A69",
"$. c #D85859",
"%. c #CF4749",
"&. c #EA524D",
"*. c #69841C",
"=. c #738B1D",
"-. c #6C8126",
";. c #6E822C",
":. c #6B892C",
">. c #71852D",
",. c #74892E",
"<. c #798D2E",
"1. c #728726",
"2. c #6E8231",
"3. c #6B8338",
"4. c #728532",
"5. c #768A33",
"6. c #798D34",
"7. c #768A3A",
"8. c #7A8D3A",
"9. c #74823A",
"0. c #7C9135",
"q. c #7E923B",
"w. c #78953C",
"e. c #7B912E",
"r. c #7C8D42",
"t. c #778847",
"y. c #7E9342",
"u. c #7F9B47",
"i. c #768A58",
"p. c #7B945C",
"a. c #6E864D",
"s. c #768C66",
"d. c #788F75",
"f. c #829636",
"g. c #81953C",
"h. c #859A3D",
"j. c #869C37",
"k. c #839431",
"l. c #8BA23F",
"z. c #838D48",
"x. c #839542",
"c. c #869A42",
"v. c #899D44",
"b. c #8A9D49",
"n. c #82994B",
"m. c #869857",
"M. c #808C5E",
"N. c #8CA145",
"B. c #8EA24A",
"V. c #88A545",
"C. c #91A64C",
"Z. c #95AA4B",
"A. c #96AB53",
"S. c #84976B",
"D. c #869B77",
"F. c #928970",
"G. c #92A46F",
"H. c #3A5982",
"J. c #3F6683",
"K. c #426583",
"L. c #446B85",
"P. c #486B88",
"I. c #4B728D",
"U. c #47758B",
"Y. c #58788A",
"T. c #4B6B91",
"R. c #4C7592",
"E. c #537C95",
"W. c #5B7B93",
"Q. c #557999",
"!. c #556F90",
"~. c #687689",
"^. c #71788B",
"/. c #5877A3",
"(. c #897182",
"). c #A27780",
"_. c #5A8396",
"`. c #55839B",
"'. c #5A849B",
"]. c #588698",
"[. c #508396",
"{. c #66869B",
"}. c #788C91",
"|. c #5C85A4",
" X c #5A88A5",
".X c #658BA3",
"XX c #6989A6",
"oX c #778DA7",
"OX c #6C93A8",
"+X c #7796AA",
"@X c #7A9BB2",
"#X c #7CA4B6",
"$X c #7AA4A7",
"%X c #7AA0C4",
"&X c #899C89",
"*X c #959993",
"=X c #99A794",
"-X c #8FA583",
";X c #889BAF",
":X c #9BA8AA",
">X c #84A6BA",
",X c #8BA4BB",
"<X c #88A8B9",
"1X c #96A7B7",
"2X c #8BABB1",
"3X c #A7B1AF",
"4X c #AAB990",
"5X c #DBBF9D",
"6X c #E8BC93",
"7X c #D3BFAC",
"8X c #CD8E9B",
"9X c #BEC5BE",
"0X c #DBC499",
"qX c #DDC28B",
"wX c #E5C394",
"eX c #D7C3A6",
"rX c #C9C5B5",
"tX c #D3C9BC",
"yX c #E1C5A0",
"uX c #88A9C4",
"iX c #94ABC3",
"pX c #97B7C9",
"aX c #9BBBD6",
"sX c #8FAEC8",
"dX c #A5BCCC",
"fX c #A4BBD3",
"gX c #A8AEC6",
"hX c #9EC3D0",
"jX c #A9C5CD",
"kX c #B8C5C9",
"lX c #ABC3D2",
"zX c #A9C5D9",
"xX c #B4C4D2",
"cX c #B8C5D4",
"vX c #AACAE3",
"bX c #C5C6C7",
"nX c #D4D5C9",
"mX c #CFD1D3",
"MX c #E4DBC6",
"NX c #EDE2D2",
"BX c #D3CEE2",
/* pixels */
"w 1 1 6.h.5.3 w h.A.g.7 h.<.5.B.f.y 7 3 1 s g.j.i 2 >.C.h.-.5.v.-.h.c.,.t 2 : 2 6.q.5.i > c.A.c.y g.g.1.v.N.<.8 < & i g.6.>.5 i ",
"g.i 1 ;.>.p t i -.,.6.5.Z.h.6.c.5.y 8.x.2 2 >.5.i t i 6.q.5.0.N.6.q.q.,.,.g.7.w t ;.4.p t y 5.6.,.v.v.6.g.6.<.g.g.s w y y y y t ",
"l.y - 2 t 5.g.h.y r y 4.v.6.-.p 7.g.b.v.r : 2 y 5.v.8.r r ;.6.q.0.-.p 5.g.B.q.: : u 8.q.h.y 4 6 ,.g.c.4.y -.g.c.v.,.: 3 y <.x.g.",
"f.y w i 5.6.v.A.q.p 2 r 5.5.t 5 i >.>.,.r r p q.g.A.C.p 3 t 4.0.;.r i ;.1.<.>.5 w >.8.0.Z.g.p 2 5 8.6.5 6 t y 5.>.5 2 s 5.g.b.C.",
"g.y y 6.-.7 i 4.4.i : r 6.,.3 2 3 6 0.h.;.-.;.y 5 5 4.2.2 1 ;.6.4.r : 3 5.h.0.y >.>.t 7 1.7.i < , f 8.r 2 2 i -.V.4.p 2.t t y 1.",
"b.p y h.6 ,.2.w 3 3 1 w >.t : 2 i q.h.6.t 2.w.:.g.y t r > 1 y i r 2 2 >.c.h.6.p 6.6.6.,.5 3 u < 3 >.p 2 r 5 :.B.g.p 4.8.5.5.t 3 ",
"p 3 r 2.-.c.8.2 1 e i 3 t r 0 0 i v.q.3 3 2.;.;.g.;.2 , i i r r w < w 6.x.6.w 1 y p 8.q.r : 3 i s 3 3 2 2 t q.c.p r r 2.,.q.5.3 ",
"y r 2 ; u i i i -.w.x.r , 5 a 0 r p ;.e ; 1 2 2 4.2.w ;.N.5.- w r r r i t r u < 2 < t >.i i 6.N.4.2 2 u r r -.r r < - 3 4 i 2.w ",
"2 0 - : 2 0 3 -.j.V.c.r < : p 5.,.y i r < : 2 > i , t.A.z.,.f = = t 6.;.9.s 0 ; 1 = 4 2 i u.V.6.;.;.> -.,.>.p -.2 < < ; < 2 r >.",
"0 : i b.6.-.i w ;.y ;.5.q.6.6.5.s r < < w 6.g.6.t e t *.-.;.5.x.q.w.5.t 4 > 1 e w.j.>.0 e -.1.p 4.q.q.5.-.-.>.>.2 0 p h.g.>.r 0 ",
"9.r ;.v.c.8.5.p a w 3 -.0.N.v.0.7.8.7.p i 4.q.g.0.,.7 e d a.t.m.G.n.z.x.n.r.z.z.p.n.6.5.5.t 2 q ;.;.B.v.g.5.8.4.p >.5.h.6.0.>.;.",
"c.q.t : 2 >.f.N.q.i < < 2 6.N.f.f.j.B.g.;.w 3 w z.f.G.gX1X,X1XiX1X,X1X,X;X+X+XoXoXs.9.h.x.q.;.6 : > 4.A.6.x.x.q.g.,.3 2 2 6.g.h.",
"4 6 >.t 5 >.h.h.h.y w p w i >.6.f.<.6 4 5 i p i t.q.G.dXpXhXjXpXpX<XOXQ.R.J.U.I.+XD.7.0.g.q.:.: -.;.>.;.p ;.5.y 1.y p 4.2.2.6.0.",
"4.4.g.f.,.-.,.p p r 6.N.5.r r i p i -.:.6.h.q.1.*.-.u i.:XdX<XOX.XoX.XR.D J.U.+Xs.n.>.y y r d t.g.q.-.: 6.-.>.1.4.7.f.6.1.y 9.4.",
"v.c.g.<.0.5.y r < i g.h.1.r i i i 2.c.C.h.0.6.5.,.a ; q *X8X8X@.@.@.@.O.G  . .).y.x.8.7.i = 4 8.q.6.;.4.;.;.y 0.7.g.,.,.>.,.;.< ",
"N.C.6.2 i 4.;.5 , 3 d i r y 6.6.1.6 5.C.h.-.r p 5.y r e @.$.&.&.&.%.' [ ) [ [ ..t.u s 2.3 = t ;.1.* p 4.4.;.1.1.Z.v.p ,.-.p :.1.",
"-.5.q.6.w y 5.>.>.: 2 0 < r 5.q.5.w 2 ;.g.6.;.0 5 r.z.@.^ ! / Q Q Q T T T T O #.z.;.-.4.4.-.< : : < 0 ;.0.6.3 2 >.4.7.;.2 -.4.6.",
"5 : 3 r : r p q.>.4.2 0 r 2 r -.5.4.i i t > r 1 a ;.D.o.T / / W W T T O o O O L i.; * >.9.6.,.f r p w r t ,.,.8., t y 2 > 3 >.>.",
"4.> 2 p p i 2 ;.g.v.7.r 4.-., 6.1.q.t.; , t r 9.2 u F.$.| | | | ' ) ) ) ) ) ) ..J f :.& 4.c.v.7.;.4.;.p ,.,.6.>.3 : 3 p i 4.3 -.",
"p < 2 8.b.8.5 3 f.C.g.>.C.6.0.N.k.4.d 3 = s g.<.d s.o.{ } } { ` _ ) R R R R E T G F.7.;.> 1.b.k.-.g.q.,.A.0.-.y 4.2 ;.7.x.p 2 -.",
"c.4.> r p ;.-.>.y >.-.>.C.0.g.8.y :.N.v.w > t 1.F.G O W + + + + + + X X   X X o   F t.:.8.5 ,.4.4.6.c.5.5.1.6.g.8.4.: t p ;.>.-.",
"q.1.= 5 1.6.c.v.,.3 r ;.6.0.p 3 6.<.q.8.t > e D.oXI Y L U I F z h @ @ o . . $ @ . I &X6.b.8.= i 4.q.q.>.3 4.5.g.x.p : > 4.5.b.q.",
"q.;.4 p 4.6.q.h.q.4.> ;.6.>.4.: 6 -.4.r.-.d &X2XOXOXOX.X XOXY.N V A # ~ z z ~ # F P W.&Xm.z.;.4 p 5.,.-.2 u ;.-.q.-.;.4.>.4.q.B.",
"c.4.f 8.p 3 3 >.p r < r 4.;.u < < 3.j.j.y.&XiX,XdXaXuX].#X1X+XQ.Q.~.X._ z z _ ( c C J.{.S.5.3., < 6.1.w u : r q.c.5.1.4.;.5 -.-.",
"6.2 ;.q.1.6.6.>.2 * 2 9.i 2 : t y v.G.=X1XsXiXbXnXcXhXsX2X>X%X$XOX^.%.' L L [ ` K U.Q.R.Y.}.}.J 6 s f : 3 i x.V.4.1.-.-.6.8.;.:.",
"2.w < p p 4.4.r 2 4.p a 2 4 r 1 y -X<XpXxXjXxXMXnXkXjXlXuXOX;XhX@X}.X.' (.^.` X.~._. X|.].Q.W.Y.s.q , w q t 6.,.p < 3 ;.;.5.,.: ",
"i 2 : > 2 i r i 8.v.q.w 2 3 i t.=X,XpXpXlXnXMXBXbXwXeXbXaXpX<X+XuX:X$.' (.(.` X.^.'.|.`.`. X XR.W.s.q w d i y d 5.: < % : 4.p 9.",
"u > 2 w 2 r 2 >.x.h.6.-.4.= 2.G.iXuXjXBXmXnXMXbXeX5XeXkXlXjXiX+X#X1X&.' +.^.` X.^.].'.`.].`.`.].U.W.d.d <.6.p 2.< 1 f 1 : 2 * p ",
"< 3 ;.b.b.6.p 4 ;.4 4.4.y.g.y.=XpXjXcXmXNXnXbXqX0X9XlXlXzXfXlXdX#X(.%.` Y U { o.^. X`.].].W._._.`.R.oXp.k.s 6 5 - 2 4.b.b.q.4.2 ",
"q.-.>.>.;.6.g.6.2.3 < r f B.A.3XvXmXnXnXtXtXeXeX5XeXrXxXvXvXcXfXaX:X%.' (.~.^ o.~.[.|.`._.R.T.Q. X'.{.-Xh.g.j.h.5.>.;.5.4.5.g.-.",
"8.p ;.3 > >.6.v.y.t w , 2 4.w.:XjXbXNXmXbX0XqXrXbX6X6XkXzXdXzXzXzX3X$.` (.U ^ 9 ~.[.|..XE.J.Z I.'.R..XS.8.8.j.x.g.;.r > 5 5.g.v.",
"r p 2.8.-.;.>.8.5.-.3.>.2.4 ,.1XlXmXbXeXwXeXbXxXjXkXrXxXzXcXkXaXuX}.O.{ ^.Y.# # ~.'.'._.].Q.L.N L.E.XXs.,.7.-.u r p ;.6.-.p 6.5.",
"e.g.0.5.8.>.>.-.* :.j.b.,.-.2 1XzXbXbXeXwXbXzXjXzXzXdXpXfXzXdXpX#XoXo.o.Y Y # 9 Y.W.{.'.'.E.K.K.P E.XXi.0 p 5.5.6.<.v.g.,.6.;.3 ",
"N.v.6.-.5.8.-.: : 2.5.8.;.,.4.:XlXmXNXnXdXcXzXdXlXzXiXOX>XhX<X{.2X1Xo.^ Y I # 9 W._.'.|.Q.C M K.I.].XXs.9.t -.h.A.N.,.y 5.6.i > ",
"0.c.h.p 2 -.,.>.1 0 4 r 2 -.y.:XzXmXnXtXeXkXzXxXfX<X>X<X#X#X>X>XuX;Xo.+ U Y.I U {._.'.U.S S K.P J.R./.D.x.;.> s h.v.p r p ;.4.-.",
"5 y 4.p 2 p 4.q.2.1 3 < > e 3.:XdXhXcXeX6XeXxXxXdX+X+XpX>X.X#XpX%XY.9 # U `.{.W.'.'.`.J.V L.I.Z Z L.XXp.8.1.y 8 5 4.7.4.r r 6.8.",
";.3 3 r 2 5 3 y g.6.p 5 -.w 2 4X,XsXlXkX7XwX0XxXfXpX,X+XXX{..XOX.XY 9 # U '.].].].|.`.E.T.C Z K.R.`..Xi.0 0.6.g.2 2 2 2 > 1 r 5.",
"3 - 2 7.8.;.r p j.C.,.6 v.3.;.3XuX;XuXhXxXeX5XkXzXaX>X{._.].'._.[.[.L G ~.'.[. X].'.`.`.I.V m C I.E.XXp.g.0.,.5.w : 3 4.y.;.> i ",
"8.r 2 ;.8.>.p >.<.z.,.>.C.c.f.4XpX+X+XsXjXjXkXjXpXOX'.{.'.`.'.'. X[.W.~.'.|.[. X'.'.E.K.A b b b C J.{.G.x.f.6 s 4.r 5 4.x.,.5 y ",
"B.;.: : >.>.5.6.>.0 ,.6.0.g.1.i.=X,X,X;XuXfXjXuX+X'._.|.'.`.'.'._. X'.`.`.E.P K.E.R.J.A b k b Z S P OXM.5 1.f.b.b.i > 3 t ,.x.6.",
"8.p 2 3 ;.q.c.B.6.p 5 p 5.q.4.0 y.1XsX$XoXsXsX+X.X{.`.`.'.`.`.'.].'..XE.E.P.M C R.P B k k n B P.T.XXS.>.5 4.6.4.6.p > r 4.6.c.C.",
"g.>.y 6.-.>.>.>.7.u 2 r 6.-.r < y 3XuXuXpX@X+XsX>XOX_.`.`.'.'._.].].].R.S C L.L.M m k l k k b K.Q.&Xt.y 1 : r k.h.;.i 7.-.-.>.6.",
"c.>.;.q.y >.>.1.i 2 : u 6.t > r r S.3XuX>X>X#XiX<X#XOX.X`._.`.'.'.'.'.'.S Z T.K.Z V c c k l P ~.XXd.t a q p 5.v.q.;.>.q.y :.-.5 ",
";.5 p 7.6.8.6.w w < 0 2.0 r 3 r f b.G.3X$X<XsX+X+XuXuX.X'. X`.`.'.Q.`.'.'.P.M Z /.S c k B l P /.*Xd , q 1 -.c.g.t 4 i 4.>.v.6.5 ",
"4.w 3 2 w p 4.2.6 c.8.2 w 2 : g 5 *.a.3XOX#X#XuX<X<X@X{.'.|.]. XI.S E.Q.L.Z b m Z Z n k m Z P @Xa.: u f , 4 >.>.p 0 w 0 r 4.i 2 ",
"0 : - < - < < ;.g.v.x.p 2 2 t u p :.d :XuXoXOX<XiX.X_.E.W.'.E.I.S V L.U.V m m b k b k b m K.{.&X7.> < 0 1.y 4.2 r : : < 2 , 3 9.",
"w 2 r 6.;.;.r ;.0.4.p 6.p ,.,.g.7.y 6 d =X1XXXOX.X].{.I.L.E.I.m P P.C Z I.K.m k n b j C P.{.&X9.-.;.p ,.7.>.-.2 0 2 3 6.>.5 3 i ",
"p 3 5.g.x.q.-.r 5 2 r p c.h.h.f.8.t r p a =X<X`.{.'.Q.L.C K.J.C J.L.S Z K.J.m k x m K.T.XXd.0 0 2.6.l.N.x.f *.4.p ;.9.v.f.0.4.i ",
"8.4.2 r 3 5.q.B.8.;.< 2 2 5.N.e.0.V.h.5.-.i s.1X]._.'.Q.K.V K.T.H.m P.T.Z n b k v V !.}.S.x.;.1 1 w 6.h.f.0.v.v.6.;.>.: ;.4.g.N.",
"4.;.;.p r -.0.6.6.3 , 2.>.>.6.6.q.6.1.4.1.t d s.@X/.Q.L.M K.N D M x Z C x b c m H.Q.}.s.n.q.2.> y y i 6.8.g.0.1.;.;.;.-.: ,.5.g.",
"-.>.q.g.5.p >.>.-.5 >.v.5.: 4.4.2.;.t t >.<.0.7.S.,X;X2XoX{.Q.B B B v V B n A P.XX}.i.w.1.-.y f h.,.r 2 p p 1.-.:.>.q.x.y >.,.>.",
"b.g.,.4.6.4.y -.3 y g.A.1.>.2 2 y ,.j.N.c.g.0.0.f.M.M.m.S.D.D.H H h H H H J i.p.d.i.6.-.p 2 p y.N.6.-.w p r 4.x.0.N.6.-.8.7.-.-.",
"B.C.>.r y q.p r - 2.2.-.-.y 6.5.r 3 e.Z.v.i 2 -.6.t u : s <.y g t g.>.p 4.g.Z.j.=.>.p 5.q q g 1.p ;.-.g.6.-.r 5.A.g.>.>.-.y >.* ",
"y g.q.4.> ;.6.;.0 : 2 > 2 5.6.0.2.u 5 <.f.4.y 6 y 6.;.3 w : q e d 7.7.2.> ;.0.<.*.5 f g.8.3 , = 1 2 4 5.0.4.2 0 ,.>.-.4.p >.6.>.",
"r i >.2.: 2 2.x.6.y i : 2 * ;.5.4.3.t , 7 5.p : 3 7.w.1.r < - 4 > -.*.5.y w 4 -.7.r * p 4.,.-.4.< 2 w 3 4.5.5.-.-.6.p ;.: ;.6.6.",
";.2 % 2 r w r i 0.g.>.5 9.2.3 p =.q.r.3 : 0 e w , g 8.k.x.a i <.s >.y 6.y.2.q 0 w r > , >.8.g.>.w 4.2.w r 5.g.e.2.% : 2 p , p >.",
"t 3 0 4.x.8.3 2 h.C.0.-.N.g.1.B.g.y 7 r 5 i 5.f.i 2 -.B.N.,.5.x.1.q.C.4.-.-.4.< y 4.>.p 2 6.N.c.6.6.0.<.V.q.-.4.: : 4.p 4.,.y >.",
"g.r : p 6.6.-.;.;.-.1.0.N.q.6.q.8.5.g.8.< 2 4.>.5.;.;.1.1.,.g.v.-.6.5.5.5.g.>.: ,.>.;.4.>.>.5.5.6.g.6.,.f.6.4.q.4.2.* >.5.-.y 4.",
"B.4.> 2 i q.g.c.4.r i 5.g.6.,.p -.8.v.n.r 2 t >.6.g.8.t 5 p 6.g.6.4.4.:.6.c.>.: : >.,.6.c.-.2.0 1.c.8.4.>.y 5.q.g.4.> * 5.0.h.6.",
"6.>.r r y 6.g.b.q.p 3 5 6.>.t , 5 >.5.8.r r i 5.6.v.B.7.r 5 -.4.5.y : 5.y >.>.>.p >.5.:.v.b.2.< -.>.5.4.: 4.5.1.<.-.;.p ,.g.6.g.",
"c.5.5.q.p 6 t -.;.r < 3 6.;.3 1 , y 0.c.p 5.5.t 4 t >.i 2 2 -.6.p 2 : - ,.N.g.y 7.;.-.-.-.;.p q 3 p p p : % -.q.c.,.>.4.:.y ,.p ",
"g.5 u y.4.6.6.r 2 > 2 5 ;.r 2 w -.c.v.1.2 6.g.1.g.-.r 5 2 2 p p 2 r 2 6.b.0.p 4.6.y q.6.p ;.2 - -.4.4.2 : 9.g.v.,.>.p 6.>.6.,.* ",
"6.2 0 p i g.q.r r i p r r 3 w r i g.0.i 2 u >.p q.>.3 5 p y 3 w 2 w ;.4.q.>.5 2 >.4.4.2.> : ;.;.4.- : 4.: -.q.g.>.: 4.i >.>.5.4.",
"r 0 2 0 2 r t i 2.v.y.3 2 2 w 0 r 2 t p 2 < 0 0 i i t 6.b.6.2 2 4.2 0 r > 5 p < > , < 2.4.-.q.0.f : p : p r 5 : 4.: < < , p r p "
};
