/* XPM */
static char *c3BhY2Urb3JpZ2lu[] = {
/* columns rows colors chars-per-pixel */
"64 64 229 2 ",
"   c #3F1C22",
".  c #3B0E13",
"X  c #5C0E09",
"o  c #540707",
"O  c #5A1403",
"+  c #4F0C10",
"@  c #630904",
"#  c #6A1706",
"$  c #711A09",
"%  c #681A19",
"&  c #731910",
"*  c #462817",
"=  c #5C281B",
"-  c #6A2508",
";  c #712903",
":  c #4A1F28",
">  c #5C2B2F",
",  c #5B2A32",
"<  c #4D2834",
"1  c #692928",
"2  c #73332B",
"3  c #4A5E0A",
"4  c #4E610E",
"5  c #546A0D",
"6  c #53670A",
"7  c #4E6212",
"8  c #4F641A",
"9  c #526514",
"0  c #556915",
"q  c #596D16",
"w  c #54661A",
"e  c #56691A",
"r  c #5A6D1B",
"t  c #5C7214",
"y  c #5E711D",
"u  c #5E700C",
"i  c #616F1D",
"p  c #61751E",
"a  c #647A1E",
"s  c #687E1D",
"d  c #627917",
"f  c #5B6E22",
"g  c #5F6F2A",
"h  c #586624",
"j  c #5E7221",
"k  c #577329",
"l  c #626E29",
"z  c #627523",
"x  c #657A24",
"c  c #6A7D25",
"v  c #63762A",
"b  c #667A29",
"n  c #6A7E2A",
"m  c #69772C",
"M  c #6C7E33",
"N  c #697A35",
"B  c #707F2A",
"V  c #372F44",
"C  c #453F41",
"Z  c #5A4D5D",
"A  c #655556",
"S  c #687B43",
"D  c #707059",
"F  c #717266",
"G  c #872E18",
"H  c #96341C",
"J  c #903922",
"K  c #A54311",
"L  c #9A4724",
"P  c #866151",
"I  c #836D70",
"U  c #6C831C",
"Y  c #6D8126",
"T  c #6E822C",
"R  c #6A8725",
"E  c #71852D",
"W  c #748A2E",
"Q  c #798E2E",
"!  c #728725",
"~  c #7C922E",
"^  c #6E8231",
"/  c #6B803B",
"(  c #728532",
")  c #758A32",
"_  c #7A8E35",
"`  c #798D34",
"'  c #72863A",
"]  c #768A39",
"[  c #7A8D39",
"{  c #7C8437",
"}  c #7C9135",
"|  c #7E923A",
" . c #7E923B",
".. c #789736",
"X. c #6B8247",
"o. c #748C42",
"O. c #7B8D42",
"+. c #748644",
"@. c #7E9242",
"#. c #7D924D",
"$. c #7E9256",
"%. c #758A57",
"&. c #7C8A6A",
"*. c #7C9467",
"=. c #78927B",
"-. c #7D8D70",
";. c #819636",
":. c #839A36",
">. c #82963D",
",. c #81953C",
"<. c #85993D",
"1. c #899E3D",
"2. c #8B903C",
"3. c #8AA13E",
"4. c #8CA234",
"5. c #839641",
"6. c #869A42",
"7. c #899D44",
"8. c #8A9C4A",
"9. c #84994C",
"0. c #859A56",
"q. c #818455",
"w. c #8CA145",
"e. c #8EA24A",
"r. c #85A048",
"t. c #90A544",
"y. c #91A64B",
"u. c #94A94D",
"i. c #93AA42",
"p. c #96AA51",
"a. c #97AA55",
"s. c #8FA155",
"d. c #849573",
"f. c #8B9C77",
"g. c #8D916A",
"h. c #95A672",
"j. c #385684",
"k. c #5A7A97",
"l. c #587282",
"z. c #667A98",
"x. c #6A6D83",
"c. c #597FA3",
"v. c #5A8599",
"b. c #538393",
"n. c #7A8A86",
"m. c #789193",
"M. c #5988A5",
"N. c #6787A8",
"B. c #7494AB",
"V. c #7F9CB6",
"C. c #6791B0",
"Z. c #7EA5C2",
"A. c #859A86",
"S. c #879A9D",
"D. c #989D91",
"F. c #A89598",
"G. c #8AA08C",
"H. c #92A584",
"J. c #8CA495",
"K. c #9AA59B",
"L. c #A2AA9E",
"P. c #859CB6",
"I. c #8797A7",
"U. c #A69BA4",
"Y. c #8AA4AC",
"T. c #92A5A6",
"R. c #9DA6A5",
"E. c #87A4B9",
"W. c #8CABBD",
"Q. c #93A5B4",
"!. c #96AABA",
"~. c #A6ADA6",
"^. c #ACB7A6",
"/. c #A5ABBB",
"(. c #B3BBB2",
"). c #B8C2BC",
"_. c #8C9EC4",
"`. c #95ABC2",
"'. c #9AABC3",
"]. c #96A7C7",
"[. c #9AB5CA",
"{. c #96B4C5",
"}. c #8EA4C9",
"|. c #A3BCCC",
" X c #A7BAC7",
".X c #A6BDD4",
"XX c #AABED5",
"oX c #A8BBD9",
"OX c #AEB2C1",
"+X c #B0BEE3",
"@X c #ABC3CE",
"#X c #ACCACE",
"$X c #A7C1CD",
"%X c #B4C4CA",
"&X c #ACC4D4",
"*X c #A6C4DC",
"=X c #ACC4DA",
"-X c #AEC9DB",
";X c #ABC6D4",
":X c #B3C5D5",
">X c #B4C9D7",
",X c #B0C5DB",
"<X c #BACBD8",
"1X c #BFD1DE",
"2X c #B8CCE0",
"3X c #B5D1E0",
"4X c #C6D4DD",
"5X c #C3D5E3",
"6X c #CBDBE6",
"7X c #CBD9E7",
"8X c #D3DBE6",
"9X c #D0DEE9",
"0X c #E2DDF1",
"qX c #DBE5ED",
"wX c #DDE8EE",
"eX c #D6E5E9",
"rX c #DBE7F1",
"tX c #DFF0FA",
"yX c #E4EAEF",
"uX c #E7F2EE",
"iX c #E7EDF6",
"pX c #EDF4FA",
"aX c #ECF5F7",
"sX c #FCFEF6",
"dX c #F1F5FB",
"fX c #F3FBFE",
"gX c #FEFEFE",
"hX c #F8F9FB",
"jX c #F9FBED",
/* pixels */
"j w q _ <.) j j 7.u. .a <.Q ) e.;.c p l 0 n ,.<.n r E u.<.Y ) 7.Y <.6.W x q w e _ >.) b 0 6.p.6.Y >. .E 6.w.W i 0 9 b >.;.B p n ",
">.b q ^ E T a b Y W _ ) u.<._ 6.) Y ;.5.r e E ) b p n ) } ) } w.) | | W ) ,.] j z n ( n x Y ) _ E 7.w.} ,._ { ;.,.B p b b c x z ",
"3.c 7 e z ) >.1.c z c ^ 7.` Y n ] [ 8.7.z 9 r b W 8.[ p j W _  .} T T ) ,.e.| 0 9 b | } <.c t p W ,.<.) c Y  .7.6.E 0 r c ) <.>.",
";.c j b ) _ 6.p.| n e x ` ) x p n T E W z z n ,.;.u.s.B j x ( _ T z x T E W E y j ^ | } y.>.n y p [ ) p a x Y ) W i 0 ( ) ;.8.y.",
"5.c c _ Y t x ' [ k 0 j ) W i r y x ..1.T R b R p s T ^ y r T _ ( j 0 y Q 1.} b E T c a E ] b w r B ] z r y c T w.W T ^ b c c W ",
"8.n Y <.s ) ^ f y y 0 j E x 9 r x  .<.) x ( ] ( ,.n c z 0 e x n z r r ( <.<.) n _ _ ) E p z j w i ( B r z p T w.| n ^ | W ` s q ",
"n y j ^ n 6.[ q q j b j x p f l n 7. .x y ^ T T [ T r 0 z n j x j e y ) 5._ z e n T  . .p 0 p b B r f y r z ,.6.n j j ^ T | ) l ",
"c z y 8 v b n n R  .@.z q z b r j T T j 8 8 r r ( ^ z T e.( 8 y z j z b x b z w r w z ( z x _ 7.( r r z j z T z j e 9 y y n ^ r ",
"r y 7 w r r y T <.w.5.j w 0 n ) T c n z w 8 q e z y ) 8.9._ u w w c ) ] M b z w 9 0 r r z 6.e._ T T 9 Y W E n T y w 8 8 w r j ( ",
"f 7 b 8._ T b j T Y T )  .} ) ) T y w w j _ >.} N j n R c T | } 2._ R a i 5 r g  .6.) r z T ( b T | ,.) T Y E E h j Y 5. .) y j ",
"' z T 7.<.| ) T v f y T } w.r.} ] [ [ T b )  . .| R R y q y +.8.w. ...W ;.B ! T  .>.| ) E x q r T ^ 8.w.,.W [ E Y ^ ) <.} } ) T ",
"6.,.z w q E } w.| n w w q _ 7.:.} 1.e. .T j y j .. .9.o.y 6 9 x r.r...3.r.0.' B y 0 Y 6.7.| ^ z 0 0 ) a._ >.>.,. .W t y q ) <.<.",
"t a n x y E 1.<.<.c y M j n E _ } W U t y n n x _ h.(.U.~.L.L.R.K.K.H.g.T t q ( T x T _ } | E e n T E T T E E c T c n ( ^ T | } ",
"' E >.;.W Y E n n z _ w.) z z v b c T T _ <. .W ! ~.dXgXfXpXfXuX1XW.N.z.d.( B 5.[ _ ) T Y x b ' ,.| Y 9 ) n E E T _ } } T c ] ^ ",
"6.7.>.Q } ) c j e z  .<.T z n v n T 6.y.1._ _ ) R %.D.%X7X7X7X4X{.b.j.j.n.9.:.;.) } | ) z 0 z  ._ _ T E T T c } |  .W W E W n e ",
"w.y._ r b ) T p q z T b z c _ } T a Q e.<.T b v ] B m U.U.F.F.F.x.D C V F 0.t.5.a z ^ ^ y e z c E 9 n ( E E E W i.r.Y E T T T Y ",
"Y )  .) z b ) E E 9 q f e j ) ,.E y y T } Q W r c ,.=.P K L L L G ; % $ 2 F [ T R T T ^ ( B 0 0 0 w r ^ } } y q E ( _ T y T ( ) ",
"p 0 j z 0 y T ,.E ( r f z r p Y _ W c z b r r r p q.A o # # % X X @ O o , q.n Y c 0 7 n ' [ M M p n j z a E E [ q b b r 9 y E E ",
"( 0 r m n n r T <.7.[ z ( T q _ W ) ^ r 0 l m ( d F @ # % O + X + + o o C g.7 h e ) T 9 E <.y.W T ) T n W _ } T y 0 y n b E y T ",
"n 0 r [ 8.[ p r } y.>.T y._ } r.;.( M r 5 M 5.Q D I H J J J G & & - $ $ 1 F +.w ( 5.~ U 6 E 8.O.T >.| E u.} Y c ( r n ] 5.c y Y ",
"7.E 0 p n T n E Y T T E e.}  ._ c E w.>.p r z ) F + - - - $ O @ @ O @ o o < F l ' z T T [ n ' ! E _ 7._ W E _ ,.[ ( 4 b n T ( Y ",
"} E 0 p ! _ 1.7.) y y E } } T y W Q | O.z 6 f d.Z > , , , > 1 > * : : : * . Z S 3 Y W >.8.] 5 U ( | } T y E ) ,.5.T 0 0 ( ) 8.| ",
"| T r n ) ) | <. .^ e T _ E ( w z W ) [ n M -.Q.P.~./.!./.Q./.Q.z.k.F l.l.x.z.-.^ ( R W 8.O.M q n ) ) T r b n T _ T T ( E ) | w.",
"6.) ^ ] T y y T n j e y ) T b w w ^ ;.4.#.K.:X<X9XeXqX0XeXyXqX9X|.Z.c.M.v.b.k.z.B.A.S ( T ! n r 0 ) E y z w z | 7.W E E T y Y T ",
") q T [ E ) _ T r 3 g ^ b h 9 p ^ 7.9.d./.6XiXgXgXhXgXgXgXgXhXhX7X XB.N.B.v.v.v.b.C.B.9.E h 0 w c n b h f n <.y.E E n Y _ [ ! E ",
"^ z r n n ) ) z r ) ^ z y f a 0 U #.^.8XiXaXsXsXgXgXgXgXgXgXgXhXfXeX&X[.{.C.k.v.v.b.k.S.#.0 B W z e z z f z E ) n 0 r T E ) ( 9 ",
"m r 7 e e n z n ] 7.5.r q i s / *.^.8XdXgXgXgXgXgXgXgXgXgXgXgXgXgXpXqX5X;X`.V.E.P.E.M.M.n.0.6.1.T q r z b b T n ' 7 w 3 9 ( n ' ",
"j 0 r z q z q T 6.6.] c E 0 Y 0. XqXhXjXsXgXgXgXgXgXgXgXgXgXgXgXgXhXfXeX:X;X;X*X$XoX_.v.B.T.h.Q n T p p ) ) n b 9 r ^ r 0 f 3 n ",
"e j T e.8.) c y B p ' ! O.6.:.h.2XwXgXgXgXgXgXhXgXgXgXgXgXgXgXgXgXgXgXqX%X&X-X=X=X;X[.[.`.P.T.+.( 6.>.,.,.W x p 4 y ' 8.8.[ ( q ",
"[ T T E E _ ,._ c z e p n e.a.).qXuXgXgXgXhXgXgXgXgXgXgXgXgXgXgXgXgXhXyX9X<X$X=X*X#X%X2X#X`._.&.0 c <.u.<.| >.>.) T T ) E ) ,.E ",
"[ T n y 0 T _ 7.,.n r q r E 5.).fXgXgXgXgXgXgXgXgXgXgXgXgXgXgXgXgXgXgXgXdX5X&X*X-X|.:X,X$X;X.X=.0 y c <._ _ 6.>.,.T p q p ) >.6.",
"j T ^ [ T T E _ E E m E ' 0 ( OXsXhXgXgXhXgXgXgXgXgXgXgXgXgXgXgXgXgXsXgXdX4X,X&XXX>X*X*X;X#X+XA.) ^ j T ) ) T p p n T ) T T _ ) ",
"} } } ) _ T E Y 9 c 7.3.T T g (.gXgXgXgXgXgXgXhXgXgXgXgXgXgXgXgXgXsXgXgXdX6X;X&X;X=X,X,X:X&XXXJ.u._ x z l n ) _ Q Q 7.,.W _ T y ",
"w.7._ T ) _ T 0 8 ^ [ } ^ W ' ).sXgXgXgXgXgXgXgXgXgXgXgXgXgXgXgXgXgXgXgXfX4X&X=X&X=X=X&X;X&X&XG.,.E c b ( z c >.a.w.W c ) ) n 0 ",
"} 7.5.c y T W T e k f y j n O.).gXgXgXsXgXgXgXgXgXgXgXgXgXgXgXgXgXgXgXgXfX6X&X=X;XXX,X$X#X,XoXA.l z z >.,.B q c >.8.T p n T ) T ",
"y c ( n q n ( | ^ 0 q 9 e y / ).gXgXgXgXgXgXgXgXgXgXgXgXgXgXgXgXgXgXgXaXrX4X&X;X&X,X&X;X;X=XXXn.w 9 z ! ;.Y c i z ( ) ( j z ] _ ",
"T y y z q j y c <.W Y y ^ j k (.fXfXgXgXgXgXgXgXgXgXgXgXgXgXgXgXgXgXhXyX<X;X&X&X;X,X&X&X*X,XXXA.f z i p i Q ;.[ r e r e 0 q x ] ",
"y 4 r ) [ T z T :.e.W U 8.T T ).rXaXgXgXgXgXgXgXgXgXgXgXgXgXgXgXgXgXhXyX%X$X=X:X:XXX@X,X*X[.'.H.B [ ` B ;.;.W { z 0 y (  .T 0 x ",
"[ z r ^  .( T E W >.E E u.<.<.^.<XwXgXgXgXgXgXgXgXgXgXgXgXgXgXgXgXgXaX9X>X&X=X=X;X&X@X,X.XQ.S.0.E 7.6.<.>.,.c c ^ z p ) >.E z b ",
"e.T 9 0 E T ) _ T j T _ 6...! d. X6XgXgXgXgXgXgXgXgXgXgXgXgXgXgXsXaX4X:X&X-X.X=X&X,X&X,X$XY.=.T W <.<.E x B ;.6.7.n 0 y b ) >._ ",
"[ n q y ^ | 6.e._ n p T ) [ E f H.4XyXhXgXgXgXgXgXgXgXhXgXgXgXgXtX6X:X;X&X&X&X&X=X=X:X@XoXY.X.z T E M ) r E _ ) _ n w j W ) 7.y.",
" .E b _ T E T W ] z r z _ T z e N ~.7XuXhXhXgXsXsXgXgXgXgXaXaXiX1X>X&X&X,X,X&X&X=X&XXX@XoXR.) r p ( [ b r 4 x _ <.T b _ T Y T _ ",
"6.E T | Y E E T b r 7 b ) b 0 z j 0.J.:XiXgXgXgXgXgXgXgXuX6X4X1X>X&X.X&X&XXX=X-X=X,X#X'.I.%.q l q ' n z j n ) 6. .T T @.Y T Y a ",
"T z T ) ) } ) p l w f M z y y z ' 3.H.+X5XeXwXwXyXqXwXwX6X<X.X;X&X&X&X:X=X&X&X&X@X&X[._.f.6 g f ( z f 0 e n 8.,.c y x ^ T 7._ y ",
"' j r r j n ( ^ c 6.[ r z e 9 l q s f.XX.X%X>X*X:X&X:X>X:X,X&X;X=X&X&X&X&X,X=X*X&X[.V.!.N t @.r.r r f ( 9 r T T n f f r z ( n r ",
"r 9 7 r 7 e q n ;.6.5.n r r b m { M n *.!.XX#X*X=X=X*X.XXX&X,X&X=X,X&X&X&X-X=X$X}.I.J.X.c } r.6.) 0 0 0 ) T ) q z 9 w r q q j ^ ",
"j r z ) n T z ^ } ) n ) n E W ,.W N y d d.'.|.#X;X=X&X&X&X:X=X&X&X,X:X,X&X;X.X{.}.J.@.5 d  .| b n T T E _ ) c r f r j ) E y j b ",
"n y ) >.<.| n z z r z T >.1.<.;.W c b b z f. XoX|.$X:X&X&X;X&X&X:X&X&X$X$X|.{.E.J.r.5.{ b N q z E ,.7.7.,.T T E n T ) r. ._ ) n ",
"[ ( r z p ( | e.[ T 0 r r ( w.~ ;.w.1.) U b &.K.E.[.*X*X=X;X$X;X|.3X*X].E.S.A.d.z y T 1.,.>.W w e y ) 1.,.} 1.w._ T T 9 T ) | e.",
"( T T n y T } _ _ p r T E E _ _ } [ ' n ) c v N J.T.!.'.'.'.[.].'.!.`.Y.A.*.] T n p T W  ._ T 0 b c b _ _ 6._ E T T T T 5 E _ ,.",
"T T  .5.) n ! E T y E 7.) 9 ( ( W T n b E _ Q ! T ' 9.+.o.9.0.S O.o.+.+.[ c Y }  .[ n ) W T b T <.W z r n n E Y E E } >.c T W E ",
"w.>.) E _ ) b T y c ,.p.E E r r n ) :.3.<.;.} ,.[ M g h W i.3.b N r ! ! W 7.1.~ _ ) _ T ^ r n >.7.) T z n p E >.} w._ T | _ T c ",
"w.y.E z c | T z 4 ^ E T T c _ ) v z ~ i.1.n z n } n h w T ( ^ N M 9.T Y _ 8.s.@.T E T T r 0 y E T E Y ;.) T z ) u. .E E c Y T 9 ",
"c ,. .( 0 T ) n f w r 0 q W ) } ^ y y ) ,.E c p s W W y y 9 w g T [ ) c 6 U ) <.T y T [ [ y 0 0 w q y ) } E r r ) T T E n T ) E ",
"z b ( ^ w r T 5.) b z 0 q 4 E ) W T z f b n b q z ) } Y a e q p 5 E n ( E z p b ] j 0 n ) E T ( w r z y E ) ) T T ) T T 9 T _ ) ",
"E e 3 r z j z n } <.^ z ] ( r n ! ,.[ z 0 r z g h p ~ 1.@.v b W ! n E ) O.N 0 p j z q q T  ._ ( z ( ^ f z ) ,.} T 4 w q T 0 T E ",
"x y r ' 6.[ j q ;.u.} Y w.,.E w.,.c p p j b _ } z r Y w.w.W ) <.! [ y.) n T E w n ) E n y ) w.7.) | } Q t.| T T 0 0 ' n E ) c E ",
">.z 9 n ) ) T T ! T E } w.;.) ,.| ) >.| e r ( E ) ^ ! E E W | 7.T [ ) ) ) ,.T 9 W T T E ( E ( ) _ | } W } _ ( ,.( T 4 E W Y c E ",
"e.E 0 r n | <.5.' z x ) >._ W c n _ 6.6.j r z E _ 6.[ x p Y _ ,._ E ) T [ 7.E 0 0 T E } 6.Y T j E 6.[ E E b W ,.>.E 0 4 ) } <._ ",
"_ E z z c _ >.7.[ n y p _ E x q x T ) | z z b _ Q 8.e.] z p n ) ) c 9 ) c T ! T n Y _ E 7.8.^ w Y E ) ( e E W E ) T T Y W >._ >.",
"6.) ' | n a c c n z 0 y ) ^ y 0 q c } <.n ] ) a t x E n r q T _ T e 0 9 ) w.| n ) ( Y Y T T M w t T n n 9 3 c | 1.) T E T Y E c ",
">.p b 5.( _ _ z r e q z T z r j T 6.7.E r ) >.E | T z y r r b n r z r ) 7.} T ( ) b [ } n T r 9 T E ^ r 9 ' ,.7.) T n _ E } E 9 ",
") f r n n  . .z z b n z z r z z b >.| x q b n T ,.T y p T c p f r j ^ ^ | E y q E ) ( T 0 9 n T ' 4 9 ( 9 T | 5.T 0 ' b T E ) ^ ",
"z j e f f z z b E 8.,.y r j f f z q x n f w f j b b x _ 8.) r r ( r r z 0 x n w 0 e 0 ( E n ,.| n 9 T 9 T z y 0 n 0 e q 0 T z n "
};
