/* XPM */
static char *c3BhY2Urb3JpZ2luKzI_[] = {
/* columns rows colors chars-per-pixel */
"64 64 256 2 ",
"   c #020102",
".  c #0B0102",
"X  c #03010A",
"o  c #070806",
"O  c #150704",
"+  c #1D1708",
"@  c #070312",
"#  c #091311",
"$  c #261606",
"%  c #2E150A",
"&  c #043907",
"*  c #0F2D02",
"=  c #392505",
"-  c #383701",
";  c #292818",
":  c #2D300B",
">  c #37332F",
",  c #11082A",
"<  c #521806",
"1  c #482A05",
"2  c #552B05",
"3  c #493403",
"4  c #563402",
"5  c #533D14",
"6  c #6A3806",
"7  c #70330D",
"8  c #47322D",
"9  c #722616",
"0  c #054707",
"q  c #1A4702",
"w  c #165506",
"e  c #0B530E",
"r  c #274805",
"t  c #295906",
"y  c #385709",
"u  c #385717",
"i  c #2F4E10",
"p  c #386307",
"a  c #396516",
"s  c #2B650B",
"d  c #3D5927",
"f  c #0F5C11",
"g  c #495A09",
"h  c #465D16",
"j  c #545212",
"k  c #71500F",
"l  c #4C650D",
"z  c #54680A",
"x  c #5B790B",
"c  c #4E6313",
"v  c #486819",
"b  c #526514",
"n  c #556915",
"m  c #596C16",
"M  c #546519",
"N  c #566A1A",
"B  c #5A6D1B",
"V  c #5A6518",
"C  c #4C7419",
"Z  c #5D721C",
"A  c #577519",
"S  c #46700C",
"D  c #636C1B",
"F  c #61741E",
"G  c #66781A",
"H  c #6E7011",
"J  c #585737",
"K  c #4D5230",
"L  c #6B4B34",
"P  c #5B6E22",
"I  c #566D25",
"U  c #5E7222",
"Y  c #5B7826",
"T  c #516A2C",
"R  c #666B25",
"E  c #627523",
"W  c #657A24",
"Q  c #6A7D25",
"!  c #667B2A",
"~  c #6A7D2B",
"^  c #687527",
"/  c #757B2B",
"(  c #6B7B33",
")  c #6A7538",
"_  c #767834",
"`  c #706835",
"'  c #594B40",
"]  c #5A5846",
"[  c #4E4649",
"{  c #6B5643",
"}  c #666944",
"|  c #697B42",
" . c #74714B",
".. c #746F62",
"X. c #5C6D4D",
"o. c #4A3A54",
"O. c #8A380B",
"+. c #A33B00",
"@. c #821400",
"#. c #844506",
"$. c #92510D",
"%. c #A85906",
"&. c #AE4D0A",
"*. c #966715",
"=. c #92740D",
"-. c #B96701",
";. c #B76416",
":. c #AE7410",
">. c #934926",
",. c #B37434",
"<. c #966C31",
"1. c #C4520B",
"2. c #D77B08",
"3. c #CD710E",
"4. c #D3772F",
"5. c #DF741A",
"6. c #8B7551",
"7. c #A9774C",
"8. c #A6726D",
"9. c #E27342",
"0. c #CD7750",
"q. c #5D880F",
"w. c #67851B",
"e. c #788912",
"r. c #598529",
"t. c #6D8226",
"y. c #6E822C",
"u. c #6C8A2C",
"i. c #658526",
"p. c #71852D",
"a. c #748A2E",
"s. c #798D2D",
"d. c #768725",
"f. c #7A952D",
"g. c #6E8232",
"h. c #6B8636",
"j. c #728532",
"k. c #758A33",
"l. c #7A8D35",
"z. c #74843B",
"x. c #7B8D3A",
"c. c #788739",
"v. c #7C9135",
"b. c #7D923B",
"n. c #779539",
"m. c #6E912D",
"M. c #75A52D",
"N. c #7A8745",
"B. c #7B9443",
"V. c #77854D",
"C. c #909413",
"Z. c #B28F06",
"A. c #ABA211",
"S. c #868B27",
"D. c #849C2C",
"F. c #8C9C2C",
"G. c #889529",
"H. c #949B2A",
"J. c #858B39",
"K. c #849535",
"L. c #869B34",
"P. c #8C9B33",
"I. c #81953C",
"U. c #85993D",
"Y. c #8B9738",
"T. c #929A34",
"R. c #949937",
"E. c #938930",
"W. c #B38E2F",
"Q. c #89A129",
"!. c #8AA238",
"~. c #94A437",
"^. c #B6AC2F",
"/. c #D88907",
"(. c #DA9605",
"). c #D98818",
"_. c #D69815",
"`. c #C98C0C",
"'. c #E58907",
"]. c #E79506",
"[. c #E79916",
"{. c #F3910E",
"}. c #EAA705",
"|. c #F6A706",
" X c #FEBC0C",
".X c #F9B605",
"XX c #F6A915",
"oX c #FBB916",
"OX c #ECAC11",
"+X c #D1912F",
"@X c #E8902E",
"#X c #D5AC2E",
"$X c #FABA25",
"%X c #EFAF2C",
"&X c #DBAF00",
"*X c #FAC405",
"=X c #FCC316",
"-X c #FCC627",
";X c #FAC135",
":X c #858645",
">X c #839641",
",X c #859B42",
"<X c #8A9D44",
"1X c #8A9D49",
"2X c #869847",
"3X c #959755",
"4X c #8E9351",
"5X c #AF9052",
"6X c #8CA145",
"7X c #8CA149",
"8X c #84A248",
"9X c #92A74B",
"0X c #99A955",
"qX c #8CA758",
"wX c #AEB153",
"eX c #8C9568",
"rX c #B0946C",
"tX c #99A770",
"yX c #AEAA71",
"uX c #CE954C",
"iX c #E99346",
"pX c #D5B253",
"aX c #F3B550",
"sX c #CCB26B",
"dX c #F0B56D",
"fX c #DB9371",
"gX c #BBC240",
"hX c #F8CE4E",
"jX c #D9CC65",
"kX c #FCD767",
"lX c #F6CB6C",
"zX c #FAE862",
"xX c #B6B496",
"cX c #B7B1AF",
"vX c #A19687",
"bX c #CFB68B",
"nX c #DDB89C",
"mX c #BEC79A",
"MX c #F9D798",
"NX c #F7CD8D",
"BX c #FCE393",
"VX c #F4D2AC",
"CX c #FDE8A6",
"ZX c #F4EDB7",
"AX c #CBCAA6",
"SX c #D2DCC9",
"DX c #FBDAC6",
"FX c #F4D7CD",
"GX c #FCE8C5",
"HX c #FEF4C6",
"JX c #FDE8D7",
"KX c #F1F2CF",
"LX c #FBF3E7",
"PX c #FCFBFB",
"IX c #F5F0EC",
"UX c #DEE0CB",
/* pixels */
"U M N v.U.a.U U <X9XI.G U.s.k.7XJ.t.A A I ! Y.n.( R j.7X,XQ u.7XQ 2X8Xd.E D c N l.K.c.! n b.0X2XQ U.I.p.,X<Xs.F V b ! I.x.p.D ~ ",
"U.W N g.p.~ W W Q k.k.k.9XU.K.,Xa._ J.Y.z I h.d.W G ~ l.l.l.K.<Xb.f.n.z.s.D.x.R E h.( / Y ~ k.f.p.<X<Xl.I.l.l.J.b.! U W Q Q Q E ",
"!.Q c N E l.U.U.Q E W j.<Xl.Q ~ u.2XB.4X` J ) ~ b.,Xl.Z ! p.j.,Xl.p.( k.n.8Xn.A { } B.s.L.j.m ^ k.I.,Xk.Q t.b.,X<Xj.n Z Q k.U.U.",
"I.Q E W k.l.,X0Xb.~ B W k.k.W D z.z.| } 8 . [ 6.n.0X1Xy.H ^ y.l.y.E ^ t.k.:XV.{ # # {  .0Xb.G Y F l.l.D W W t.l.d.F N p.k.I.7X7X",
">XQ ~ l.t.F Q j.j.! n U l.k.Z B A ` 8     < 9 8 _ ! N.) v C g.l.h.m P Y m.4X}   .   X X ] N.d.h m p.x.E B B W t.6Xj.t.g.W W G a.",
"2X~ t.U.G a.h.P Z Z n E y.W n B W J   $ #./.(.-.L J J ' K [ ] J ] ] 8 K ] { *.:.%.7 O . , _ P V D j.~ B F F y.6Xb.~ g.x.k.l.W Z ",
"~ Z U g.t.,Xx.B N Y ! U W E P U  ., 6 `.dXMXVXMXfX@.&.%.O.2   X $ 6 %.-.O.&.%XBXNXnXW.%.$ ' ( ) y.Z P U B E I.<Xt.U E g.p.b.k.Z ",
"Q W P c E ! ~ ! i.b.b.E B E ! P { $.sXNXDXPXJXMXaX2.2.XX_.$.9 $ k 3.@XXX{.[.%XVXJXJXMXNX7.% :X>Xg.N B E E E y.E Y B b Z Z ! g.U ",
"Z B c M N B Z y.U.6XU.E M n ! k.6.'.DXPXLXJXVX|.=X.X].3.*.6 < + 2 k 4.'..XOXOXdXVXIXPXIXdX6 eXl.y.y.b y.a.p.~ y.B M M M M N E p.",
"P c ! 1Xx.y.W U y.Q y.l.b.l.l.k.7.'.VXLXMXfX(..XoXOX}._._.3.k = ;.Z._.[.|.oX}./.dXJXJXDXaXj | G p.b.b.k.y.Q p.p.B P ~ U.I.j.U U ",
"z.E y.<XU.b.k.y.! P Z ~ v.7X<Xl.3X0.uXdX(.-.%X$X=X.XoXoXoX/.#.< 3.XX.X=XXX=X X[.(.lXlXpX` 6.E n y.y.7X<XI.a.x.p.~ g.a.U.l.v.p.p.",
",Xb.E b B p.K.6Xx.! N M B l.<XL.K.0X7.3.+X+XoX.XoX X.X_.;.7 O O < *.2.{.oX XXX).).2./.#.V.:Xd.Z n n a.0Xl.>XU.b.U.p.Z B B l.U.I.",
"Z E y.E F p.U.U.U.Q U ~ E W j.l.S.d.5X2 &.}.*XoX X*X X|.|._.k 1 :.`.{.]..X X[.).2.1.>.' 3X6.i.P y.y.p.y.y.y.a.Q y.Q ~ j.y.j.v.v.",
"k.p.U.K.a.t.p.~ ~ E l.6Xk.E E ! _ g.0.7 9 ]..X$X$X;XoX=X=XXX%.1 5.[..X$X;XOX/.).@X1.7 <.J.Q Q h.b.b.y.b k.t.p.p.y.l.b.v.p.W j.j.",
",X<XU.s.v.l.~ Z N E b.,Xp.E ! ! Y h.uX1.9 `._.1.(.{..X=X|.{.$.5 3.[.(.aXnX*.+.+.3.#.O L _ z R >Xl.l.t.y.y.y.Q v.b.b.a.a.a.a.( N ",
"!.9Xl.N W j.y.F B E y.W E W l.l.u.( #X;.X :.@X` 8.dXkXhXoXXXZ.>.oX|.3.sXVX{ L <.;.+ o L 6.B A y.p.b y.j.p.y.p.a.9X6Xt.p.Q y.p.t.",
"y.k.I.k.Z Q k.p.p.b N B N E k.b.k.5X[.k o *./.rXcXcXbXOXoX=X_.:.oXoX/.+XcXL #.-.1.% @ 7 iX:XS V n n P g.v.l.Z N p.a.x.y.Z y.j.k.",
"Z N P E n E ~ b.a.j.P P U B F y.v.uX}.k . #.7.rX....vX5X(.oXOX[.oX].,.rX{ > ..6.&.L @ +.@X3Xp._ Z ~ U E W p.a.x.B W W B b Z p.p.",
"j.n B ~ ~ ~ B y.I.<Xc.F j.y.m l.f.+X@Xk 7 +.8.cXo.o.cXvX-.OX*X X.X).7.cXvX@ cXcX>.O.; +.5.3X1XB.y.j.~ y.a.s.l.p.Z n E y.! y.Z y.",
"~ N N x.2Xx.Z Z v.9XU.y.9Xl.v.6X2XpX}.$.+.1.rXxX7.7.rXW.[.;X$X-XoX%X,.8.rX6.6.rX3.1.O.-.9.4X!.f.y.U.b.p.0Xv.t.Q y.N ~ c.>Xt.B t.",
",Xj.n F y.y.t.p.t.p.y.p.9Xv.b.x.w.aXzXuX1.{.NXlX-X=X&X.X=X*X.X.X.X.X'./.VXUX%.&X%X5.3.5.aX4X/ _ p.l.,Xk.k.d.k.I.b.j.b W ~ y.j.y.",
"b.p.z F p.l.,X<Xk.Z F y.v.v.y.Z u.lXHXBX5.%XhXaXoX-X$X=XhXMXlXlXhXlXdXaXDXDX+XiXhXOX%X}.kXwXn t.j.b.v.y.Z j.k.U.>Xy.b n j.k.7Xv.",
"b.p.Z ~ j.k.v.U.b.g.n y.l.p.g.n U sXKXHX=XzXkX X X.X*X-XkXDXJXFXGXGXlXaXNX+X'.[.kXkXhXkXlX3Xz.m ~ k.a.y.B ! ~ y.l.y.y.j.p.p.b.<X",
",Xj.( x.y.F Z p.~ E M U j.y.! N A a.LXPXZXZXCX.XuX+X%X%X$XlXVXFXDXdXiXoX#X$.,.oXzXZXCXPXyXy.y.I n k.p.F E M E b.,Xa.p.p.y.F y.y.",
"k.B y.b.y.a.l.p.B h P j.! B b Z t.Y.mXPXPXPXZXhX`.%.$.3. X$XNXPXFXdX|.|.'.1.-.*XCXPXPXFX:XA M V Q ! ! N P ~ U.9Xp.p.Q y.l.l.p.p.",
"y.E N ~ y.j.k.F B k.j.E B B E m ! j.:XxXIXPXPXKXMXbXbXNXMXCXGXVXFXCXCXBXhXNXVXCXZXZXSX0Xi.n g.h.W N U R E E p.k.~ N Z g.y.k.p.b ",
"! B b N N ~ E ~ l.1XI.B N B y.g.h.W h.T tXZXLXZXZXGXVXAXAXNX|.|.}.aXVXnXpXZXHXZXzX^.z N.h.N.b.!.y.B B E ! E ~ ~ j.b M g n p.~ j.",
"E n N U B U B p.U.U.l.~ j.n j.j.c.J.z.S z A.^.A.`.Z.:.#.6 %.5.].'.:.=.6 $.:.#XwX^.z z ) V.B.7Xp.y.~ F F k.l.~ ! b N g.B n B h g.",
"N P y.1X1Xk.Q B y.Z j.p.b.>Xv.s.u.| G s.^ U l p w e 0 0 - j j $.>.5 - 0 q 0 e s u ( j.G ) j.R t.g.,XI.I.I.a.W P c U k.2X2Xb.j.B ",
"x.p.p.p.p.l.U.v.~ U n E ~ 7X0Xb.>X| Q Y.E ! a.t.A r.c u e & o & & e i t s T v A Y S d.G.E V.z.b n Q U.9XU.v.U.U.k.y.y.k.p.k.I.y.",
"x.y.~ B n p.l.,Xb.~ B n N j.b.b.| G P.w.t h.H.T.!.G.d.! x yXyXZ.C.S a F =.:.*.I R a A Y.t.| N.I N Z Q U.x.l.,XU.I.y.F m F a.I.<X",
"F ~ j.x.y.y.p.l.p.j.y.g.p.B z.x.X.f.G.C w w.T.L.L.F.T.Y.C.pXxXZ.W.E ! <.#X%X_.A V a t k.!.x :XN.k.g.Z y.k.k.y.F F ~ y.k.y.y.l.k.",
"v.U.v.k.l.y.p.t.n Q 8XR.s.w.m ) x K.G.l w w.6XP.F.!.S.t.t.S 0 e C E I =.;X;X#Xi.r.a r f.P.e.r.eXqXI.^ E P W k.a.l.s.<XU.a.k.y.Z ",
"6X,Xl.t.k.l.y.n I p.h.,XE u.eXX.S.Q.J.K w i.T.F.Y.!.G.d.w.q.t t R D C =._.OX+X;.E.C r x Y.R.A z.<Xy.W Q k.^ p.U.0X6Xa.Q k.l.! n ",
"v.U.>Xt.Z y.k.y.I V B Z I p.Y q.R.D.~ u r i.R.Q.Y.H.P.,XA.sXyXZ.W.G.a.E.W.A.uXW.E.a r P J.H.l.x J.E i.b.U.y.m ^ U.,Xy.E t.h.j.t.",
"Z Q j.Q B ~ j.l.W E V I z G xX0XC.U.q.t g i.U.G.F.G.U.P.A.sXvXZ.C.H.!.Y.!.M.!.M.L.C r S P.K.C.xXV.h W Q v.y.y.U Z j.x.g.E E j.b.",
"y.Z Z E B U F ~ L.u.p.R ( N.SXmXC.L.C 0 V S.P.T.F.!.G.F.L.q.s f w.K.~.f.Q.H.F.K.S.E i w f.Q.C.SXvXz.R D G a.k.v.B N B n n m E k.",
"Z c B c.x.~ E t.I.9Xk.! qX^ SXUX0XF.A q j d.D.Y.T.L.P.F.~.H.m.C !.Y.P.D.T.R.R.R.T.R r u f.~.mXIXtXN.c.t.b.K.J.K.E n P j.B.y.m W ",
"x.E B y.b.p.~ p.x.U.h.t.9X,.FXPXSXjXgXi.h p.P.F.T.G.Y.D.A.sXbX`.^.T.F.T.U.Y.F.D.P.F t Q.jXyXKXPXrX4XY.U.U.I.Q G j.E E k.I.p.E Q ",
"7Xy.c N p.p.k.l.g.H i.l.4X9.dXBX0XlXzXS.t s.R.G.P.!.Y.Y.A.wXtXC.C.T.F.D.P.T.Q.Y.D.A i hXzXwXsXNXiX5XY.t.G y.l.<X,X! n F E k.>Xl.",
"x.y.B Z y.b.,X1Xx.i.Z Q J.0.{.|.#X%X@Xk f i.F.U.F.Y.P.D.T.q.0 & ! U.F.F.P.G.D.<XG.v w 3.%XhX$X{.9.E.r.j.D p.n.j.l.t.N U a.l.,X9X",
"b.p.~ k.y.p.p.a.N.E B F J.J.4.@X=X{.3.7 q v d.~.G.Y.Q.1XH.T.c.z G.F.K.Y.T.F.Q.F.G i : &.2..X{.@X7.J.n.! D l Y v.U.g.! c.y.t.y.l.",
",Xp.y.b.Q p.p.p.! R v E c.h._ 0.4.4.5X) & r G H.Y.P.Q.P.e.tXxXZ.W.H.!.!.P.L.G.S.h * u 3X4.4.4.7.H c.! ^ R t.k.>XU.y.y.b.Q p.t.F ",
"p.Z ~ l.l.l.k.F Z V I ( R F U _ :X5X,Xh.u t u y x g.K.F.G.0XrXZ.^.T.K.G.K.y.v u t r ] B._  .<.B h.! P M b y.1XI.E Z W j.y.,Xl.F ",
"j.P B B Z ~ j.g.F U.b.C ^ V z m F Q Q | { w a y q y h A ^ q.p & d.W r.l g r q s t d  .k.G A f.,XY B U j.b B y.t.~ P U P E j.~ B ",
"P b b N c N B ~ >X,X>Xy.B B ( ( <.a.D I ) w q.Q R c q r y u d g g r r q a c E u.a d Y Z _ U.1X8X_ b b A k.p.k.N E c b N Z m U g.",
"U N E k.~ y.E g.>Xp.t.c.i.g.k.B.h.i.E D ) d C j.K.m.A R j t w r t v P Y k.Y.K.w.s ) j.Z P J.N.t./ p.y.y.c.p.~ F E N E k.p.F Z ! ",
"~ F k.U.U.b.~ F A m E g.,XP.!.n.v.Y Q y.! ) i G T.S.P.a.W B t t a W E.G.Q.H.S.y K 4XB.y.W ~ I Z g.v.<X7XI.i.t.( ~ p.j.<Xb.l.k.! ",
"x.j.B E F j.b.6Xx.y.n B B k.6Xf.v.U.6Xx.( ) t P S.D.F.J.! I t r v G H.T.K.Q.Q s K ^ p.<Xb.v.k.M N E k.,XK.v.,X<Xl.y.y.b y.k.b.6X",
"j.y.y.~ Z y.b.l.v.Z B y.y.p.l.l.n.k.t.w.h.) t v y.Y.T.S.D a i r s ! U.L.!.S.n y K Q t.h.b.K.y.M Q W ! l.x.U.v.a.y.y.y.~ z j.l.I.",
"y.y.b.I.k.Q p.p.y.Z p.<Xk.b j.j.u.s.E ( c.L + f a W r.S c h : - i g N u.i.Y a * > N.p.x.t.t.^ h.U.p.W B ~ ~ p.Q p.p.v.U.~ y.a.p.",
"6XU.j.j.l.k.Q ~ B Q I.0Xp.j.B B W 6.eX] > #   j d.H H j - 4 = $ 2 - g H H H k %   ; 8  .c.V h.v.6Xl.y.Z ~ F p.U.v.6Xl.y.v.k.y.t.",
"6X9Xp.F Q b.p.F h g.j.~ t.t.k.k.| J ; $ X   *.XXoX`.3.O.2 2 = . 1 5 6 &.2.).).%.1 O X ; 8 } I d.y.y.t.b.l.t.E k.9Xb.y.j.~ Q y.b ",
"t.b.B.j.m y.k.~ D n N n m a.l.b.J X     # 7 5..X|.3.O.4 3 +     O 1 2 6 %.2.[.2.$.% X   @ > ) c M B Z l.v.p.B P k.p.y.j.~ p.k.p.",
"E ! j.j.b N j.>Xl.W W b n b p.k.'   o X : 5 $.1.;.O.1 3 =     o o $ 1 1 7 %.;.&.#.1 $ #   +  .z.N B U Z k.k.k.~ y.k.t.y.b y.l.k.",
"y.N g B E U E ! v.U.p.Z z.g.Z y.'   $ O 1 2 1 1 2 3 2 2 $ o       . = 3 3 4 4 1 - 4 2 O   ; :Xt.F j.g.P U k.I.f.y.c b B y.m Q a.",
"W Z P j.>Xx.Z B U.9Xv.t.6Xb.a.6X .; . $ 1 4 4 3 4 1 = $           . O = = 3 1 4 4 4 = . X ' 3X!.k.b.v.s.6Xb.p.y.b n k.~ p.s.Q p.",
"U.E b ~ k.k.y.y.y.y.p.v.6XI.l.b.J.| ] > O % = 3 = $   X       o o o     . = 3 = = $ O K J B.z.z.v.b.v.j.v.l.p.I.k.y.h p.k.t.Q k.",
"7Xg.n B ~ b.U.b.p.E W k.I.l.a.Q ~ l.2XN.' > . o           o o   o   X X         o J ` 2XU.i.y.Y p.U.x.p.p.Q a.b.I.p.n l k.l.I.l.",
"l.p.E E Q l.U.1Xb.~ Z F l.a.W m ! t.s.s.( } J J 8       o   . X     X     + ] J } N.x.t.6X2Xg.c t.p.k.j.n j.k.p.a.y.p.Q a.I.l.I.",
",Xj.k.b.~ G W t.y.E n Z k.y.Z N N ~ v.U.^ k.c.W | K ` J K J J } ` J K K J N.B.Q a.p.Q Q ~ y.( I Z y.~ y.b g ~ I.U.k.y.p.p.Q p.~ ",
"I.F ! B.j.l.b.E B n B E y.E Z P p.>XU.k.F k.2Xg.I.Q W E m m t.t.b F m x.9Xl.j.( a.Q b.x.Q p.V M t.p.g.N b k.b.<Xa.y.~ x.y.v.a.b ",
"k.B B ( ~ b.b.E U ! ~ E E B U E ! >XB.E V ^ j.t.B.j.Z W y.W Z A E R ( h.x.j.Z A z.k.p.~ n z t.t.j.c b j.b y.x.>Xp.n j.! y.p.k.j.",
"E E B B B E E ! p.1X>XZ B B U P Z Z W W E V N U W ~ E c.1Xx.N P g.N Z m Z ^ Q V n V b k.p.! 2Xx.~ b y.b y.E Z n y.n N B n ~ F ~ "
};
