/* XPM */
static char *c3BhY2Urb3JpZ2luKzQ_[] = {
/* columns rows colors chars-per-pixel */
"64 64 256 2 ",
"   c #030202",
".  c #050406",
"X  c #180403",
"o  c #040416",
"O  c #16170F",
"+  c #240407",
"@  c #371605",
"#  c #2E140F",
"$  c #192518",
"%  c #173107",
"&  c #252717",
"*  c #2E320C",
"=  c #172D2A",
"-  c #32322C",
";  c #1A1D26",
":  c #441A0E",
">  c #472918",
",  c #58351A",
"<  c #4D2D10",
"1  c #713510",
"2  c #513728",
"3  c #6B3D27",
"4  c #5A1A0D",
"5  c #1A480B",
"6  c #354B05",
"7  c #2B560B",
"8  c #395709",
"9  c #385715",
"0  c #2E490F",
"q  c #2B620A",
"w  c #37640D",
"e  c #376616",
"r  c #2B6314",
"t  c #384B28",
"y  c #455B09",
"u  c #475918",
"i  c #525C17",
"p  c #504D14",
"a  c #774416",
"s  c #70480B",
"d  c #4C640C",
"f  c #54670C",
"g  c #496716",
"h  c #536514",
"j  c #556A15",
"k  c #5A6D16",
"l  c #53641B",
"z  c #556A1A",
"x  c #5A6D1C",
"c  c #5A651B",
"v  c #5D721D",
"b  c #587418",
"n  c #527211",
"m  c #616B1A",
"M  c #62741D",
"N  c #647A1D",
"B  c #6B7A1D",
"V  c #6E7416",
"C  c #4A5B25",
"Z  c #51522E",
"A  c #774927",
"S  c #6B542D",
"D  c #5B6E22",
"F  c #586727",
"G  c #5E7222",
"H  c #587626",
"J  c #5A6836",
"K  c #5C7834",
"L  c #4A6A29",
"P  c #666C25",
"I  c #627523",
"U  c #6A7524",
"Y  c #657A24",
"T  c #6A7D24",
"R  c #63732B",
"E  c #657B29",
"W  c #6B7D2A",
"Q  c #6C752C",
"!  c #757B2A",
"~  c #646A39",
"^  c #6A7B37",
"/  c #747C36",
"(  c #786829",
")  c #383B44",
"_  c #53504C",
"`  c #6F6F4D",
"'  c #6B5C53",
"]  c #8F3A0E",
"[  c #A42F05",
"{  c #C33F00",
"}  c #974E10",
"|  c #B95B07",
" . c #AC4E0F",
".. c #976400",
"X. c #8F6B12",
"o. c #B87417",
"O. c #AE6E0D",
"+. c #8A502A",
"@. c #A74D20",
"#. c #917330",
"$. c #B06E2D",
"%. c #CD5105",
"&. c #CA6905",
"*. c #D46A06",
"=. c #C77706",
"-. c #D77703",
";. c #D57814",
":. c #C6731B",
">. c #E77707",
",. c #D17129",
"<. c #E76821",
"1. c #815A4F",
"2. c #AD714B",
"3. c #8A766D",
"4. c #A06857",
"5. c #D67C4A",
"6. c #6A851E",
"7. c #6C8225",
"8. c #6D822C",
"9. c #67852A",
"0. c #71852D",
"q. c #748A2D",
"w. c #7A8C2C",
"e. c #778627",
"r. c #7D932C",
"t. c #789529",
"y. c #6E8232",
"u. c #6A8637",
"i. c #728532",
"p. c #758A33",
"a. c #7A8D34",
"s. c #7A8D3A",
"d. c #768638",
"f. c #7C9135",
"g. c #7E923A",
"h. c #799736",
"j. c #6E903A",
"k. c #78A03F",
"l. c #788844",
"z. c #7C9643",
"x. c #6A8242",
"c. c #7EA041",
"v. c #909716",
"b. c #AD8C08",
"n. c #818D2C",
"m. c #868827",
"M. c #84942C",
"N. c #869A2C",
"B. c #8C9B2D",
"V. c #889628",
"C. c #929B2C",
"Z. c #96972A",
"A. c #828C38",
"S. c #849434",
"D. c #8A9533",
"F. c #859A34",
"G. c #8C9B33",
"H. c #82953C",
"J. c #859A3D",
"K. c #8B9B3B",
"L. c #8B953B",
"P. c #929D34",
"I. c #939938",
"U. c #948F29",
"Y. c #A9912E",
"T. c #8AA137",
"R. c #92A234",
"E. c #8CA22A",
"W. c #B8A915",
"Q. c #C88403",
"!. c #D98805",
"~. c #DC9605",
"^. c #D98615",
"/. c #DC9514",
"(. c #CC8A17",
"). c #E38808",
"_. c #E89A06",
"`. c #E58915",
"'. c #E69718",
"]. c #F39711",
"[. c #DAAE1A",
"{. c #EAA608",
"}. c #F6A809",
"|. c #FCBC02",
" X c #FDBB0C",
".X c #F8B505",
"XX c #E9A419",
"oX c #F7A716",
"OX c #FDBC14",
"+X c #FAB717",
"@X c #ECB30B",
"#X c #D28C2C",
"$X c #ED912B",
"%X c #CCA732",
"&X c #FBB725",
"*X c #ECA92F",
"=X c #F9C405",
"-X c #FCC618",
";X c #F2D00C",
":X c #FDC926",
">X c #FAC538",
",X c #FED637",
"<X c #DEC534",
"1X c #839542",
"2X c #859A42",
"3X c #8A9D44",
"4X c #88984A",
"5X c #959B47",
"6X c #8B8A4B",
"7X c #B19050",
"8X c #8CA245",
"9X c #8CA24A",
"0X c #86A746",
"qX c #93A94C",
"wX c #95A952",
"eX c #A6936B",
"rX c #D6994B",
"tX c #D3A253",
"yX c #FAB855",
"uX c #F1B14B",
"iX c #D0AC6C",
"pX c #ECAF6D",
"aX c #D89062",
"sX c #F9D051",
"dX c #FED474",
"fX c #ECD760",
"gX c #AFAB8D",
"hX c #B7B4A8",
"jX c #AE9A9C",
"kX c #D3AF8F",
"lX c #EDB08B",
"zX c #C9B6A9",
"xX c #C49989",
"cX c #FCCD96",
"vX c #F6D391",
"bX c #FBE996",
"nX c #D3D6B5",
"mX c #F5D0AE",
"MX c #FBE7A6",
"NX c #FEEBB8",
"BX c #FBEDAA",
"VX c #D7C192",
"CX c #CABFC5",
"ZX c #BDC2C5",
"AX c #C8CCC6",
"SX c #FCDBD1",
"DX c #F2D3C4",
"FX c #FCE8C6",
"GX c #FDE6D9",
"HX c #FDF7D8",
"JX c #FBF3CC",
"KX c #FCE8E7",
"LX c #FCF8E7",
"PX c #FDFDFD",
"IX c #FBFAF4",
"UX c #DDE3D9",
/* pixels */
"G l z a.J.q.I G 3XqXH.M J.w.p.9Xf.7.M m j W 2XJ.E k i.wX2XW p.5X9.2X2Xq.E k h z a.H.p.Y h J.wX2XT J.g.0.3X3Xe.M c h U 1Xa.8.v W ",
"J.Y z y.0.W Y Y T p.a.p.qXJ.a.3Xq.7.a.4XD F y.p.W N E a.g.q.w.T.p.g.g.0.w.H.s.G I 8.i.8.Y 7.p.a.0.8X3Xa.H.a.a.A.g.W M E T 7.E I ",
"T.T h z Y p.H.3XT Y Y p.3Xa.! T s.g.3X9XM h h 7.p.9Xs.x I 0.f.h.g.T 8.p.H.8Xs.z l I s.f.J.Y v N q.H.2Xp.T 7.H.3X3X0.j v E p.J.J.",
"S.T I E p.a.3XwXg.E x I p.w.E v T i.8.8.I E 7.g.h.wX3Xi.I W 8.p.8.I Y 8.0.q.0.I I y.g.f.qXJ.W x M s.p.M Y Y T p.0.M z 0.p.H.3XqX",
"1XT T a.7.M Y i.p.E h I p.p.v x G Y f.3Xi.y.^ E Y U y.^ x c 9.g.i.G h M w.J.f.W 0.8.Y N 0.a.E l k i.a.R k k Y 8.8Xq.W y.Y T T e.",
"4XW W J.B q.y.H G x j G 0.Y h x E g.J.w.N 8.f.p.1XT W E G x 8.Y I v x 0.2XJ.p.W a.a.a.0.v I I l m 0.0.x I v 9.8Xs.W y.s.q.p.Y b ",
"W G G i.8.2Xs.x j H E G Y I G D W 3XJ.B v W d.D ) ) Z _ J ^ E I G z G d.2Xa.G z W 7.s.g.M l M E W I x x x I g.3XW I I y.i.g.p.I ",
"7.G v g I E E W 8.g.z.I k Y I D v 8.W H Z _ _ o . ~ J C % F J ~ I I I E Y Y G l D z I i.Y Y a.3Xi.z x R I I 8.Y G z h v b T y.D ",
"n M i h z b m W I.7X7X6X6X2.7X7X7X7X7X7X7Xs f 1._ F k.` l f n u F d.l.l.d.^ ^ ~ J z z x H z.9Xa.W ^ k Y s.7.W 0.k z l i z z v i.",
"I i ^ k.S./ Q / 6X,.<.$X$X$X<.,.$X*X*XsXdXfXfXvXeXo C b e.q.t.9 0 t 9 C C C C 9 F 6Xs.U / i.p.E 9.g.r.w.7.7.N 0.F D y.2Xz.p.D G ",
"/ E 9.J.J.6XS ' 4.%.%.&.-.&.!.!._.{.~.=XBXIXIXBXwX8 i.M.N 7 6 9 8 g v 8.r.w.e.b q L J Z J F z k q.Y 9X5Xg.j.z.d.W y.p.g.p.g.0.8.",
"z.4Xb H _ 2 X O.!.-.&.} @. .,.$.{.vXNXFXHXPXIXLXfXv.B A.H u b 6.6.e.t.M.R.C.B.m.e.e % g 8 9 K J J J ` 4Xw.4Xf.g.F.q.b v x d.J.F.",
"n B ! ~ ; X #.pXdXpX/.} & 1 } +.b.lXmXmXNXFXHXPXGXiXV.k v ! M.R.T.R.P.D.C.D.G.G.C.B d i B b n j h 8 7 u ^ ` H.6.7.B T 9.u.y.g.f.",
"/ j.F.- . ..uXKXKXvX_.$.  : a 3 3 1 { { >.;XBXHXIXBXW.H I A.I.G.N.G.B.G.B.G.G.F.S.K.v 8 h.N.N.G.M.K g e u p F y.d.s.f.w.9.W d.p.",
"2XwXS.$ + rXcXKXHX%XO.,.1 4 } ,   o 2 3  .*XsXJXPXMXW.N R B m.B.G.G.G.G.G.G.F.K.T.B.w.6 R C.V.K.U.A.t.r.8.9 o 2 ` l.a.w.q.q.E z ",
"0XI.' o @ tXGXLXmX>.$.`.-.1 ] .   : ] @.{ ,.@XFXPXLXfXv.L M n.G.G.D.G.B.B.C.B.B.K.C.M.8 h %X[.[.W.U.%XZ.M.i   > p ~ Q 8.W 8.8.7.",
"e.i.= . s uXFXKXlX).].}.oX-.X.s @ ] %.,.$X%.pXNXLXPXMXb.L H n.G.N.V.r.w.w.w.w.w.w.9.N 8 y XX X.X/.@.+X%XY.y @ A , @ Z / n u.0.p.",
"x m 2 X | yXNXcX_.+X-X X&X.X}.). .+.%.$XsX_.lXbXBXLXcXb.H Y V.V.L.S.e.! U M B B g e n e y o.;.=.o.#.@X+XY.P + 1 s 3 2 Z f I i.i.",
"u.i G - } tXmXyX.X:X=X X=XXX$X_.[ A ] '.-X.X>XsX>XJXvXb.n I S.e.Y T e.A.D.L.S.L.t.t.M.9.6 a +.+.3 X.(.Q.o.b.o 3 +.A # O J / M 8.",
"! k z & + 3 5.].+XXX+XOX+X^.O.} 1.kX7X=.&X X}.XX{.mXmXb.g H n.a.w.n.N.G.G.N.G.N.P.T.R.t.8 ( d.#.#.p +.} $.oXX.3 a < # _ 6X^ k 6.",
"S.j.m p . @ %.!._.}. X=X}.uXkX_ 3.GXzXO.&X-X*Xo.-.mXmX..j G V.E.P.G.B.B.B.B.E.G.I.G.N.n.8 e.C.C.e.8 p , } oXo., < 2 C K 7.W a.8.",
"z.9.f Y t # ).{.>.+X+X+X.XdXLXhX` SXzXO.-X+X*XO.O.cXkXX.Y P n.V.N.D.B.B.G.N.G.D.G.E.B.n.7 v V.R.D.m 5 Z #.O.( a + J h g 8.h.K.s.",
"g./ j 9.` > =.].-.+X|. X|.-XMXjX' IXnX| -X+X]._.{.sX7XX.9.R r.P.G.G.G.G.G.K.G.P.L.N.G.D.9 9 r.P.I.t.n ` xX} ^.XXY.P d.u.8.q.f.8X",
"F.d.u.p.E # o.XXo.@X+XoX X|.sX#.3.KXhX ..X+XoX{.{.sX%XX.I ! N.C.V.G.G.G.G.G.B.B.S.n.S.C.n 0 F.B.N.R.m.F eXeX:./.O.1.#.7.0.P W 9.",
"d.k 9.s.0.o s b.+..X}.!.+X-X+Xo.' mXxXxXpX|.+X#X'.,X#X} ( m.G.V.B.B.G.N.G.N.G.B.D.Y a.D.V 8 r.I.D.G.M.f ` 6X#.#., A ( e.w.L.6.i.",
"p.v k y.9.o s  .i }.;.:.+X|.&X*X[ [ lXLXbX=X}.} tX*X@.} X.e.J.P.G.P.G.G.I.G.N.P.G.B U L.e.8 r.P.G.B.V.B F F #.( +.A P a.E x.l.f ",
"R k h j l $ : ] , !.=.$.+X|.>XoX:.%.$XsX>X|._.$.%XY. .%.X.p.C.F.N.G.N.G.S.G.G.G.G.M.M ! w.y r.P.B.C.V.e.K l Q / A S l u l 9.u.6.",
"R j k z c $ + @ # $.O.s @X.X}.+X}.'.{.|.-XyXO...kXxX[ %.#.a.I.E.G.G.G.I.G.I.G.N.N.I.B m M y r.G.B.G.G.r.8.p.E ^ h k s.c h I y / ",
"z k i.9X4X& : @   s s 4 !.oX^..X XoX{.:X,X>X=.Q.bXgX| %.X.N.I.B.D.N.B.M.V.n.r.L.K.B.e.R F y r.G.G.G.G.S.B K.M.D g F ` 6XG.H./ k ",
"s.W e.d.^ * } @.. . . :  .&.| /. XOX X:XdXsX+XsXfX$.rX$Xb.N.P.r.G.G.N.e.n.B m h.T.B.n.G g 8 M.R.G.L.G.m.e.N.G.0.t O @ J l.p.h.8.",
"1XW ! b l > | O.* X., .     @ O.}.+X-X.XBXFXpXcXkX4 kXpXO.F.S.P.F.F.F.S.F.Y d b r.B.h.g 7 8 M.D.G.K.R.V.D.I.B.S.p X p 2 - ` 1X4X",
"x 9.8.d.^ < !.(.A _.$.< X.} ]  .-.XXoX XvXGXSXMXiX1 tXaXv.D.B.B.7.b b N H H g e e.C.F.b 8 6 V.G.B.N.V.R.L.L.N.B F * > s # & q.p.",
"n.h.h.d.e.2 ~._.o.}.^.O.'.).%.*.-.#X].|.pXSXIXMX{.} Q.-.#.N.F.e.z e 9 7 r e w w g w.w.b q 8 e.B.B.B.N.B.P.N.W z z 9 # A , . F G ",
"8X8X8.i.x.# &.oX^..X}.-.OXoX-.^.).!.XX|.vXKXSXmXXX$.$.$.w.C.! H B N b w w w w w e b M 8 r 0 R S.D.L.S.M.r.t.b w e 5 # 1 a 2 F d ",
"1X1XK.8.- + ;.}.+X.X@X]. X=X'.&.;.,.^.}.vXSXlXlXbX[. .B G.#.R e.U.D.a.9.L w e q e w M e 7 5 d V Y E b g g e r r r 7 % > 3 3 2 J ",
"x T 6.^ & ..}. X|.-X+XoX+X=X'.| &.} ..>.uXpX$X2.VXcXQ.Z.R.e.t.B.K.w.Y g g e r r q w k L 7 7 7 e m I H D j h g g w e 5 # a a > J ",
"e.R G D , [.yXoXOX+X XOX.X X#X1 #.4.2.&.!.!.=.} kXbXyXb.z.R.R.E.a.Y 9.v H g 7 r 9 e g r e 5 r e j n z D R U M U e e 5 : A a > C ",
"m y x ^ < pXmX*X.XOX X}._.oXo.. 3.GXxX@.'.`.$.} _.MXvXb.r.V.G.H.T B M.F.F.N 7 7 e r w r 0 . 0 7 7 7 7 9 C c l i i 7 % # 3 , * L ",
"s.M D ) @ %XSXcX_.-X+X`./.!.@.o 3.KXzX} $X'.Q. .uXfXI.d s.G.R./ V.M.B.C.D.I 6 9 9 e r 9 % O $ & $ $ $ & & & & & & $ & O & O & S ",
"0X^ d ; + aXSXSXVX.X}.#X).,.+.X 3.GXnX .(./.`.(.<XsXv.5 v.T.V.N.S.P.V.G.K.D % % % % % * l.P c / 0.H.1XQ N T p.1X1XH c m Q / 1Xs.",
"s.! F ; 4 ^.cXGXGXpX}.^.>.o.3 X ' jXxX=.`._.$X.XdXBXwX6 g.B.T.T.V.K.G.C.K.j . p C F F Q 4X9XE v 8.i.8.i.x i.a.q.a.E j I 0.a.2XqX",
"g.d.$ @ | *.yXGXIXcX_.} %. .> .   @ ..`.!.'.:X|.JXUXwX9 f.C.R.R.I.G.T.V.a.y C ~ / / U 0.H.a.Y x b i.s.E k d Y f.J.8.U d.8.T 0.p.",
"k.0.- +  .*.rXGXLXNXb.> +.+.A 3 1 @.%.%.-.XX:X;XJXUXY 9 d.R.Z.v.E.v.V.E.B 8 l./ A.q.0.W Y G R G x p.W I G W d.J.J.8.0.z.7.8.T M ",
"/ m K O 1 %.,.pXdXpXA ` ^ P P #.`.-.<.>.*X,XbXHXPXhXk J k gXnXnXAXnXnXnX6X8 K x 8.0.f.f.Y h G D i.R G l h y.4XJ.Y x I p.8.2Xg.M ",
"e.Q b t + ] ] ..b.X.` g b H z Q $.rX7X7XiXiXVXhXgXw.n ~ z.UXPXPXIXPXIXGXgXp c x I G E i.I v a.2Xx c v i.h v 8.8.W D G x I i.W D ",
"F u d v 2 = = = = ~ J.U m P Y K u.^ V b l F g 6.H v p.u AXPXIXPXPXPXPXGXnX_ h l i g x G Y g.qX2Xp.j j z p.8.i.k I h l z k k G y.",
"E j G n.0.u.R ! g.d.U i.^ 9.d.f.p.T M I F 6.q.7.W v W % AXPXPXPXIXPXPXKXDX_ i D i.d.y.G I s.s.Y W 0.8.0.s.p.W x v z G s.8.M v E ",
"Y R a.f.1Xg.N R m H H 8.3XT.J.A.s.W E W P t.0Xg.A.Y U O ZXPXIXPXLXPXPXGXmXZ F u.K.F.g.0.T W D G 0.g.3X3Xf.8.8.0.W 0.i.8Xg.a.p.W ",
"g.y.x I v p.g.9Xs.8.z x x p.8Xw.f.8X2Xa.8.v v 8.H.h.h.* AXHXMXNXNXNXFXSXDX_ R i.I x 0.J.H.H.i.j z G p.K.f.f.2X8Xa.8.8.h 8.p.g.8X",
"0.8.8.W v 8.f.a.a.v k y.8.0.a.f.g.f.8.7.q.8.M v 7.1XA.* zXdX+X|.=X=X.XcXmX_ H 9.W I 7.p.g.a.0.l T Y Y s.s.J.f.q.8.8.8.W f i.a.g.",
"8.8.g.1Xp.T 0.8.8.v 0.8Xi.h i.i.i.8.T N q.f.a.i.i.d.e.$.uX&X X X+XOX.XuXkX' ! w.J.d.8.p.0.0.Y 0.J.0.Y x W W 8.7.8.0.f.J.8.8.q.0.",
"8XJ.p.0.a.p.T 8.v T g.wX8.p.x k T d.2X8XJ.f.f.g.p.U m $.}.=X-XXX&X+X:X;.S ) 4Xf.f.q.p.8.y.k E J.8Xp.8.G 8.I 0.2Xf.8Xf.8.s.p.8.7.",
"8XqX0.M T g.8.N d y.8.8.8.W a.q.I I a.qX8XW b 8.r./ b $.'.XX X{.}. X=X`.1 S qXh.8.0.8.8.z z v 0.8.8.7.g.a.7.I i.wXg.8.i.7.W 8.f ",
"T g.g.i.z 8.d.y.D c z j b q.a.f.i.v M p.S.e.E I W y.u.2.`._.oX'.{.-X.X~.,.l.p.l.8.v 8.s.s.v k h c k v p.f.0.k D w.0.8.i.W 8.p.0.",
"I E i.8.h k y.1Xa.E Y h z h 0.q.i.8.Y M Y y.Y z P q.1X$.]._.{.`.'.}.XX).,.G b T s.I j W 0.q.8.i.l x G v p.q.p.8.8.p.8.8.h 8.a.p.",
"0.z i j I G I W a.J.i.x s.y.x W q.g.p.G h x Y G D b p.7X,.$X~.^.^.XX~.<.Y.^ j D G G k k 0.g.s.i.G p.y.G G d.H.r.8.d h k 8.j 8.0.",
"Y G D p.4Xa.v z J.qXf.7.8XH.0.8Xg.T M M G Y d.f.G m / 9XY.,.>.>.!.>.$X$.7.8.i.g T d.0.9.x a.3X3Xp.f.f.w.8Xg.8.i.h l y.W q.p.T 8.",
"J.I h E p.a.8.W 0.7.0.f.8Xg.p.H.g.p.J.s.x x p.q.q.0.7.9.p.Y.$.$.o.$.$.A.j.h.p.d q.8.8.0.0.0.q.p.f.g.f.q.f.a.0.g.p.8.i 0.q.7.T p.",
"3Xi.j x Y g.J.1Xi.I Y p.H.a.q.T 8.a.3X2XG x R 8.s.1Xs.Y H 8.A.6XA./ d.9.a.5X/ h j 8.q.f.2XW y.G 8.2Xg.8.0.T q.H.g.0.j d p.g.J.p.",
"a.0.I Y T a.J.3Xg.W v M a.i.Y k I 8.p.g.I I Y p.s.3X9Xa.B b 7.0.m.U f q.7.0.8.8.8.8.p.8.3X3Xy.l 7.0.d.i.j i.q.0.p.8.0.7.q.F.d.J.",
"2Xp.i.g.W N Y 7.W R z v d.8.b j k 7.g.J.W d.p.Y b N 7.! m c 9.p./ D j f w.K.g.7.d.0.7.7.8.8.E c b 8.W W h y W g.K.p.8.i.8.7.0.W ",
"J.v U z.i.a.s.I x j z M 8.Y v D 8.2X2X0.k p.J.0.S.W Y P D H u.E g H D d.3Xa.W 0.a.Y g.a.W y.x l 0.0.i.z l s.H.3Xp.8.W s.8.f.p.d ",
"d.x D W W H.s.I M E W I I x I R W g.g.Y k E W 8.z.u.H M Q W v x M v W 8.h.9.v k i.i.i.8.h f W 9.8.i h i.d W s.J.8.j i.E 8.0.p.y.",
"I v F D x Y I E i.3XJ.v x v D x G k I W G l x v R Y N r.T.q.k m i.k D H x U 8.g j k l i.i.9.J.f.8.l 8.h 8.I v j 8.j z k z T I W "
};
