/* XPM */
static char *YWE_[] = {
/* columns rows colors chars-per-pixel */
"64 64 249 2 ",
"   c #010202",
".  c #090102",
"X  c #02010A",
"o  c #050407",
"O  c #010014",
"+  c #0B0D2B",
"@  c #08132E",
"#  c #12132D",
"$  c #121123",
"%  c #0E0C35",
"&  c #0C0D3B",
"*  c #130D34",
"=  c #140C3C",
"-  c #160837",
";  c #0C1434",
":  c #0A1539",
">  c #151234",
",  c #17133C",
"<  c #120D2D",
"1  c #1C2737",
"2  c #222421",
"3  c #582E0A",
"4  c #5D360A",
"5  c #5D2F14",
"6  c #5D3114",
"7  c #5C3A16",
"8  c #4C3408",
"9  c #652C0A",
"0  c #63330D",
"q  c #653709",
"w  c #652D15",
"e  c #682C16",
"r  c #742D16",
"t  c #633414",
"y  c #683618",
"u  c #77270E",
"i  c #653624",
"p  c #5B3020",
"a  c #3D5A16",
"s  c #3D6316",
"d  c #4B5C0D",
"f  c #485718",
"g  c #535516",
"h  c #4E610F",
"j  c #4C6200",
"k  c #53660B",
"l  c #4E6212",
"z  c #4A661A",
"x  c #526514",
"c  c #556915",
"v  c #5A6D16",
"b  c #54661A",
"n  c #566A1A",
"m  c #5A6D1B",
"M  c #5A6519",
"N  c #5D721D",
"B  c #58741A",
"V  c #557410",
"C  c #656C18",
"Z  c #61741D",
"A  c #647A1D",
"S  c #667A18",
"D  c #6E7C13",
"F  c #4F5521",
"G  c #5B6D22",
"H  c #566926",
"J  c #5E7221",
"K  c #5A7725",
"L  c #547129",
"P  c #656922",
"I  c #627523",
"U  c #657A24",
"Y  c #6A7D25",
"T  c #63752B",
"R  c #667B2A",
"E  c #6A7E2B",
"W  c #6C7426",
"Q  c #737D2C",
"!  c #747927",
"~  c #6A7B34",
"^  c #737D36",
"/  c #67411C",
"(  c #170C41",
")  c #091146",
"_  c #131343",
"`  c #0E0E46",
"'  c #6F7A45",
"]  c #595569",
"[  c #584A78",
"{  c #544E78",
"}  c #62477C",
"|  c #635172",
" . c #AC0101",
".. c #AB000A",
"X. c #A60402",
"o. c #B30102",
"O. c #B50308",
"+. c #AF0113",
"@. c #9D0915",
"#. c #DD2C04",
"$. c #DC3401",
"%. c #D93605",
"&. c #CF2E04",
"*. c #E22B03",
"=. c #E6330A",
"-. c #C40009",
";. c #BC5B01",
":. c #AA5908",
">. c #8E6A10",
",. c #AB6D16",
"<. c #CB4E01",
"1. c #C74C04",
"2. c #D34D02",
"3. c #D84B08",
"4. c #C55501",
"5. c #CC5401",
"6. c #C75705",
"7. c #D25403",
"8. c #D45707",
"9. c #D34F14",
"0. c #E14807",
"q. c #CC6609",
"w. c #6C861D",
"e. c #5C8228",
"r. c #6C8125",
"t. c #64832A",
"y. c #6E822B",
"u. c #68882A",
"i. c #71852D",
"p. c #74892E",
"a. c #798C2E",
"s. c #778527",
"d. c #7A922B",
"f. c #6E8231",
"g. c #6A8435",
"h. c #728532",
"j. c #758A33",
"k. c #7A8D35",
"l. c #74843C",
"z. c #768C3A",
"x. c #7B8D3A",
"c. c #7B8438",
"v. c #7C9135",
"b. c #7E923B",
"n. c #789635",
"m. c #6C9134",
"M. c #7B8945",
"N. c #7B9442",
"B. c #748A50",
"V. c #7CA44E",
"C. c #848C39",
"Z. c #81953C",
"A. c #84993D",
"S. c #859737",
"D. c #8E8F2D",
"F. c #8BA13D",
"G. c #DD8A03",
"H. c #DB8C0C",
"J. c #D58A0A",
"K. c #DB910B",
"L. c #D99308",
"P. c #DC8B13",
"I. c #D98716",
"U. c #D89212",
"Y. c #CE9205",
"T. c #E38B0C",
"R. c #E78907",
"E. c #E5930A",
"W. c #E38C13",
"Q. c #E58717",
"!. c #E39110",
"~. c #FDBD04",
"^. c #FEBB0B",
"/. c #F9B908",
"(. c #FFB614",
"). c #FEBC15",
"_. c #FFBB1B",
"`. c #F5BC15",
"'. c #E68C22",
"]. c #FEB624",
"[. c #D98721",
"{. c #FDC102",
"}. c #FDC30C",
"|. c #F7C50B",
" X c #FEC113",
".X c #FFC31B",
"XX c #F6C415",
"oX c #F7C321",
"OX c #838C47",
"+X c #839542",
"@X c #859A42",
"#X c #8A9D44",
"$X c #869A4A",
"%X c #8A9D49",
"&X c #869447",
"*X c #949C47",
"=X c #889953",
"-X c #939657",
";X c #8CA145",
":X c #8DA24A",
">X c #88A848",
",X c #91A54B",
"<X c #94A84B",
"1X c #97A856",
"2X c #86A754",
"3X c #909966",
"4X c #97AB6C",
"5X c #A7AD75",
"6X c #A9A867",
"7X c #FDDD56",
"8X c #F3DE53",
"9X c #FBE259",
"0X c #F8E249",
"qX c #FAE161",
"wX c #653F8A",
"eX c #594A86",
"rX c #544E87",
"tX c #604782",
"yX c #614A8C",
"uX c #7A8BBC",
"iX c #7593BA",
"pX c #7B8CC3",
"aX c #7C8CCA",
"sX c #7788C8",
"dX c #7993C7",
"fX c #778ED2",
"gX c #B1B28D",
"hX c #8489BC",
"jX c #CBC3AD",
"kX c #848AC7",
"lX c #8191C8",
"zX c #838CD2",
"xX c #D3BDE8",
"cX c #CABDE7",
"vX c #BCC8E7",
"bX c #BBC8F2",
"nX c #C9C6DA",
"mX c #EEDAD5",
"MX c #E8E1DB",
"NX c #C4C5E5",
"BX c #CBC9E4",
"VX c #CBC3EC",
"CX c #C3CAEC",
"ZX c #C8C8E8",
"AX c #C9C5F2",
"SX c #D3C5E9",
"DX c #F2DAE4",
"FX c #FDFBFD",
"GX c #F9FEF7",
/* pixels */
"J n n k.A.j.J J ;X<Xb.A A.a.j.,XC.r.N C M R Z.S.Q z D.2X*Xy.4.}.R./ 1X=X1.<.M M a.b.j.K v #X<XA.r.Z.b.i.@X*Xi.C b x R Z.k.i.Z R ",
"Z.U n f.i.r.U U r.j.k.j.<XA.k.@Xj.E Z.+Xn n Y C.T y.e.f.k.p.y w t J.y N.8. X9.e.K Q j.Q K R a.v.i.#X;Xv.S.k.k.S.b.E N Y Y Y U W ",
"F.Y l n I j.Z.#XY I Y j.#Xk.Q Y z.x.#X#XK l m W v.N.c.S <.7.6 8.P.q t y 6 5 {.6.H T C.n.+Xr.W Z i.Z.@Xj.Y r.Z.@X#Xj.c N Y j.+XZ.",
"S.Y I R j.k.#X1Xb.R n I j.j.U Z R i.s.u.U U f.N.A.2Xq.<.Q. XL.3 H.^.I.9 ~.5  X0.l.M.v.Z.F.A.A J A x.j.Z U U Y j.s.N n f.j.Z.;X,X",
"Z.Y Y k.r.Z U h.j.R x J j.j.Z m G U n.F.s.y.e.e.S ;.I.XX^.^.|.r H.7XE.I.r T./.9 2.6.i.Z c.i.l.l M i.x.I m m Y u.;Xp.y.f.U U A p.",
"$XE E A.S p.f.J N N n I i.U x n U C.A.p.W j.m.s.,. XFX9X.X0X^.6 9.GXT.K.<.!.Y.).).Y.3.#XU ~ x m Z h.y.m Z N y.;Xb.E f.x.j.k.A N ",
"E N Z i.y.@Xx.m n K U I U I Z G R #Xn.J P g.r.,.P.GX0X).U.FX X5.0 FXJ.'.P.<.t J.^.).H.<.Q P L S E N J G m U b.@XE J I f.f.b.j.I ",
"Y I G z I R E R t.b.N.I v I T G I Q u.J H z D 6.FX9X^.Q.5.7X(.P.t 9XE.J.P.!.J.r L._._.T.6.Q x.A.h.M m I I I y.I I n x B N Y f.J ",
"N m l b n m N y.S.;XA.I b x E j.i.R t.B x z D q.FX).Q.3 6._./.4.t ].H.I.T.K.R.5.5.}.(.~.;.-X:Xv.y.f.k y.p.i.Y y.m n b f n m I i.",
"G l R %Xk.y.Y J y.r.y.k.b.k.k.j.y.G m n I c.q.`.0XG.5.y 3.J.(.8.5.(.K.P.T.W.).`.3.J. X/.K.2.x.W y.b.b.j.y.r.y.h.m G y.A.Z.h.N J ",
"l.I y.@X@Xb.j.y.T G N E v.;X#Xv.k.x.M.t.W h.;._.).5.e 2.4 R./.4 6.^.T.H.)././. XU.7.T..X`.4.A G f.y.:X;XZ.j.b.i.E h.p.A.j.v.j.y.",
"@Xb.U x N y.v.;Xb.R n b m k.#XS.d.#X*Xb.g.t.:.U._.4 0 P.^.0 K.w I.).).}. X^. X).`.<.Q._.`.9.N.B c c i.1Xk.A.Z.b.Z.i.N m N k.@XS.",
"N A E U J i.A.A.A.Y J E J Y i.k.n.C.u.v W K U :.T.e 6 ).].].q 4 ^.}././.^.XX/.^.H.L.6.{._.4 s.H y.y.i.y.y.y.p.r.r.t.y.f.y.f.v.v.",
"i.j.Z.Z.s.y.i.y.E I k.;Xj.I J R K R r.s.v.S.@Xs.7 jXq 9X}.H.5.e e 2.E.XX/._._.^.^.I.3 .XR.q Y l.b.b.r.x j.y.i.i.h.k.v.v.y.Y j.h.",
"@X#XS.a.v.j.E J n I b.@Xi.I E R R f.N.,XF.C.m.x.4XmX<.}.p * ( > 7.K.)._.(.~.{.XXQ.P.y {.<.y I x.x.k.y.i.y.y.U v.x.Z.p.a.s.p.~ n ",
"F.,Xk.m U j.y.Z v I y.R I U k.k.s.S k.>XA.U P M.5XU.G. XcXiXAXaX^.|.^./.oX).^.).G.K.9 P.i c W t.i.k E h.i.y.i.s.<X#Xy.y.y.y.y.r.",
"y.j.b.j.J Y k.i.i.x m G n J j.b.l.Z L r.C.' h.1 3.{.7X(.FX; GXSX|.).~. X].)./. XU.4.w 3.0 g.k x c n G y.v.k.N m i.j.k.y.N y.j.j.",
"N c J I x N y.b.i.j.m G I m Z y.k.y.y.K y.2 & & ).9X9XW.8.p FXFX).^.)./.^.~. XI.H.7.5.6 OXk.y.l.N E J I A p.i.x.v U R m l N j.y.",
"h.x m E E E m y.Z.#Xx.J h.r.v k.s.a.f.L M 1 = 8.8X9X8XqX~.P.0 5 P.}.).).XX).~.J.E.0.;.w t.n.V.c.y.h.y.E j.k.k.i.N c I Q R y.N y.",
"y.n m x.$Xx.N N v.,XZ.i.,Xk.v.;Xb.p.g.C M q R.^._.^.7XqX0X~.|.T.I.(. X~..XG.^.'.1.3.2.*Xb k.;Xb.y.Z.b.h.<Xv.r.Y f.n E j.+XE v r.",
"#Xi.c I y.y.r.i.r.i.i.i.,Xv.Z.k.w.l.2XN.I H 3 U./. X(./.oX).^.}. X{.^.)._.R.J.H.6.2.y j.j.D j.s.p.k.#Xk.p.i.j.Z.b.h.x U y.y.h.r.",
"b.i.k Z y.k.A.#Xi.N N i.k.v.E N i.a.C.n.I C t 3.P. X{._._.~. X). X X`.T.!.I.9.K.'.<.8 1X=Xu.C e.i.b.v.y.N h.j.Z.+Xy.x c h.j.%Xb.",
"b.y.N E h.j.b.A.b.f.n y.k.i.h.b I i.s.a.E S M.6 8.5.I.}.`.).^.^.^.Q.Y.T.4.P.7.2.P.q w &X;XM.y.m E j.i.y.n R y.i.k.y.y.h.y.j.b.;X",
"@Xj.E x.y.Z N i.E I b J j.y.U b H s.+X#Xf.m.M.OX9 t 9 5.4.H.W.H.P.R.2.t e  .X.5. .O.=.C.m.Q E M n j.i.Z I x I b.@Xj.i.i.y.N r.y.",
"j.m i.b.y.j.k.i.m d G f.R n x I r.A.;XR B d.b.5XDX$.$.o. .=.&.o. . .o. . .O.$.O.+. .O.6XW G h H Y Y R n G y.#X;Xi.i.Y r.k.x.i.y.",
"f.J n E E j.j.Z m j.f.T m N U n U y.x.E B N T 3X .O. .*.=.#.%. ...o.o.=.$.$.$.O.o. .X.4XM.x j.i.I n G T G I i.j.E c N i.y.j.j.x ",
"R m l n n E I E k.#XZ.N n m E f.h.R m R n h H -X ...$.%.#. .o. . .X.+.X. .%.=.&.tX# ..O.N.m.A.#Xy.m m I R U E E h.x b d x f.E f.",
"I c n J m I m y.A.A.j.y.h.c h.j.h.h.I n h L l.gXf $.%...@.O.X.*.*.*.nXCXxXAXnXZXpX) O. .M.C.#Xk.y.E Z Z j.j.y.R b n f.n x m l y.",
"n G y.%X%Xj.Y N y.N h.i.Z.Z.v.a.f.J v B I $X6Xg D.D.a F > pXnXVXZXAXvXfXpXdXaXVXvX> o.X.B.K J I h.+XS.b.S.i.Y J l N j.$X%Xb.h.m ",
"x.i.i.i.i.k.Z.k.y.I x I E :X<XS.x.b.@Xp.R OXg D.D.D.l * NXVXCXCXvXSXbXcXnXpXsXfXaX) o.o.O.x.g.G c Y A.<XA.v.A.+Xj.y.y.j.h.j.Z.y.",
"x.E y.m c i.k.#XN.E m c n j.v.k.@X#Xb.p.t.d +XD.F f % NXNXBXZXvXvXCXNXVXNXdXkXpXuX, X. .-.%XK x m N y.A.x.k.@X+Xb.y.Z v Z p.Z.#X",
"Z E h.x.y.y.i.k.i.i.i.f.h.m i.h.k.E m y.M.f C.D.f % fXNXsXbXkXNXnXZXAXNXZXZXaXpXkX: ..O. .:Xs.y.h.f.m y.j.j.y.Z Z y.y.j.y.y.k.j.",
"v.b.v.p.k.y.i.r.c y.S.,Xs.E n I y.r.v.S.OX# S.f a ) CXcXdXsXpXZXvXZXvXVXVXuX} fXpX: O.o. .' S S.,Xk.U Z m E j.j.a.a.#XZ.p.k.y.N ",
";X#Xk.y.j.k.y.c l g.j.b.y.i.j.f.I i.$X2X1X> D.f > [ SXxXpXuX} CXBXsXzX> > : { pX} % DX .O.~ K M.Z.i.Y R h.U y.Z.1X,Xp.Y j.k.R c ",
"v.A.A.E N y.j.y.n J m G m Y b.v.~ I s.@X#X> f f > pXvXVXsXdX[ kXsX, + eXsXdX> pX% DXMXO. .^ C B I I U b.Z.i.v Y A.#Xy.I R y.j.y.",
"N r.h.Y m E h.v.E m m n n N r.j.y.U l S j.=X_ f = dXvXkXfXiX_ uX# eXaXVXbXsX, kX; MXDX..X.=XW z M x I E v.r.r.N N h.x.y.I U j.k.",
"y.N N I m I N E A.a.y.N f.N v y.v.n.j.v N J R # = & { pXkX[ ( > _ - > [ uX_ : - , 5 r  .+.1Xx.U m U C Z Z a.C.v.m n m n c n U j.",
"N l m j.x.E Z y.Z.,Xp.U #Xi.Y @Xx.s.f.A l T M.B.[ - , ; * = = eX{ [ , ; ( tX> & ( 5.5...o.9 6X@XE x.k.Y Z.k.j.p.I x Z h.N.y.c U ",
"x.U m f.b.i.Y y.k.Z.p.i.:XA.b.;X+Xr.f.h.v U x.a.[ { @ > % & @ [ NXCXaX{ [ rX< rX{ G.6.O.o.;.t OXi.#XA.A.A.S.U Y h.I I j.+Xi.Z Y ",
"%XE x c i.y.k.k.h.N y.j.A.v.j.y.A x.@X:XW k G r.C.rXeXnXaXeX; [ kXaXaXuX} [ > pX{ W.W. .O.G.3.0 a.Z.S.a.Y Y C.;X$XR x N U j.+Xk.",
"x.y.m N y.b.@X:Xk.E Z y.i.b.h.G y.h.j.k.I c Z b.F.[ % iXvXVX% , [ pXzX[ [ ; wXpX{ w K.Q.o.P.T.5 Q i.s.c.n Q v.j.v.E n I i.k.@X,X",
"b.i.Y k.y.i.i.i.l.U G I k.y.I n Z y.v.A.j.E Y y.w.] ` [ ZXBXi G.` : & $ , 0 dXpX{ DXq <.L.H.H.e 4 h.x.K K x A n.S.y.T k.i.Y i.k.",
"@Xi.y.b.Y i.i.i.R m x T j.U c I v k.#Xv.y.b.Z.y.r.t._ ( nXNX0 5._.~.}.H.9.3 hXaXtXmXgXt 3.L.T.L.3 c.t.J B E h.N.A.y.i.b.Y y.r.Z ",
"y.I E j.j.v.j.Z N b G f.I N N I i.#XA.I l R z.p.N.s.{ , kXAXcXt G.}.I.W.e fXkXfX[ mX2X5X0 5.2.Q./ T m M x Q ;XOXI B R h.i.#Xv.N ",
"h.J m m J E h.h.U @Xx.n Z m b I N E y.R J G m J r.R | kX@ uXNXvXt w 9 0 sXdXiXsX{ jX^ j.B.i 4.6.3 m N x.x Z E Q E G J G I y.E N ",
"G x x n l n m E Z.@X@XE m M T R h.E I N b b n n G W r.[ kX) ZXAXCXCXVXZXcXCXZXzX[ gXm C y.z.q 3.y M c n h.i.y.K U l b n m v J f.",
"J n I j.E y.J f.v.j.y.j.y.i.j.b.k.E I N m ~ j.y.Y N l.] [ ) BXSXcXNXpXsXvXvXpX{ eX5XT P N C.q 6.q Y r.t.n.j.Y m m n I j.i.Z N R ",
"E Z j.Z.@Xb.E Z Z m J y.#XA.A.k.k.U U E I x.:Xn.C.S T ' , # uXvXCXZXCXhXlXsXkX| 5X1Xn.C.e.R G y y.b.*X%Xx.Y i.i.E h.h.#Xb.k.j.R ",
"x.h.m I N j.b.:Xx.y.c m m j.;Xd.v.S.%Xx.w.T K y.b.n.C.C.@ : tXdXSXnXbXlXsXdX[ | OXN i.$XS.C.! F n J k.#XS.v.A.#Xk.y.y.x y.j.b.;X",
"h.y.y.E N y.v.v.k.N m i.y.i.k.k.b.x.i.~ s.A n w.y.S.b.9 9.4 % = ; eXdXvXkX> & =XM.B f.g.d.+X! M Y U U k.x.Z.v.p.y.y.y.y.k j.k.b.",
"y.y.b.+Xj.E i.i.y.N i.%Xj.x h.h.h.i.E A j.S.k.h.y.  6.7.^.^.U.: & * > - + , -X-X$XN.w.p.y.w.T y.A.p.I m E E i.r.i.y.v.Z.E y.p.i.",
";XA.h.i.v.i.Y y.N Y Z.<Xi.h.m m R i.#X#XA.s.    X . 4 5.G.Q.T.- dX[ > 3.K.+ X o   d.f.l.f.B R $X;Xk.y.J E I i.A.v.;Xv.y.v.k.y.r.",
";X,Xi.Z E b.y.Z l f.y.y.r.r.k.j.T Y x.,X  X     X   . i w 6 t : hX[ = U..X,         X M.n b S y.E y.r.Z.j.y.I h.1Xv.i.y.E r.y.k ",
"Y Z.Z.i.c y.h.y.m b m c N i.k.v.i.n     X O       .   X .   o # { eX@ 2._.: X . o .   X   Z x v n m N k.v.i.m G a.i.y.h.E y.j.i.",
"I R h.f.x n h.&Xk.E U x n x y.p.j.            X   X   .   8.u ( * } eX@ ( #   X X       O   i.y.n m J N p.j.j.i.u.j.y.y.x y.x.j.",
"i.n d m I J I R v.Z.i.Z l.f.m y.s.  X X         . o   5.7.Y.H.K.6 # [ [ [ =       X     X   v.g.N h.f.G I j.b.d.i.d x m E v y.i.",
"I J G h.&Xk.Z n A.,Xv.r.;XZ.i.;XS.  X     X     o   2.P.H.`.|.).Q.6 : { { (           X   X ;X#Xj.v.v.a.;Xb.y.h.x c h.E h.j.r.y.",
"A.I x E j.k.y.y.y.y.i.v.;Xb.k.Z.b.            X   . t Y. X).).{.^.;.r * * .   X o   X   X   s.p.k.b.v.j.v.v.i.b.h.y.h i.j.r.r.i.",
":Xi.c m Y b.Z.+Xi.I U p.Z.k.p.Y r.M.X o   X         o 6 1.4.7.6.y 9 w o o   X X X   X .   ~ ~ Y i.@Xb.y.i.Y p.b.Z.i.c h j.v.Z.x.",
"v.h.I I Y k.A.#Xb.E N U k.i.U v I y.j.x.  X     X   .   u q r 9 .     .     X .     X r.%X=Xh.f r.y.j.h.c h.j.i.k.y.y.Y i.A.k.Z.",
"@Xj.h.b.E A U r.y.I c N j.y.N n m w.k.;XY A.      X X X   o O   X X X   . o     X x.l.k.Y R r.G Z y.E y.x d Y Z.A.j.y.h.y.r.i.Y ",
"b.Z R N.h.k.x.I m c m I y.I m J E #XS.w.G M.=Xc.1X    .     o       X . X   N.+X&XB.S.k.r.z.n j r.i.f.n x j.b.#Xa.y.E k.i.v.i.x ",
"j.N m Q R Z.b.I J R E I I m J I R +XS.R c U ~ w.b.^ B Z r.A C B V B g.Q N.f.W G y.a.T M.j k f.U h.l x h.x y.x.Z.y.c h.R y.y.j.h.",
"I N H G m I U R y.%XZ.N m J J G G v T R V H m J U Y t.i.:XM.c G ^ Z v K c S ~ c n v n g.i.y.M.&XQ x y.x y.I N c f.c n n v y.J y."
};
