/* XPM */
static char *ZGQ_[] = {
/* columns rows colors chars-per-pixel */
"64 64 248 2 ",
"   c #010202",
".  c #0A0100",
"X  c #02010B",
"o  c #040707",
"O  c #080012",
"+  c #140D2D",
"@  c #0A142C",
"#  c #0C0C3C",
"$  c #0A0E35",
"%  c #150D38",
"&  c #0E1234",
"*  c #08133A",
"=  c #131434",
"-  c #15133C",
";  c #1A1137",
":  c #12122B",
">  c #2B2D33",
",  c #172339",
"<  c #5B3608",
"1  c #5D2B17",
"2  c #5C3414",
"3  c #592D06",
"4  c #672C09",
"5  c #62340D",
"6  c #693506",
"7  c #652C15",
"8  c #633412",
"9  c #683817",
"0  c #743E12",
"q  c #6A3321",
"w  c #723020",
"e  c #3C5B18",
"r  c #3C580D",
"t  c #335E20",
"y  c #495C0C",
"u  c #475917",
"i  c #585616",
"p  c #664C13",
"a  c #4E610E",
"s  c #4D6B07",
"d  c #56690D",
"f  c #5A730D",
"g  c #4E6212",
"h  c #4B6618",
"j  c #526514",
"k  c #556915",
"l  c #5A6D15",
"z  c #53651A",
"x  c #566A1A",
"c  c #5A6D1B",
"v  c #5A6419",
"b  c #5D711D",
"n  c #5A7718",
"m  c #4F7017",
"M  c #636A19",
"N  c #61751D",
"B  c #657919",
"V  c #6C7419",
"C  c #455925",
"Z  c #5B6E21",
"A  c #566823",
"S  c #5E7221",
"D  c #597727",
"F  c #5C7531",
"G  c #676D25",
"H  c #627523",
"J  c #667A24",
"K  c #6A7D25",
"L  c #64742B",
"P  c #667A2A",
"I  c #6A7E2B",
"U  c #6C7428",
"Y  c #747A29",
"T  c #6C7D34",
"R  c #677735",
"E  c #737C34",
"W  c #726E29",
"Q  c #66472B",
"!  c #170D44",
"~  c #081343",
"^  c #171547",
"/  c #0C0F42",
"(  c #5C5A5A",
")  c #717C48",
"_  c #58526A",
"`  c #5A4A74",
"'  c #57497A",
"]  c #565277",
"[  c #53486E",
"{  c #61497A",
"}  c #645D55",
"|  c #A40202",
" . c #AC0202",
".. c #A90508",
"X. c #B40102",
"o. c #B80206",
"O. c #B10415",
"+. c #DC2C02",
"@. c #DA3402",
"#. c #CE2E00",
"$. c #E13305",
"%. c #E52F05",
"&. c #BB5804",
"*. c #B35601",
"=. c #AE6A0E",
"-. c #957B2E",
";. c #CB4E05",
":. c #D64D01",
">. c #C35502",
",. c #CC5301",
"<. c #C95806",
"1. c #D25302",
"2. c #D35706",
"3. c #C95414",
"4. c #D74C16",
"5. c #CA640B",
"6. c #69831C",
"7. c #708818",
"8. c #5C842F",
"9. c #6C8126",
"0. c #6E822C",
"q. c #678529",
"w. c #71852D",
"e. c #74892E",
"r. c #7A8D2C",
"t. c #738625",
"y. c #7C912D",
"u. c #72922E",
"i. c #6E8232",
"p. c #6C8C33",
"a. c #688337",
"s. c #728532",
"d. c #758A33",
"f. c #7A8D35",
"g. c #758B39",
"h. c #7B8E3A",
"j. c #768438",
"k. c #7C9135",
"l. c #7E923B",
"z. c #779738",
"x. c #6F9937",
"c. c #5B8517",
"v. c #798944",
"b. c #7D9241",
"n. c #7C9848",
"m. c #6F8C47",
"M. c #848B36",
"N. c #978A35",
"B. c #819436",
"V. c #82953C",
"C. c #84993D",
"Z. c #889838",
"A. c #8B8F2C",
"S. c #86A23E",
"D. c #DC8B0D",
"F. c #D88A08",
"G. c #D99309",
"H. c #DD8B14",
"J. c #D78915",
"K. c #DB9216",
"L. c #CD910E",
"P. c #E38B0C",
"I. c #E3870A",
"U. c #E38B13",
"Y. c #E78916",
"T. c #E59217",
"R. c #E78D0F",
"E. c #FEBC04",
"W. c #FFB50A",
"Q. c #FEBC0C",
"!. c #F7BA07",
"~. c #FEB513",
"^. c #FDBC13",
"/. c #FFBB1A",
"(. c #F9BA16",
"). c #FCBA23",
"_. c #E08928",
"`. c #FDC20B",
"'. c #F9C408",
"]. c #FEC214",
"[. c #FCC317",
"{. c #ECC015",
"}. c #F5C322",
"|. c #858D43",
" X c #829642",
".X c #869A43",
"XX c #8A9D44",
"oX c #8A9D49",
"OX c #88954D",
"+X c #8A9657",
"@X c #939553",
"#X c #8CA145",
"$X c #8DA249",
"%X c #85A846",
"&X c #91A54B",
"*X c #93A849",
"=X c #98AB53",
"-X c #8DAE53",
";X c #979B6D",
":X c #98AE6C",
">X c #A9AA7A",
",X c #B58543",
"<X c #FDDB57",
"1X c #EFDE48",
"2X c #FDE259",
"3X c #FFE153",
"4X c #FEDD64",
"5X c #554A83",
"6X c #5B4884",
"7X c #555084",
"8X c #664A84",
"9X c #624D90",
"0X c #7F7FBD",
"qX c #7C8DBC",
"wX c #7F88B7",
"eX c #7493BC",
"rX c #7B8BC4",
"tX c #7C8BCB",
"yX c #768AC5",
"uX c #7A92C6",
"iX c #798BD2",
"pX c #ADB08B",
"aX c #8387BC",
"sX c #8895BF",
"dX c #BFBBA5",
"fX c #D9C8B3",
"gX c #E3D0BF",
"hX c #858BC8",
"jX c #858ED1",
"kX c #C7BEEB",
"lX c #C9BFF3",
"zX c #B5CADC",
"xX c #BCC8E5",
"cX c #BFCCEF",
"vX c #C5C9DD",
"bX c #EFD8D1",
"nX c #EAE3D5",
"mX c #C3CAE4",
"MX c #CBC4EC",
"NX c #C4CAEC",
"BX c #C7C6E6",
"VX c #D1C7E9",
"CX c #C4C6F2",
"ZX c #D1CAF4",
"AX c #EFDCE7",
"SX c #EAE2E3",
"DX c #FDFCFC",
"FX c #FFFDED",
/* pixels */
"S z c f.C.d.b S XX=XV.B C.r.f.$Xl.K M m M i.l.C.T v t.5.*.w.d.U F.Q.=.h.6.G h j r.|.d.F x C.=XXXK C.l.w.C.#Xr.M x j P V.h.t.N P ",
"C.J x i.w.9.J J 9.e.d.d.*XC.h..Xe.Y C.C.A A p.y.n q.=.^.A.n.-.J.2 8 i z.M.Z.v.H S a.t.B T 9.w.g.w.XX$Xh.V.f.f.M.V.I b J K K H P ",
"S.K g c H d.C.C.J H K d.XXf.9.I f.f.$XoXU j M b r.-.~.2 4 Q 8 < Y.,.6 >.3.-XV.h z U z.A.#X9.f B e.l.C.s.K 9.l.XXXXw.j b K d..XV.",
"B.K S J d.f.XX=Xl.P c H f.d.H N K E p.Y N N q.|.l.,X!.< /.< U.~._.3 Y.^.F.,.&.R D Y B.B.#Xz.T N N M.d.N J J K f.w.N c s.d.C.XX&X",
"C.K K h.9.B H j.g.P k H d.e.N c c Y x.Z.p.q.P =.*.5 ].P.6 J.Y.<XG.7 ^.].].{.I.*.j.m.c.n i.g.a.g c w.h.H c c J q.$Xd.0.i.J J B e.",
"OXI K C.B e.s.D n c x S w.J j x P B.Z.p.8.q.=.D.'./.D.J.2.F.F.DX,.5 Q.4X^.<XFX`.&.|.g.t.S D c z N s.I c H N 0.#Xk.K i.h.s.f.K b ",
"K S S i.9..Xg.c x D J S J H S Z P XXM.H l =.P.].].R.3 2.F.F.T.DX5 :.~.DXT.Q.4XDXP.&.l.M.n x H Y I N Z Z c H V.XXI S H 0.0.l.d.N ",
"9.H b h L P K P 9.l.b.H l H P Z J P 8.U &.Y./.'.L.7 R.F.U.U.J.2X8 J.`.3X,.H.!.2XDX>.8.) B U k.XXw.x c H H H 9.H S x h b b 9.i.Z ",
"b c j z x S b 9.Z.#X.XL z j J d.p.J P v.,.(.[.~.,.,.P.U.H.Y.F.`.4 3.'./.:.< F.(.FXY.*.M K OXS.f.0.0.j 9.d.0.K 9.S z z z z c H w.",
"Z g J oXf.9.P S 0.J 9.g.l.k.g.d.K I G ,.I.'.~.U.<.~.].G.F.D.H.^.1.2.!.Y.:.1 2.U.<X[.5.l k m.s.K 0.l.l.d.0.9.s.w.x S 9.C.l.s.S S ",
"j.H 0..X.Xl.d.0.P S b 9.k.#X#Xk.d.h.OX,.].Q.L.:.P.].!.].^.F.T.Q.,.3 Q.R.7 ,.q :.(./.,.e.e.D x M 0.0.$XoXV.e.h.w.I i.d.V.k.k.w.0.",
".Xl.P j c 9.B.$Xl.P z z c f.#XB.B.z.:X1./.'.P.1.W.Q.]./.`.E.!.^.T.8 Y.7 '.R.2 4 `.G.;.Z.XXh.0.N k l w.=Xf..XC.l.C.w.b b b f.C.V.",
"b J 9.H b w.C.C.C.K S I S P e.f.z.u.V 4 E.Q.4.G.T.Q.Q.(.~.Q.].`.!.7 4 !.Q.[.7 5 F.,.7.f.x.V.I A 9.0.i.0.9.i.d.K 9.K K s.0.s.k.k.",
"s.s.V.V.e.0.e.K K H f.$Xd.N H P U T I 8 D.].4 Y.!.].^.Q.[.~.I.&.9 7 >.K.`.<X0 >X9 +Xh.K w.N I a.l.l.0.j d.9.w.w.s.h.l.k.0.J j.p.",
".X#XC.r.k.d.K S x H l.C.0.J P P 9.Y Z.4 &./.8 F.D./.Q.Q./.Q.Q.H.>.! : & 2 ~.&.>X>Xn.h.f.G x n Z.l.k.0.0.9.w.K k.h.l.e.e.e.s.P x ",
"#X#Xf.c J d.0.N c H 0.P H J f.f.q.P u.=X7 I.8 J.H.E.`.Q.E.^.Q.Q.^.yXMXhXVX/.G.F.@Xj.a.j.M z P I 0.a 9.d.w.0.w.w.*X#X9.s.9.0.9.t.",
"9.d.l.d.b K d.e.w.j c A c S d.l.p.H c w.2 <.7 ,.P.`.).W.^.uXhXQ.~.mXDX+ DXQ.2X/.<.> s.p.i.0.g h k x Z i.l.f.b c 0.d.h.0.c 9.d.d.",
"b k S S z b 9.l.w.s.c Z S b H 9.d.w.a.0.>X4 ;.:.F.J.'.Q.].hX' ^.{.DXDX2 <.J.<X2XQ.- @ > l.M.0.j.b K S H B e.w.h.l J J c j b s.w.",
"s.x c I I K Z 0.C.XXh.H w.9.l f.r.d.T l ;Xw &.1.T.D.}.^.yXrX] /.P.7 6 H.[.1X2X<X2X,.& > a.k.*Xj.9.s.0.I e.e.l.0.b k b I P s.b 9.",
"0.k c h.oXl.b c k.$XC.0.&Xf.k.$XB.p.P S R SX,.,.:.Y.!.H.uX` `.Q.F.P./.W.2X<X<XQ.Q.]._.p d w.XXl.9.C.l.s.=Xk.9.9.i.c 0.g.b.K b 9.",
".Xe.k H I 0.9.w.9.9.w.w.$Xk.l.f.B E *X$XF bX2 :.&.D.Y.eXqX6X~.'.^.'.Q.`.!.Q.].(.~.G.9 8.y.6.e.0.s.f.XXd.e.w.f.l.l.s.g J 0.0.s.9.",
"l.0.d H 0.f..XXXe.b S w.k.l.9.b l.g.B.g.M SXw 4.G.R.,.hX' T.Q.(.~.`.^.).~.`.'.~.D.<.p k.n.M.z 9.s.l.l.w.b s.e.V. X0.j k s.d.$Xl.",
"l.9.b K d.d.l.C.l.i.x 0.f.w.i.x J E t.z.I bX3 6 D.>.jXtX9XJ.I.K.'.^.'./.!.!.F.2.3.5 Y u.$Xh.j.z I d.e.9.c P 0.w.h.9.9.d.s.s.l.XX",
".Xd.I h.0.b b w.I S x S d.0.J z k s.Z.C.E AX%.| X.1.yX[ 3 < :.H.Y.F.K.I.1.3.7 5 5 +XU Y 8.s.Y f x d.w.b H j S l..Xd.w.s.9.N 9.9.",
"g.c 0.l.0.d.f.0.Z y Z i.P c g H q.Z.&XV F AX.. .o.qXqX5X| X.X.o.o.X.@.@.| o.@.+.pX:XM.M.q.j u k K J P x Z 0.C.$Xw.w.K 9.h.h.w.w.",
"T N x K I d.d.H c d.s.H c b H c S p.j.p.m.bXX.O.| wX9X@.$.%. ...| O.+.$.$.+.| o. .pXa.h.e.v p.d.H x S L Z H d.d.K x b w.9.d.d.a ",
"P c j x c K H I f.XX Xb c b 0.i.d.b U L v.o. .# 6X^ [ +.| X...X. .o. .X.+.@.+. .| pXU B 9.j.z.XX0.c c H P J 0.P j.g z y z s.I s.",
"H x x S c S c 0.C.C.g.9.0.j i.d.j.E c M n.o.X.= N.@ MXmXNXBXzX%.$.#.O. . .o.@.%.u bXOXm G v.*Xd.I 0.N N d.d.0.P h c i.x j c y i.",
"x c 0.$XoXd.J b 0.b s.w.l.C.B.r.w.K f s >XX. ./ A.e iXjXiXtXVXmXlXvXvXiX[ yX8X' A.e fXpXD M f 9.s. XC.V.l.e.K b g b j.oXoXl.s.l ",
"h.w.0.w.w.f.C.k.0.S j H 9.$X=Xk.d.n.OXp.O.| ..r u y hXyXvXcXkXvXMXxXCXVXNX` yX] N.N.C pXf.J r.h k K V.*XC.l.V.C.d.0.9.d.w.d.C.0.",
"h.0.0.c k w.f..Xl.K c x x s.l.k..XC.n.M...X. .e u qXyXsXcXxXNXCXxXmXmXvXkXcX' hXz N.M.y S.b.Y h l b 9.C.h.f..X.Xl.0.H l b d.C..X",
"H I i.h.9.0.w.h.d.w.0.i.s.c 0.s.d.w.l V ..X.C u e iXyXvXlXVXkXvXMXMXhXCXrXBXrX' u A.N.u f.V.q.T j.i.Z 0.d.d.9.N H 9.0.d.0.9.f.d.",
"k.k.k.d.l.0.w.9.j 9.V.*Xw.t.x H j.6.z.M.|  .r y uXyX6XuXMXvXNXxXlXMXhXqXuXlXxX% u u A.% W l L V.*Xf.J N S K d.d.f.r.XXV.e.d.0.S ",
"#X#Xg.0.d.f.0.j x i.d.l.K w.s.w.Z j.Z.=Xo.| C C ' tX{ $ # - aXjXmXzX] rXyXNXhX# e u Z.% n j B j.l.w.K K s.J I C.=X$Xe.K d.f.P l ",
"k.C..XJ b 9.d.9.x S c S c K l.h.I F t. X..X.bXSX* aX! yXhX' ^ # qXjX6XrXrXiX] : t r u - p.A f L H H P l.V.9.l J C..X0.N P 0.d.9.",
"N 9.d.P c K j.l.I x c z x H 9.d.w.H l n ..o.AXAX! aX$ hXxXmXuX' ~ wX! jXhX7X% u C u @ j.C.T b c z j H 9.h.t.K N N s.h.i.J J d.g.",
"0.b b H c b S K C.r.9.S 0.b k w.k.y.I m.o. .8 8 @ / = - rX' & $ $ - - [ [ & u u / + E U J g.l.P Z H M N B d.M.l.b x c l k c H d.",
"b g c d.h.0.N 9.l.*Xe.J oXw.K .Xf.u.m.4 | o.;.>.! * @ { % % ^ { [ ] # - ; & # & _ ;XI H N n.=X XI h.d.K B.k.d.e.S z b s.b.0.l H ",
"h.H c i.b.w.9.w.d.C.e.0.&XC.l.$XM.K 0 ;...X.,.F.5X' ; 5X' ] aXBXBX' ^ % = # ; ' 5X|.y.L f f.l.k.w.XXXXC..XV.J K i.H H d.b.w.N J ",
"$X0.j j 0.w.d.f.i.b 0.f.z.l.e.9.q.p ;.I.| | Y.Y.5XaX& ` 7XrXtXtXiX8X@ ] tXBX6X` l H v.f.V.L l 0.r.Z.Z.w.J 9.B.XX.X9.k b J d..Xf.",
"h.I c b w.l..X$Xf.K S K d.l.s.S T 2 Y.I.X.H.U.4 ' rX6X= 5X` hXrX[ = - NXBX0X^ _ N w.d.h.XX$XJ b 0.0.0.j.b i.f.e.g.9.x H s.f.XX&X",
"l.w.K g.9.0.9.d.j.P S H h.9.H x p 6 G.G.J.1.2 SX5XrXrX6 % / ~ & ! I.4 cXNX` * ( w.I J t.f.l.P S b s.h.P c a J f..X0.P d.9.9.9.f.",
".Xw.9.l.K w.d.9.P c u P d.J k H q T.G.K.:.5 bXAX8XyXuX3 :.J./.`.(.<.6 zXZX+ ; a.l.d.t.K J H H Z b s.K H b K d.C.z.0.w.l.9.0.9.H ",
"0.H 0.d.d.l.g.N N x Z i.S S b H 5 5.2.:.8 dX@XbX[ hXiXqX3 J.G.^.P.1 mXMXyX; ( Z w.s. Xl.J g Z c i.J S z z i.oXC.K c P s.0.XXf.N ",
"s.S c c b I s.s.J .Xh.c H x z H < 2.3.8 v.W m dX] aXaXhXjX8 1 6 2 mXvXtX* aX( A S c P i.H l l..XS x S j.z b 9.0.T S S Z H s.K Z ",
"Z j j x g x c I V.XX XK l x P P 6 ;.< U k z h R _ tXCXNXBXBXBXxXBXBXMX/ qX_ n s z j c S K l.$X.Xs.k h l d.0.s.c H j g x c l S i.",
"S x H d.I 0.H I h.w.I f.I d.d.l.Q &.9 D x a.m.w.( 7XyXcXMXtXuXMXMXxXlX& ` _ l n 0.s.K b H h.h.J 9.9.9.w.h.d.K b b x S d.w.b b P ",
"I b d. X.Xl.K H N c H w.C.C.C.k.f.6 U q.b z.oXM.y.} hXeXrXhXmXMXmXVXyX# : b.F Y .X.XC.s.J I S S w.l.#XXXl.0.9.i.9.0.s.$Xl.f.d.K ",
"l.s.c H b d.l.$Xh.0.x c c d.#Xy.M.v XXf.t.f S i.|.) 5XtXrXhXzXMXBXhX' : = l.j.q.S b t.XXZ.l.d.d x S d.C.B.k..X.Xk.9.i.j 9.d.l.$X",
"s.I i.K S 0.k.k.f.b k i.0.w.f.k.f.h.Y P f.T S b q.d.> * tXmXqX6X- ~ * 9 3.9 d.E T b K r.y.k.0.A K P K f.h. Xk.e.0.0.0.9.j d.f.k.",
"w.9.l.C.d.K w.w.9.b w.XXd.j s.s.g.j.6.K 0.e.g.t.Y s.j., ^ $ ! % + - H.W.W.,.&.. h.Z.K j.m.T L T C.e.H c I I w.9.w.0.l.C.K 0.e.w.",
"#XC.w.s.f.s.K 9.b K C.=Xw.w.c x J w.C.#X Xl.Z.l.      > U.,.~ 6XqX# R.Y.K.;.5     X   E 6.f K B.#Xf.0.H K N w.C.k.#Xk.9.l.f.9.9.",
"$X*Xw.N K l.0.H y s.s.9.9.9.d.d.D B k.#X*XB   X o   X ; ~.G.^ [ jX/ < < 7 5             o A c w.I 0.K B.f.9.b g.=Xl.w.0.K 9.i.j ",
"K l.l.s.k 0.d.0.Z k x j b e.f.k.j.d B d.X         o   # [.1.= ' 6X+   o X   .   X       X X   A x c b f.k.w.c b e.w.9.s.I 0.d.w.",
"H P s.s.z x i. Xh.K P j x j 0.d.d.e.R       X     o . - - : ' { & = 5 :.  X               o     Z Z S b d.d.d.0.9.d.9.0.j 0.f.g.",
"i.x y c H S H K f.C.w.S g.i.c 9.9.l.r.          .     ; ' ` ' / 2 F.Y.H.2.&..     X   O       X 0.s.i.Z H d.l.k.0.g z c 9.l 9.w.",
"H b c j. Xh.b c C.*Xk.9.#Xl.e.$XC.9.f o o     X       ; 6X6X; 2 F.^.Q./.K.U.,.X                  Xb.f.r.#Xl.w.i.z k j.K s.e.9.0.",
"C.H z P d.d.0.0.0.9.w.k.#XB.f.k.k.t. X          X .   X * - 4 2.[.W.!.].W.F.6 X             X X oXl.f.e.k.f.w.l.s.0.a s.d.9.J d.",
"$X0.x c K l.C.l.s.H J d.V.f.e.9.K v.#X XX       o   X       5 4 6 ,.<.1.1.5     X       X X   E g..Xl.0.w.J d.l.C.w.k a d.k.C.f.",
"k.e.H J K f.C.XXb.K b H d.w.J c R 9.g.y.J H     . X o       X     9 7 7 2 o   X o     o   +Xf.Z w.0.d.s.x w.d.w.d.9.0.9.e.C.d.C.",
".Xd.d.l.K J J 9.T H x b g.0.b k l 6.k.C.L ;X+Xb.X   . X o   X   .           . O X O . ;X+X+XR l N K I i.a y 9.B.XXd.0.0.9.9.w.K ",
"l.b P b.s.f.k.H c k c H 9.J c S t..XXX0.f g.l.OX:X:XfXX             X         o nXnXdXpXP t.b u 0.0.i.c h j.V.XXe.0.9.l.0.l.w.j ",
"d.Z Z I K b.l.H N P K S H c H H P l.V.K k R B j.M.r.c J 9.t.N D D N P d.B.T V l t.f.Y j.x a w.w.s.a z s.j 0.l.l.9.x i.P 0.s.d.i.",
"H S x Z Z J H P 0.XXC.b c S Z Z S l L P n z x F T I n g.+Xd.M A Y c c b c L 9.x x h S K s.I b.h.0.j 0.j 9.H S k i.k z c l 9.S 0."
};
