/* XPM */
static char *c3M_[] = {
/* columns rows colors chars-per-pixel */
"64 64 249 2 ",
"   c #020202",
".  c #0B0102",
"X  c #000A00",
"o  c #02020B",
"O  c #02080C",
"+  c #0B050E",
"@  c #0A142B",
"#  c #141129",
"$  c #0B0D3A",
"%  c #120D3B",
"&  c #160B38",
"*  c #0A1537",
"=  c #13133B",
"-  c #191638",
";  c #140A2D",
":  c #252431",
">  c #5B2C07",
",  c #593406",
"<  c #5B3414",
"1  c #592D15",
"2  c #662D08",
"3  c #64340C",
"4  c #663507",
"5  c #662D15",
"6  c #633212",
"7  c #6A3319",
"8  c #752E12",
"9  c #6C2F23",
"0  c #3A5811",
"q  c #3D5727",
"w  c #3D6020",
"e  c #475D0C",
"r  c #465917",
"t  c #554E14",
"y  c #675216",
"u  c #4E610D",
"i  c #4A6503",
"p  c #55690C",
"a  c #4E6212",
"s  c #4B661A",
"d  c #526514",
"f  c #556915",
"g  c #596C16",
"h  c #53651A",
"j  c #566A1A",
"k  c #5A6D1C",
"l  c #5B641B",
"z  c #5D721D",
"x  c #597419",
"c  c #59750D",
"v  c #62691A",
"b  c #61741D",
"n  c #647A1B",
"m  c #677819",
"M  c #687312",
"N  c #4A572A",
"B  c #5B6D22",
"V  c #576924",
"C  c #5E7222",
"Z  c #5B7627",
"A  c #566D2F",
"S  c #646B27",
"D  c #627523",
"F  c #657A24",
"G  c #6A7D25",
"H  c #6C742B",
"J  c #667A2A",
"K  c #6A7E2B",
"L  c #657329",
"P  c #727C2B",
"I  c #6A7C32",
"U  c #697934",
"Y  c #737B35",
"T  c #6A6C30",
"R  c #170C44",
"E  c #151345",
"W  c #0C0E42",
"Q  c #242543",
"!  c #643E77",
"~  c #56486D",
"^  c #4C4B7A",
"/  c #5B457C",
"(  c #5B4B7B",
")  c #574976",
"_  c #545277",
"`  c #555172",
"'  c #644677",
"]  c #797C4F",
"[  c #AB0002",
"{  c #A80305",
"}  c #B20101",
"|  c #B10407",
" . c #B80015",
".. c #DB2D01",
"X. c #DB3302",
"o. c #D43601",
"O. c #E22D02",
"+. c #E33403",
"@. c #EB2F0B",
"#. c #BD5601",
"$. c #9F731A",
"%. c #CC4C01",
"&. c #D34C03",
"*. c #CB5301",
"=. c #C75603",
"-. c #D45302",
";. c #D55609",
":. c #D25313",
">. c #E47F0C",
",. c #E34F14",
"<. c #6A821D",
"1. c #799117",
"2. c #6C8126",
"3. c #6E822B",
"4. c #688728",
"5. c #71852D",
"6. c #74892E",
"7. c #7A8D2D",
"8. c #768628",
"9. c #79932C",
"0. c #6E8231",
"q. c #698A37",
"w. c #728532",
"e. c #758A33",
"r. c #798D35",
"t. c #73843A",
"y. c #758A3A",
"u. c #7A8D3A",
"i. c #7B8437",
"p. c #7C9135",
"a. c #7E923B",
"s. c #769536",
"d. c #6E9228",
"f. c #5D8A2A",
"g. c #778943",
"h. c #7D9542",
"j. c #7C8B58",
"k. c #79A242",
"l. c #858A29",
"z. c #858C37",
"x. c #978B36",
"c. c #819535",
"v. c #81953C",
"b. c #849A3D",
"n. c #869C38",
"m. c #91902D",
"M. c #8AA43C",
"N. c #DC8C0B",
"B. c #D98A06",
"V. c #D99408",
"C. c #DC8C14",
"Z. c #D98915",
"A. c #D99316",
"S. c #C98D07",
"D. c #E38A09",
"F. c #E38B13",
"G. c #E48917",
"H. c #E7920C",
"J. c #FEBC03",
"K. c #FEB50D",
"L. c #FEBC0C",
"P. c #F6BB09",
"I. c #FEBC13",
"U. c #FEBB1B",
"Y. c #FAB815",
"T. c #FFBF23",
"R. c #E48E24",
"E. c #FCC20C",
"W. c #F8C308",
"Q. c #FEC413",
"!. c #FAC318",
"~. c #EEC218",
"^. c #FFC024",
"/. c #848D45",
"(. c #829542",
"). c #869A43",
"_. c #899D43",
"`. c #8A9D48",
"'. c #86974A",
"]. c #86965B",
"[. c #91954E",
"{. c #8CA145",
"}. c #8DA24A",
"|. c #88A548",
" X c #95A74B",
".X c #8AA353",
"XX c #98A855",
"oX c #919B66",
"OX c #96AA69",
"+X c #A9AA72",
"@X c #A5A562",
"#X c #FCDC59",
"$X c #FCDC4A",
"%X c #FCE259",
"&X c #F9E04C",
"*X c #FEDC64",
"=X c #FFE462",
"-X c #594984",
";X c #565184",
":X c #4A5583",
">X c #654885",
",X c #7B86BB",
"<X c #7992BB",
"1X c #6C87BE",
"2X c #788898",
"3X c #7B8CC3",
"4X c #788AC8",
"5X c #7893C9",
"6X c #7B8AD3",
"7X c #7791D6",
"8X c #9DA682",
"9X c #B3B190",
"0X c #8589B9",
"qX c #8191BE",
"wX c #BFBCA9",
"eX c #C0B697",
"rX c #C8BCAB",
"tX c #B9C39E",
"yX c #CDC9B4",
"uX c #D3C3AB",
"iX c #848AC6",
"pX c #8193CA",
"aX c #868AD3",
"sX c #C9BEE5",
"dX c #C6BDD8",
"fX c #BCCADB",
"gX c #BCC6E7",
"hX c #BEC8F1",
"jX c #DDD6C7",
"kX c #C7C5DD",
"lX c #D7CCC4",
"zX c #EADBDA",
"xX c #F5DBDA",
"cX c #E3D1C9",
"vX c #F3E4D7",
"bX c #E6E4D2",
"nX c #C3C5E4",
"mX c #CBC4E3",
"MX c #C4C5EB",
"NX c #C3CAEC",
"BX c #CAC9EC",
"VX c #C8C7E7",
"CX c #D1C6EA",
"ZX c #C3C4F3",
"AX c #C6C9F4",
"SX c #CACAEF",
"DX c #EFDAE6",
"FX c #FBFCFB",
"GX c #F4E9E6",
/* pixels */
"C j j p.b.e.C C {. Xa.n b.7.r.}.r.G C m $.;.-..Xw.l i.OXXX[.'.@X8.h.n.i.4.M U ] *.&.F.j.p b.XX).G v.c.w.).{.7.b l d K v.r.5.z K ",
"v.F j 0.5.2.F F 2.6.r.e. Xb.r.).6.2.z.(.H.E.N.8 OX].I uX-.&.=.+X'.XX9.y.5.].OX&.V.U.D.g.z 3.7.r.5._.`.r.v.r.e.z.u.K C F G G F L ",
"M.G a j D e.b.).G F F w._.r.2.K y./.).`.-.Y.I.~.7 xXzXxXDX4 V.*.;.wX9X9XeXwX*.W.L.E.=.h.{.G z c e.c.).e.G 2.v.).`.5.f z G r.b.v.",
"c.G D F e.r.).XXa.J k D e.e.F b K 3.r.d.*.#X&.Y.I.3 xX< =.%.A.I.C.> =.%.jX4 L.L.=.L.:.b. Xz.3.Z D r.e.b n F 2.w.8.b g 0.e.a.{. X",
"(.K G r.2.m F w.y.J d D e.w.b k x Y d.n.3 #XC., I.F.2 4 F.L.I.J.P.E.D.-.7 G.U.< F.U.8 J 8.a.Y a g 5.u.D k k G 3.}.w.3.0.F F G 8.",
"'.K G v.n 6.0.C z z d D 5.G d k F q.[.r.6 %XC.*.3 P.5 D.!.T.$X^.U.P.I.B.V.W.2 -.C.L., s.Z B S B v w.5.k b b 3.}.a.K 0.u.e.e.F x ",
"K D D w.K ).u.k f Z J C F D k S L M.p.g.5 J.Y.Z.< U.8 ~.$XI.FX$XP.Q.P.I.7 W.> Z.E.I.5 }.j h F m 5.b k B k L a.).G D D 0.3.a.e.z ",
"n F k s L J K J 4.a.a.Z g D F B H 4.G g.9 W.U.B.-.D.< I.&XF.*XFXI.C.L.C.< U.*.D.P.U.3 i.K Z e.{.I k k D C D 3.n C j a z x 3.0.C ",
"x k d h k k z 3.M.n.'.L h h F d.q.<.T ]., F.&XF.U.D.3 V.#XA.L.%X*XF.E.U.2 N.U.D.U.N.3 F U /.|.(.3.3.d 2.e.5.G 3.z h h a h k D 3.",
"S a J `.r.K F C 0.n 2.1.p.g.c.Y U C v j.6 %.#XU.L.B.9 D.U.D.N.K.%XL.C.Q.%.V.W.K.P.:.t K k 6.8.x 0.a.v.e.3.2.5.5.V z K b.(.5.C C ",
"t.D 3.).).a.r.3.L C U n u.|.n./.c.z.3.K 8X5 =X&X!.L.3 -.Y.R.;.V.K.J.-.S.A.G.!.U.J.8 /.Y e.n k f 3.3.}._.v.6.r.w.K 0.e.b.r.a.6.3.",
").a.F h g 3.p.{.a.U s k g 9.).c.9.b. Xp.9X< FX*X$XY.D., Z.K., &.A.C.D.*.D.Y.E.I.L.t q.[.s.(.Y C f f w.XXr.b.v.a.v.8.z z x e.b.b.",
"x G K D C 5.b.n.n.I x 3.F H u.k.v.w.n c 9X6 %XI.U.Q.P., ;.B.V.9 :.%.D.5 B.U.P.L.B.8 u.s.v.i.t.V 3.3.5.3.3.5.5.G 3.G K w.K w.r.a.",
"w.5.b.c.8.2.w.3.3.H w.}.5.T 8X2X9X2.w.<.tX3 #X*.F.K.I.F.< =.F.%.> =.&.6 ^.L.B.*.R.5 (.3.G 8.F t.a.a.3.d e.G 6.5.3.e.a.p.5.G w.w.",
")._.b.7.a.e.G C s m ).c.4.b / ' qXwXn.XXuX1 $XC.R 3 A.L.C.2 =.*.V.Z.9 E.B.3 R H.B.y [.t.C i x v.a.r.2.5.3.5.G p.a.a.6.6.8.5.K j ",
"{.{.r.k F e.3.b k x Y H Z 2.' ~.) 4XcX XjX%.L.C.nX* # 1 F.D.< -.F.E.C.4 = & ZXB.I.#.9Xw.S h n 0.5.u K w.q.3.5.8. X{.2.5.3.5.5.2.",
"3.e.u.r.z G e.5.3.d k V d m jX( _ ( ,XjXDXG.Y.L.FXFX5X& $ Z.L.E.K.A.$ = ,XFXFXC.Q.V.uXq.t.3.h u d d C 0.p.p.z k 3.w.u.3.g 3.w.r.",
"b f C D h b 3.a.e.6.V L b g T bX/ ^.~ 5XxX*.J.U.FXFXW FXFXB.C.L.A.F.FXFXR FXFXQ.L.,.9XH i.d.i.i.b K C D F 8.5.u.x G K g h x 5.5.",
"0.f k K K K k 3.(.).s.V w.2.c i.jX) ( ' 3XV.E.E.B., 2 5 &.W.Q.L.L.P.*., 3 7 D.P.Q.S.yXv Y n._.t.3.w.3.K 6.e.a.5.z f z K F 5.z 3.",
"K f k u.'.u.b x v.M.b.0..Xr.l.{.b.wX` U.-X#.U.%X#X*X=X%X#XU.U.L.^.$X=X#X#XP.!.K.H.&.vXG g q..X(.3.v.a.5. Xp.2.G 0.j K u.(.K k G ",
").6.g b 3.K 2.5.2.5.2.e.|.7.v.u.G 7.DX' / | F.K.*X=X*X$XP.!.J.P.L.F.Y.U.U.E.L.Y.N.7 DX8Xr.G d.G 6.r.b.r.6.5.r.a.u.w.d F 3.3.w.2.",
"a.5.d b 5.r.).).y.B L 4.a.p.3.Z l.4.cXxX{ o.5 D.K.W.J.I.J.Y.CX-XR D.F.I.J.P.W.F.2 { [ jX[.7.g 2.w.a.a.5.x w.6.b.(.3.d f w.e.`.a.",
"a.3.k K w.e.c.b.h.I k 3.7.6.3.h Z q.bX~ X.o.+.5 ;.S.W.Y.I.W.& % @ V.S.B.R.B.A.4 [ | } _ +Xa.P p K e.6.3.k H 3.3.p.3.3.w.5.w.a.{.",
").5.0.u.K b z 5.2.n d g y.0.L j k 8XxX-X..+.O.o.2 4 :.F.E.U.B.V.G.G.Z.D.F.=.5 } [ { iX-XxXq.i.V f e.5.z D h C a.b.e.5.5.3.b 2.3.",
"e.g 5.u.3.e.r.5.B e B Y 0.g u D P yX-X3XmX+.X.X.X.} 9 2 -.-.D.A.D.H.=.,.> < [ } | ; iX3X~ rXs d G J L k k K `.}.5.5.G 2.r.a.5.5.",
"0.D k K K e.e.D g u.2.Z f B L j P +X~ SXgXsX+...X.X.+.{ 1 6 6 2 < > 6 4 [ { [ { * * 5XgX-XxX(.y.D B Z B B F 6.8.K j k w.5.w.w.u ",
"J k a j j K D K 6.}.v.n g V Y K r.) aXVXZXkXgX+.X.o.} { [ { } {  .{ } X.O.| { & N * gXAXaX;XzXc.t.d g K J D K K w.a j e d w.3.w.",
"D j g C g D g 3.n.(.u.D e.d 5.Y g.` mXgXAXMXAX_ MX+.O.+.o.{ | } { X.@.@.[ % @ s ; iXsXVXsX` zX9XK G n z t.y.K K h k K k h k a K ",
"j k 3.`.`.e.K z 3.D t.y.a.9./.q : _ mXkXmX4X4XkX' MXgX[ ..o.o.@.O.o.{ = * r x.e E fXNXsXAX` = R ].'.p.n.v.w.F b u z e.'.).a.w.g ",
"u.5.5.w.5.r.v.p.3.k g z 5.M.].AXW aXdXCXiX7X! BXfX-XVXiX% } [ [ } & - r x.x.z.R ( SXNXkXMX,X$ ;X+ ].b. X).r.c.b.e.3.3.e.w.e.v.3.",
"u.K 3.g d 5.r.).a.K z p g r.N iX* -XMXgXMXgX) kXMXSX/ sXiX$ =.H.* N x.l.m.x.0 & ( gXsXmXnXaX= gX= 9XL b.u.p.M.a.v.3.b g b e.v.).",
"D K w.u.3.5.5.r.8.t.K 0.Y B A _ ! = gXNXnX6X` SXNXnXMX` MXaXW % m.x.x.r m.m.W 3X' 4XSXgXNX% 7X0X$ bXS 5.w.r.3.C D K 5.e.3.3.r.e.",
"p.c.p.e.r.5.5.2.d 3.b.M.5.5.c : ) * MXAXCX3X;XiXBXgXkXVX^ = r m.x.m.q r z.$ 7X<X-X5X0XAXfX; -X* zX@X2.Z x J y.7.7.7.).b.6.r.3.z ",
"{.{.e.3.e.r.3.d d I r.v.K w.2.- & = NX3X;X;X/ <X,XAXgXsX- x.x.l.x.0 0 e - ,X6X/ ( ^ iX4XZXo o   zXi.D K e.D 3.a.XX}.6.2.w.p.4.f ",
"p.).(.2.z 3.6.3.z B k D f K v.Q / 7X    # + :X& 6X7XiX& m.x.m.x.r w N @ 5XaX! E -X# .   . >X1X- GXH F a.n.3.x G b._.3.z K 3.0.3.",
"z G w.K g K w.u.F j V k f L 2.: >XnX5X_ ' O     # @ @ 0 m.m.N 0 e @ #     o # * +   -X) ( kXiX- zXr F 3.c.P 2.l C 0.u.0.D D e.u.",
"3.z z D g C b 2.n.a.5.D 2.x p : # 3XqX>X~ ~ W >X@ - N c.0 N t = R X     - = / 1X# ( ) ` 4X4X/ @ bXP g z M 8.c.(.k k k k d g F w.",
"z a k e.u.3.D K s. X3.J ).2.2.].- ( 6X;X>X~ -X<X>X& @ o . o       . . * $ / pX5X$ $ W - R $ R bX].i.w.2.c.a.e.5.D f k w.h.3.j F ",
"u.L k 0.a.5.K 5.r.(.7.e. Xb.p.}.= % W * * % * MX<XiX' E $   o     ; W ;XiX3XpX4X2 *.G.C.I.W.5 yXP {.}.b.c.(.2.G w.D D e.(.5.b G ",
"}.K d f 3.5.e.r.0.k 8.y.a.(.d.2.y J.L.E.Z.;.2 AX4XBXBXmXkX<X<X6X5XiXBXmXkXgX6XqX6 N.L.I.L.P.5 +X7.c.(.w.G K 7.{.).J f x F e.(.r.",
"r.3.g z 0.a.).}.r.K b K e.a.w.B l U.L.K.B.:., 5XMXnXCXhXkXNXsX3XhXZXsXMXgXVXAX,X< N.K.W.P.N.6 C 3.w.3.w.z 5.r.6.r.K f D w.r.b. X",
"a.3.G r.3.3.3.6.y.F C C r.2.D j Z y Z.Z.:.< >X<XBXgXsXNXMXMXMX3X<XgXCXmXgXMXAX3X-X2 A.F.C.3 G V b w.u.J g u F r.b.3.L u.3.2.3.r.",
").w.3.a.G 5.6.3.H j d F e.F f D D 2.$.y 2 DX-X0XkXNXBXkXVXmX,X;X,XBXnXkXVXMXsXpX~ zX, 2 < L Z S g w.K D C K e.).b.5.3.a.G 3.2.n ",
"5.z 3.e.e.p.e.b B j B I D z z D i.'.q.n K lX) 6XBXAXmXkXMXsX5X_ pXnXnXBXmXMXgX3X' +X[.v.I i x l 0.J B h j K `.v.D x J w.3._.r.C ",
"w.z k g C K w.0.n (.h.k C k j B x F w.Y D oX~ ^ nXgXMXBXZXMX5X( 4XNXVXhXkXmXpX;X-X].4.g.n l v.|.k k k w.h z 3.3.K B C B D w.K k ",
"B h a k a k k K b.).(.K k g L K w.K b V N B rX-XMXBXMXMX,XZXpX/ 6XhXNXAXmXmX4X( cXl h S F p. Xs.w.j h g e.3.w.g L a d j z g C 0.",
"C k L e.K 3.C 3.a.5.K r.3.5.e.a.s.b m C C m oX^ 0XMXBX,XpXiX0X/ 0X6X0XnXNXZXiX( cX6.U L n g.6.I 2.5.5.5.r.e.3.g z k D e.3.b z J ",
"K z w.b.b.a.K D b k D 3.).b.n.a.i.G L f.T 9.XX/ ^ nXMX5X3X4X~ ;X_ 6X3XkXhXpX) -XjX`.h.6.n F S B 3.a._._.a.3.3.3.3.3.w._.a.p.w.K ",
"a.t.g D b w.a.{.u.3.k k k w.{.9.p.`.).s.<.C S +X' >X4X,X5X^ >X% _ / 3XiX7XaX) vXoXc 5.(.c.z.g.u j C r.b.c.a.b._.u.3.3.d 3.e.a.}.",
"3.3.3.K z 3.a.p.u.z g 3.3.5.r.r.v.7.8.2.5.G b g.* ^ ) ( -X>X> vX5 ' ( ` ^ ( $ xXL L P r.b.9.K V G F K r.a.v.p.8.3.3.3.3.p w.r.c.",
"3.3.a.v.e.G 3.5.3.b 5._.e.d w.w.4.i.<.D i.m.h.    o = @ % Z.8   < G.@ $ %     o wX8.5.8.e.f.K i.b.5.D g K K 5.2.3.3.p.v.G 3.6.5.",
"{.b.e.w.p.w.G 3.x G a.XX5.5.B g I q.v.{.s.b.    pX~ / + L.V.5   9 >.W.. / ) <X    +Xy.I 8.S c (.{.r.3.C K D 5.b.p.}.a.2.a.r.3.2.",
"{. X5.b G a.3.b e 0.5.3.3.2.e.e.F n q. X    o   -X) -X  =.D.2 o , B.;.. _ / 4Xo O     oXC d L 5.3.3.P p.r.3.D w.XXp.5.5.G 3.3.u ",
"G a.a.w.j 3.e.3.C f g d x 5.e.c.Y H .     o   . .   / _ . =.9   4 ;.  -X'     . . . . O   i.V j j k x e.a.6.k k 7.5.3.w.K 3.r.5.",
"D K 0.w.h f 0.(.u.K L d k u 5.w.q.        o %.I.N.;.. / - O < . 6   = :X  &.V.U.*.X   .   + .X3.j k B b 5.e.e.5.3.w.3.3.a 3.r.e.",
"3.j u j D C D K p.v.w.D w.w.k 5.8.    O   *.Q.E.E.B.1 .         o       7 C.P.W.I.*.. O o   +Xe.b w.0.B C e.v.9.3.u d j 3.g 3.5.",
"D z B w.(.r.C g v. Xp.2.{.a.6.{.a.  +   &.A.Q.P.F.=.2   o       o . . X 6 :.D.U.L.A.:.      9X{.e.a.a.7.}.a.3.5.d d 0.K w.7.G 3.",
"b.D h K e.r.3.3.3.3.5.p.{.a.r.a.h.  O   5 L.I.N.*.6 .       o o           2 *.V.L.L.5     X eXy.r.p.p.6.a.r.5.a.w.0.u 6.e.2.2.w.",
"}.w.f g K a.v.(.6.C F e.v.r.6.K i.z.O +   5 9 5 2       X X       .   o o   9 4 6 3 X . + eX9Xz 5.b.a.3.5.G 6.v.a.6.d u w.p.a.a.",
"p.3.D D G p.v._.a.K z m r.5.F g H /.u./.X . .     . .       .     . . O .       o .   xXzXzXg.h 2.5.e.w.f 5.6.5.p.2.3.3.6.b.r.a.",
").e.e.a.K n G 3.3.D k x e.3.z j p 3.9.XXj..Xo       o o . . .   . X .             DXvXlX5.m U j z 2.K K d e G v.).e.3.5.3.2.6.J ",
"v.z J h.w.r.r.D k d k D 3.D z C 3.`.).8.c t.OX[.+X  o         X   X     O   lXyXyX8X6.a.2.i.A a 3.5.0.g h e.v.).6.3.3.u.5.p.0.p ",
"r.k k I K a.v.B D K K D D k C D F /.a.F j G 0.I 9.K L m G Y C x C L F w.i.0.K g 6.t.y.n j p m K w.u h w.a 3.a.v.3.f 0.K 3.3.r.0.",
"D B B k k D D K 0.).v.z k z B B C k m I k l B z K G Z y.{.q.j v 3.k B D k m K j f p l Y q.I k.z.K h 3.d 3.D C f 3.d j k g G C 3."
};
