/* XPM */
static char *_b2a04baa6174ba29557e35ce6e94ab7sXzO3EIYk0jIPyHX[] = {
/* columns rows colors chars-per-pixel */
"64 64 256 2 ",
"   c #010202",
".  c #02020B",
"X  c #080403",
"o  c #0C0A10",
"O  c #16152A",
"+  c #0C0B36",
"@  c #130E35",
"#  c #130C3B",
"$  c #190A37",
"%  c #0D133C",
"&  c #081436",
"*  c #131234",
"=  c #14123C",
"-  c #191839",
";  c #110F29",
":  c #172231",
">  c #272B34",
",  c #271030",
"<  c #5A3407",
"1  c #5E3312",
"2  c #573816",
"3  c #5A2C0E",
"4  c #672C09",
"5  c #64340A",
"6  c #682C14",
"7  c #653618",
"8  c #77301A",
"9  c #682F24",
"0  c #3B5B14",
"q  c #3B5E1A",
"w  c #495D0C",
"e  c #445619",
"r  c #5A4E17",
"t  c #684A14",
"y  c #4E620E",
"u  c #416304",
"i  c #55660E",
"p  c #4E6213",
"a  c #4A681A",
"s  c #526514",
"d  c #556915",
"f  c #5A6C16",
"g  c #53661A",
"h  c #566A1A",
"j  c #5A6D1B",
"k  c #5D6613",
"l  c #5C7215",
"z  c #5E721D",
"x  c #58761B",
"c  c #5C740D",
"v  c #626D1A",
"b  c #61741E",
"n  c #64791D",
"m  c #677A19",
"M  c #475D24",
"N  c #5D4F20",
"B  c #664B23",
"V  c #5C6E23",
"C  c #576A25",
"Z  c #5E7221",
"A  c #5C7728",
"S  c #5C7C30",
"D  c #686C27",
"F  c #627522",
"G  c #657A24",
"H  c #6A7D25",
"J  c #667A29",
"K  c #6A7E2A",
"L  c #647529",
"P  c #717D2C",
"I  c #737C25",
"U  c #6A7C32",
"Y  c #697A36",
"T  c #747D37",
"R  c #636E33",
"E  c #170C43",
"W  c #0B1647",
"Q  c #171442",
"!  c #0E0E43",
"~  c #231550",
"^  c #673D76",
"/  c #553C73",
"(  c #6A784F",
")  c #544A7C",
"_  c #594978",
"`  c #555278",
"'  c #4F5072",
"]  c #634879",
"[  c #635073",
"{  c #5E5967",
"}  c #A50201",
"|  c #AB0201",
" . c #AB030A",
".. c #B30102",
"X. c #B80206",
"o. c #9F0200",
"O. c #DD2D02",
"+. c #D92C05",
"@. c #D53502",
"#. c #DB3301",
"$. c #D73605",
"%. c #D32E10",
"&. c #E52C01",
"*. c #E42D09",
"=. c #E33204",
"-. c #E63508",
";. c #E32D13",
":. c #A3690E",
">. c #CD4E01",
",. c #D74C03",
"<. c #CC5301",
"1. c #C85704",
"2. c #D25302",
"3. c #D55408",
"4. c #CC5418",
"5. c #6A821C",
"6. c #72851E",
"7. c #5D8226",
"8. c #6C8225",
"9. c #6E822C",
"0. c #65832A",
"q. c #71852D",
"w. c #74892E",
"e. c #7A8D2E",
"r. c #748627",
"t. c #7A922D",
"y. c #6E8232",
"u. c #6A8637",
"i. c #728532",
"p. c #758A33",
"a. c #798D34",
"s. c #72823A",
"d. c #758B3A",
"f. c #7A8D3A",
"g. c #798437",
"h. c #7C9135",
"j. c #7E923B",
"k. c #739338",
"l. c #6F9334",
"z. c #69932B",
"x. c #7A8845",
"c. c #7C9442",
"v. c #7C8557",
"b. c #808B34",
"n. c #829535",
"m. c #81953C",
"M. c #849A3D",
"N. c #869A38",
"B. c #919032",
"V. c #8DA539",
"C. c #DC8C0C",
"Z. c #D98A06",
"A. c #D99108",
"S. c #DD8C13",
"D. c #D98A18",
"F. c #DB9413",
"G. c #CA8E0C",
"H. c #E48B0B",
"J. c #E68907",
"K. c #E38B14",
"L. c #E58916",
"P. c #E78E10",
"I. c #FEBC04",
"U. c #FEB60C",
"Y. c #FEBD0C",
"T. c #F4BC09",
"R. c #FEB514",
"E. c #FDBC13",
"W. c #FEBC1C",
"Q. c #F8BA17",
"!. c #ECBB10",
"~. c #E98620",
"^. c #F7BA24",
"/. c #DB902A",
"(. c #FDC10B",
"). c #F9C307",
"_. c #FEC213",
"`. c #FEC21B",
"'. c #F5C418",
"]. c #EDC30A",
"[. c #FFC025",
"{. c #838C43",
"}. c #839642",
"|. c #869A43",
" X c #899D43",
".X c #8A9C49",
"XX c #859649",
"oX c #929A48",
"OX c #889756",
"+X c #929556",
"@X c #8CA144",
"#X c #8DA149",
"$X c #84A745",
"%X c #92A64A",
"&X c #96A755",
"*X c #95AA55",
"=X c #98A370",
"-X c #A5AF75",
";X c #95966C",
":X c #FEDF53",
">X c #FCD95A",
",X c #FDD945",
"<X c #FDE259",
"1X c #EEE548",
"2X c #FFDA66",
"3X c #FAE666",
"4X c #5D3F87",
"5X c #5B4A83",
"6X c #535084",
"7X c #634A86",
"8X c #635185",
"9X c #798BBB",
"0X c #7891BA",
"qX c #6D90B8",
"wX c #748595",
"eX c #7A8DC4",
"rX c #7C8CCB",
"tX c #7689C7",
"yX c #7892C7",
"uX c #788CD2",
"iX c #7792D4",
"pX c #A9AA83",
"aX c #B6B48F",
"sX c #848BBB",
"dX c #8B90BA",
"fX c #BABAA4",
"gX c #979F84",
"hX c #C0BB9E",
"jX c #C7BDA8",
"kX c #CDC7A9",
"lX c #C2C195",
"zX c #8588C8",
"xX c #8391CB",
"cX c #8488D3",
"vX c #BCBEE5",
"bX c #C9BCEA",
"nX c #C3BEDE",
"mX c #BEC5DD",
"MX c #BDC9E6",
"NX c #BFC5F4",
"BX c #BBD1E7",
"VX c #C6C9DB",
"CX c #D4D3CD",
"ZX c #EADAD7",
"AX c #F2DBD9",
"SX c #EFDACD",
"DX c #E9E3DA",
"FX c #F3E3CF",
"GX c #C3C5EB",
"HX c #C7C7E7",
"JX c #C6C5F3",
"KX c #D3C4EA",
"LX c #EEDBE2",
"PX c #FEFCFF",
"IX c #F4E7EB",
"UX c #DEE0CA",
/* pixels */
"Z g h h.M.p.Z Z  X*Xm.n M.e.p.#Xt.U m D 7 < 3.%X6.V i.oXB.r.i..X6.}.c.l.I j y Y 1.8 < U g c.*X|.8.m.h.w.|..Xw.v f s J M.a.q.v J ",
"M.G h y.q.8.G G 8.w.a.p.%XM.a. Xh.J b.c.t ^.3.:.m.g.0.n.l.f.c.&X3.<.3.q.w.XXOX>.J.^.r G I H 8.j.w..X@Xa.n.a.a.b.m.K Z G H H G J ",
" XH p h F p.m. XH F G w. Xa.I K T m.V.$Xr I.L.J.1.pXaXOX=X-X2.<.C.3 fX-X*X-X2.L.K.I.7 .Xb.5.n F i.n.|.p.8.8.j..X Xq.s v H w.|.m.",
"n.H F G p.a. X&Xj.K j F a.p.G z P P P q.r U.Z.D.F.,.AX>.>.2.L._.C.3.6 3.IX,.C.S.D.`.1 .X&Xt.8.C b f.p.b G G 8.p.w.b h i.p.m.#X%X",
"M.H K a.8.v G i.d.L d Z p.p.b j x H k.oXt Y.E.D.Z.D.< ,.F.W.I.R.Y.).S.>.< K.A.G.Y.T.5 y.T k.J s f g.f.L f j G 8.#Xw.K y.G H H q.",
"XXK H M.m e.y.V z z d F q.G s h G b.$Xr.7 ).T.L.L.D.1.A.Y.U.!.(.R.].W.P.7 Z.K.J.(._.5 XXb A D g f q.K j F b 9.@Xh.K i.f.p.p.G l ",
"K z Z q.8.|.d.j d A G Z G F z V m oXx.j B I._.K.A.Z.<.I.2XPX).E.E.W.I.E.6 <.P.K.E.T.7 OXl h v K q.b j z j G j.|.K Z F 9.q.j.p.b ",
"8.F V a L J 0.K 0.j.c.F f F J V J 7.J I < Q._.T.K.1.L.E.PX<X).E.E.T.(.E.<.1 D.(.(._.5 x.A G e.@XU j j L Z F 9.G Z h p z z 0.y.V ",
"z j p s j j z 9.N.@X}.L g s K p.y.5.x D B D.<XW.D.3.K.PX:XI.'.E.Y.Y.E.(.J.9 <._.R.F.7 Y n j.%Xa.y.K i 8.p.i.J 9.Z g g e j j F q.",
"V s J .Xa.9.J j 9.8.9.p.j.h.p.p.u.D l a < 1.<XY.C.<.I.:X3XU.W.Y.'.T.Y._.S.6 >.Q.(.<.< T D 0.i.S K j.j.a.9.8.8.r.h Z 9.}.M.q.Z Z ",
"i.F 9. XM.j.p.9.L Z j 8.h.#X@Xh.a.h.q.g.+X4 ,X<XE.2._.2X:X!.].E.Y._.>XQ.Z.2 2.(.E.4 jXr.i.0.k l 8.9.$X Xj.a.a.q.K i.p.M.a.a.q.q.",
"}.c.L s j q.n.@Xj.J h g h a.@Xn.h.N.#Xh.+X7 PX:X_.>.F.Y.<X:XU.E.Y.>X>X`.C.6 C.Y.Y.2 CXB.M.c.i.V d d q.*Xa.M.}.c.M.q.l j z a.M.m.",
"b n K L b q.M.M.M.H F K Z J w.a.n.r.8.D x.< >X).W.,.C.).>X3X>X<X<XF.U.R.1.5 H.Q.C.4 ZXp.j.a.9.h 0.9.y.y.8.8.r.8.8.8.K i.9.i.h.a.",
"i.w.M.n.w.8.p.K K G p..Xp.F F J G 0.U e.{.5 3XR.Y.C.2.U.2X).).E.E.G.`.E.>.7 F.E.D.8 FXu.J I u.9.n.n.8.i d.9.q.8.i.d.h.h.q.G d.i.",
"|. Xm.e.h.p.H Z h F m.M.q.G J J n 9.|.%XN.5 :XY.(.].1.K.I.D._.U.I.C.(.C.3 3.T.R.D.5 ZXd.A y n {.v.x.9.9.K s.0.h.f.m.w.w.r.w.K h ",
" X%Xa.j L p.9.b f F K J F G a.a.T G t.$X X1.R._.R._.A.,.W.F.T.E.K.(.T.<.9 Z.(.Y.E.>.SXy.D a }.wX6X{ v.p.8.9.p.r.@X@X9.q.K 9.q.8.",
"8.p.f.p.F H p.w.q.s j V h Z p.j.p.z D 8.l.~.Y.R.W.I.E.2 W.<.Y.T.3.T.W.4 >.Y.(.E.Y.Z.ZXg.g.aX9X_ '.] G U n.h.c V q.p.f.9.f 9.i.a.",
"b d Z F s Z 9.j.q.w.j V F j F 8.a.u.m 0.J 1.).1X_._.E.J.5 <.L.I.1.W.K.1 K.'.R.(.Q.4.ZXm DXzX/ 7X^ gXA U v p.y.d.f G J f d z i.9.",
"i.s j K K J j 9.m..Xf.F q.9.f a.9.b.s.f f K.W.:XT.E.U.).K.9 2.S.,.H.< H.E.R.Y.Y.I.C.SXLXqX5XY.` aXd.u.6.x.w.a.q.z s Z K J q.z 9.",
"8.h j f..Xj.z z h.#XM.q.%Xa.h.@X.Xy.0.V p 3.Q.:X<X(.Q.I.I.Z.5 4.1.7 K.I.).'._.I.Z.<.CX0X[ / ` ZX0.c.e.r.&Xt.0.I i.f 9.d.}.9.f 8.",
" Xq.d F K 9.8.q.H q.9.q.%Xh.m.f.5.p.$X+XA 4 C.Q.>X(.`.W.W._.J.4 7 Z.E.E.T.Y.^.E.C.7 tX8XR.5XLXw.x.w.@Xa.d.p.p.m.j.q.s G K 9.q.9.",
"h.q.d b q.a.M. Xw.z b 9.j.h.H z p.r.N.b.B #.7 C.E.:XC._.!.].K.3 J.).U.D.`.U.L.A.6 eX' ] ' AXi J 6.n.f.8.S 9.r.|.}.9.s d i.p..Xh.",
"j.9.z K i.p.j.M.j.y.d 9.a.9.i.s S q.P [ $.&.&.3 2.2.L.I.E.K.< L.E.[.Y.C.K.I.L.4 B.] T.] ZX&Xu.f U p.e.8.C m T 9.a.9.9.i.q.w.j.#X",
"|.i.K f.9.z z q.y.Z h Z i.9.J g k 9.( 9X$.=.-.+.+.@.#.#.2.H.L.).E.A.L.<.&.$.1 B.= ! _ _ AXhXU v a p.q.b V i G d.|.p.q.i.K b 8.9.",
"p.j q.a.q.w.a.9.V w V 9.m f h Z U .X{ MXHX&.@.=...} *.O.;.@.#.=.#.#.=.%.@.X.B.e w ! zX9X' LXM g H G y.e Z K .X@Xq.q.8.K a.h.q.q.",
"y.F h K K p.p.b j p.H L h C R l 5.x.[ HXNXHX#.#.=.} X...| ..} ..} .. .X.| B.0 w 0 eXGXJX6XAXlXs.b s F A F j d.p.K d j y.q.i.q.s ",
"J j s h h K L K a.@Xc.n V C 5.s.u.{ xXKXKXVXmX$.@.#.#.} X.X.| | X...| | B.M M 0 zXBXVXVXzX_ DXN.i.z z Z F J y.G i.p g w s i.9.i.",
"L s h F j z j y.}.M.a.m r.s q.f.OX_ HXMXVXJXJXbXGX=.#.O.&.$.$.O.} 2 X.#.M 0 e uXrXtXHXJXHX7XDXZXOXK l G a.q.K K s j y.j s j y U ",
"h z 9.#X.Xp.J l 8.G T 9.j.M.N.O , ' JXmXJXVXrXMXJXKXqX$.#.| X.| 6 ..@.O.e e MXsX_ bXKXJXGX' W $ gX&Xn.n.n.w.G j p z p.XX.Xj.i.j ",
"f.9.q.q.q.a.M.a.K Z s J G &X> JX) + E VXHXNX_ HXJXJXNXHX-.| 4 9 5 } ;.O.M vX9XrX' KXVXMXHXE ) 7XO g.|.&XM.a.|.M.p.9.9.p.q.p.m.9.",
"j.9.K f d q.a. XM.J j C V y.> cXyX6X$ GXHXHX[ eXKXmXiXsX$.| X.eX} X.#.@.rXxXrXrX7XMXHXVXbX* eXmX@ =XG }.h.h.|.}.j.9.b f b p.M.|.",
"Z K i.f.9.9.q.a.i.i.6.Y 9.l : ` 0X) $ GXBX0X5XeX9XHXyX#.*. .} B...X.@.=.zX9XrXrX@ iXMXbXQ ) xXeXE CXF T i.a.8.F b 9.q.q.9.9.a.p.",
"h.j.h.p.a.9.q.8.p i.n.V.r.i.f - _ _ % JXVXuX* eXzXzXyX*.%.....0 ;.| #.#.eXyX9XrX# xXyXGX# 5X_ * ZX-Xw.n Z U w.e.e.a. Xm.w.a.9.Z ",
"@X Xa.8.p.a.9.d s s.p.m.8.U 8.> Q ; + sXxX) ; rXtX9XeXO.X.}  .e $...=.=.tXyXzXyX= ) qXsX$ + & ! DX( H H K J H |.*X.Xw.H p.a.J d ",
"h.|.}.H z 9.q.9.z V C A V K j.- ] tXO W # % = + yXyXrX=...| X.q $.| ;.#.xXzXtX= # ; % ! * 6XrX, AXv m }.m.q.b J N. X9.n K 9.p.8.",
"z 8.p.H j K i.j.G f z h s z p.- 5XNXcX_ ) ] - E # _ 0X#.X.} } rX$.&.-.X._ * & @ Q * 5X^ ) GX9X! LXk n K t.8.I f b i.f.U L G p.d.",
"9.z z F j z b H h.t.5.Z q.l y O & zXqX` ) ) + ) O % B.+. .} X.% @.&.+.} & = 5X0X; 5X5X) iXsX[ * DXv f F c a.j.f.Z h j h s j G p.",
"z p j p.f.9.F 9.N.%X9.J  X8.r.OX& ` tX] ' ] 7XeX6XB.M *.| ....; O.-.@.| $ _ tXcX& ; = @ W % + LXaXf.f.9.N.b.e.w.Z s z i.j.9.f F ",
"f.L j y.j.q.K q.p.}.9.p.%X|.t..Xt + - E $ Q ; JXtXe &.+.|  .$.% #.+.&...X.uXdXeX# <.K.Z.I.Q.8 DXT %XM.n.M.{.H 8.y.L b p.}.q.b H ",
"#X9.s s 9.q.p.a.y.V 8.h.h.c.w.9.N U.).E.C.1.! VXHXHX@.O. .O.&.A.X.@. .} X.uX0XtX* L.`.(.I.`.6 kXr.N.M.6.H T j.N.|.0.d z G p.}.a.",
"a.9.j l y.j.|.#Xa.H b K w.j.i.V N W.Y.(.C.<.$ uXMXHX&.@.@.+.X.K... .|  .X.MXGXrX_ F.Y.R.).P.1 pX9.q.9.i.j i.a.w.a.K g F w.p.|.%X",
"j.q.K p.9.9.q.w.d.L V F a.K F h c B P.A.1.6 _ xXJXHX*.+.#.| | C. .} .. ...JXMXrX' 3 S.C.S.3 ;XL b i.f.J j y G a.M.9.J d.q.H q.a.",
"|.q.9.j.H q.q.9.J V w J p.G d F v p.B t 7 AX) 0XKXBX*.-.X.| } S. .X.} X. .VXVXzX5XFX6 5 6 0.Z C j i.K L z K p.M.m.8.q.j.H q.H n ",
"9.b K a.p.j.p.b V j V y.F b z F w..Xc.5.gXkX7XtXVXbXVXMX1.W.U.).| ..X. .| GXMXcX4XZXkXlXU u V F i.G Z s d U .XM.G z G i.9. Xa.b ",
"i.j j j z K i.y.n |.f.j F h g V x I g.J C aX] ) HXHXHXMX3.T.(.E.F.Z.1 HXVXBXtX_ _ fX8.T 7.F w.|.V h z i.s z 9.9.K V Z V F i.K j ",
"V s s h p j h K m. X}.K h j J J u.I f R V ( fX] NXHXHXeXxX2.W.Q.Z.~.6 yXbXHX9X5XjXx.C v P e.&X Xi.d s h p.9.i.j L p s j j f Z y.",
"Z h L p.9.9.F y.h.i.K a.q.w.e.j.p.Y 7.i V 8.lX5XxXnXtXtXzX0X,.E.J.6 0XrXzXtXyX_ jXl.G F f j.x.G 9.q.q.q.a.p.9.f z h z p.q.b z J ",
"K b i.M.M.j.K b F j F K |.N.M.h.a.n n y.Z p.kX5X) HXxXrXeXtX<._.C.6 yXtXrX0X] 6XkXc.n.g.L 0.j z q.h. X.Xj.9.9.9.K q.i..Xj.h.p.J ",
"j.i.j F z p.j.#Xf.9.h j j w.@Xt.e.#X Xd.K G ;XkX` cXrXeXzX_ # <.C.6 zXtXcXsX` hX=Xj 9..XM.b.d.i h F p.M.n.h.|. Xf.9.9.s 9.p.j.#X",
"i.K 9.K z 9.j.h.a.z f 9.9.q.a.a.m.a.8.w.g.m b hX# ) ) _ ` = 5 <./.< ` _ _ - & aXi.c 8.i.n.d.y.k G G H a.j.}.h.r.9.8.9.8.s w.a.j.",
"9.9.j.}.p.H q.q.9.z q.@Xp.s d.i.p.P Y m 8.M.OXW # C.& & $ 1.3   4 <.$ ~ & A.E # fXa.8.f.9.l.A q.M.r.L j K 8.q.8.9.q.j.}.H 9.w.q.",
"@XM.p.q.a.w.H 9.z H j.*Xq.i.f h F p.M.V.M.N.6 , Q T.I.R.R.Z.6 . 5 A.T.Q.W.).+ = 6 pXOXH H f 0.b.@Xa.9.z K b q.}.h.#Xh.8.j.a.9.8.",
"#X%Xq.b H j.9.z w i.9.9.8.9.p.p.A G t.&X. 5 S.+ # J.'.W.(.C.; X * D.E.E.I.D.& @ J.3   =XT h z d.9.9.9.m.a.8.b i.*Xj.q.9.H K 9.s ",
"H j.j.i.h 9.p.9.V d h d z r.a.h.q.l     . < D.- $ 7 >.D.<.2 % . E 1 <.F.3.4 # = S.7       ;Xj g h j l p.h.q.j z w.q.9.i.8.9.p.q.",
"b G i.y.s h 9.}.a.H L s h s q.w.r.o   X .   4 1.= + = O ! * ; . ! % = ; $ - * 2.< X .   .   pXa.g j Z Z i.p.p.9.8.p.9.9.s 9.a.p.",
"i.h y h L Z L K a.M.q.F d.y.j K i.X     .   . 4 # & _ ] 5X& X     O 5X) 5X# & 6 .     .     kXw.Z i.y.Z F p.j.h.9.y s j 8.f K w.",
"F z j d.}.f.z j M.%Xh.8.@Xm.q.#X}.  . X   .     @ * + = @ *     . O * + = * ; .           . kXM.p.j.h.e.#Xj.q.y.s h i.K i.w.H q.",
"M.F s J p.p.9.K q.9.q.h.#Xh.a.n.t.              . X       .         . . .       . .       . UXb.a.j.h.w.h.a.q.j.i.9.y q.p.8.H i.",
"#Xi.d z K j.M.m.q.F G p.m.a.w.H 9.f.      .               .     X                   X   X CXCXR 9.|.f.q.q.H p.n.M.q.d y p.a.M.a.",
"a.q.F F H a.M..Xj.K z F a.q.G j L 9.}.}.  .       X               .     X   X X   . X ZXIXCXL s 8.q.p.i.h q.w.q.p.9.q.H w.M.p.M.",
"|.i.p.j.9.n G 8.9.L d z p.9.l h l 8.j.&XXX&X                o       X           X DXLXDXH H y.l b 8.K K s w H j. Xp.9.q.9.H q.K ",
"m.b J }.i.p.h.F h d j F 9.L j Z Y |.N.8.C }.=X+XpX    . .                   DXDXDXkX{.b.I y.Z e 8.q.y.j s d.n..Xw.9.K f.q.h.q.i ",
"p.j j U K j.j.Z Z K 9.F F j Z L i.j.t.R s U Y 5.M.G b b q.G Z V z j K d.f.q.b f q.P p.9.s g K y.i.p s i.p 9.f.M.9.d i.J 9.y.p.i.",
"L j V j z F L J y. Xj.z j z V z j l L U c C j L J K L f. Xh.s j i.V j F j L K h g j a y.w.8.m.b.K s 9.s 9.F z d 9.d h h f 8.F K "
};
