/* XPM */
static char *c3BhY2Urb3JpZ2lu[] = {
/* columns rows colors chars-per-pixel */
"64 64 147 2 ",
"   c #4B5F0C",
".  c #4D5F12",
"X  c #4E610E",
"o  c #51650F",
"O  c #4F6212",
"+  c #4F6419",
"@  c #526514",
"#  c #556915",
"$  c #596D16",
"%  c #53661A",
"&  c #566A19",
"*  c #5A6D1C",
"=  c #5D7217",
"-  c #5E711D",
";  c #607317",
":  c #61751E",
">  c #65791E",
",  c #697E1E",
"<  c #5B6E21",
"1  c #5E6F29",
"2  c #5F7221",
"3  c #627523",
"4  c #667924",
"5  c #697D25",
"6  c #627529",
"7  c #667A29",
"8  c #6A7E2A",
"9  c #6C7F31",
"0  c #6C8126",
"q  c #6E822C",
"w  c #71852D",
"e  c #74892E",
"r  c #798D2E",
"t  c #7B912D",
"y  c #6F8231",
"u  c #728532",
"i  c #768A33",
"p  c #7A8E35",
"a  c #7B8E35",
"s  c #7A8F34",
"d  c #798D34",
"f  c #7C8F35",
"g  c #798D34",
"h  c #75873B",
"j  c #768938",
"k  c #788A38",
"l  c #788B39",
"z  c #798D38",
"x  c #7B8F38",
"c  c #7B8F3A",
"v  c #7C8E38",
"b  c #7D8F39",
"n  c #7A8E39",
"m  c #7B9035",
"M  c #7D9235",
"N  c #7C9037",
"B  c #7D9037",
"V  c #7F9236",
"C  c #7C9135",
"Z  c #7D9138",
"A  c #7C9039",
"S  c #7E9338",
"D  c #7F9239",
"F  c #7D913A",
"G  c #7C903B",
"H  c #7F933A",
"J  c #7E923B",
"K  c #7F9439",
"L  c #7D913C",
"P  c #7E903C",
"I  c #7E923A",
"U  c #7E9240",
"Y  c #819536",
"T  c #819636",
"R  c #849A36",
"E  c #80933A",
"W  c #82923A",
"Q  c #809538",
"!  c #80953A",
"~  c #80943B",
"^  c #81963B",
"/  c #84973B",
"(  c #81953C",
")  c #82973C",
"_  c #82963D",
"`  c #81953E",
"'  c #82943E",
"]  c #83973E",
"[  c #81953C",
"{  c #869C3A",
"}  c #839B3D",
"|  c #84993E",
" . c #84983F",
".. c #879A3E",
"X. c #869B3E",
"o. c #84993D",
"O. c #899E3F",
"+. c #8BA13F",
"@. c #849640",
"#. c #849644",
"$. c #839641",
"%. c #869940",
"&. c #879A40",
"*. c #869A41",
"=. c #849843",
"-. c #879B42",
";. c #869A42",
":. c #889D40",
">. c #899E41",
",. c #899C42",
"<. c #889D42",
"1. c #899C43",
"2. c #889A44",
"3. c #889C45",
"4. c #8A9F44",
"5. c #8A9E45",
"6. c #889C47",
"7. c #8B9D47",
"8. c #8B9F46",
"9. c #8C9F46",
"0. c #8E9E46",
"q. c #899D44",
"w. c #869948",
"e. c #8A9D49",
"r. c #8BA045",
"t. c #8CA146",
"y. c #8DA247",
"u. c #8FA447",
"i. c #8CA145",
"p. c #8EA04A",
"a. c #8FA34E",
"s. c #8DA24A",
"d. c #91A647",
"f. c #92A845",
"g. c #92A74C",
"h. c #94A74E",
"j. c #91A54B",
"k. c #96A94D",
"l. c #94A94E",
"z. c #95AA4F",
"x. c #94A94D",
"c. c #98AD4E",
"v. c #95A950",
"b. c #97AA50",
"n. c #96AA53",
"m. c #97AB52",
"M. c #99AC53",
/* pixels */
"2 % * s } i 2 2 -.z.K > } r i s.A 0 = 2 & 8 ] { 8 & w h.} 0 i r.0 } ;.e 4 $ @ & s L i 4 & =.v.,.0 ] K w ,.0.e ; # @ 7 W W 0 : 8 ",
"] 4 % y y 0 4 5 0 i i i k./ f 1.i 0 Z #.< & q i 4 4 8 d M i m i.i ^ L e e ] h 3 3 q u 0 4 0 i i w 3.r.s / i a W W 8 2 4 4 5 4 7 ",
"+.5 O * 3 i ] -.5 4 5 i 1.a 5 8 j L r.r.3 @ $ 8 i 2.n - 2 w j K N 0 q i ^ u.Z & @ 7 A Z  .4 = 4 u W ;.i 5 0 ^ ,.2.u # 2 5 i / ' ",
"V 0 2 4 i s -.n.A 7 * 2 i i 4 : 0 q q q 3 3 q L ^ v.j.9 - 7 u m q 3 4 q w e w - 2 y A Z x.] 0 * : f i : 4 4 5 j w ; & u i ^ 0.h.",
" .5 8 s 0 ; 4 u j 6 # 2 i i : * - 2 S r.q 0 0 7 > > y y - * q m u 3 @ = i O.f 7 y 0 5 > q z 8 % $ w W 3 $ * 5 0 y.i q y 4 5 5 w ",
"w.q 0 } , e y 2 - - # 3 w 4 @ & 0 L +.i 2 u z i Z 5 4 2 # % 7 0 3 * < u } } i q s s i e - 2 2 % 2 u 9 & : : q t.N 8 y z e i > = ",
"8 - 2 y 0 =.n * # 2 7 2 4 : 2 < 0 U K 0 - u y 0 L q - $ 4 7 4 2 * & * d #.s 7 % 8 0 L J 3 & - 5 8 2 2 2 * 7 W 1.7 2 2 y q A i 3 ",
"4 4 * + 6 7 8 7 0 U L 3 * 3 7 < 2 q q 1 + + * $ u y 2 w s.u + * 3 3 7 4 4 3 3 % * & 3 y 4 4 i i.w & & 3 2 3 8 : 2 * # - - 0 y < ",
"* * O % & < - 0 +.r.U 1 & # 0 u w 5 4 3 % % * & 4 - j a.=.u 4 @ # 5 i y q 6 2 % @ # * * 7 =.a.N q q @ 0 e w 8 0 - % + + % * 3 u ",
"2 @ 7 9.n 0 7 2 q 0 q i K S i i y 2 & & 2 i } i 5 2 4 q q q s n E f w 4 = $ * 2 L =.i - 3 q q 4 w L ^ i 0 0 w w < 2 0 =.$.q - 2 ",
"h 2 8 3.} Z i q 1 < - 0 m y.t.m n n j q 7 u E ^ n u 5 - $ - u 3.i.) m e i w 0 u U K A i q 4 $ * q q s.3.] i n u 8 y i } i m u q ",
";.L 7 @ * w T i.A 0 + & * m r.K M } s.K q 2 2 < s ] ;.N 3 @ $ 4 r.} ) i.j.,.i 8 - # 0 ;.r.K y 2 # # u n.s $.] Z S w = - - s } ) ",
"= 4 0 7 - w } } K 0 2 y 2 0 u s R e , = : 7 8 4 i K 2.j : : 4 4 5 i E L q * = q 0 4 0 N A A y * 8 q q w 8 w i 5 0 8 8 u y w f s ",
"u u ] T e 0 i 7 q 4 i y.i 2 2 6 7 8 0 w N  .K e 0 5 5 4 y e.#.: 4 4 4 q i u i Z s A i 0 0 7 7 y E E 0 @ i 0 w w u s m m w 5 j u ",
"2.3.^ r S i 0 2 % 4 L K w 2 0 7 7 q -.j.} m j i i 4 # O 8 e.$.4 5 8 7 0 s 2.3./ j A A i 4 # 2 L n s 0 y 0 w 5 m n ] e e e e 8 % ",
"i.d.f & 4 i q - $ 2 y 0 2 7 z s q , e j. .0 3 7 i q * * 4 8 4 4 0 Z u : 5 1.t.Y > > y y * % 4 0 w o q u w q w w f.i.0 w 8 0 w q ",
"0 i L i 3 5 i w w @ & < & 2 i L w : * y Z i u * 8 c i 4 & @ & < w m i q * @ n w u q q w j 9 @ @ # % < y m m = * w u s q * q u d ",
"- # < 3 @ : q L w i * 2 3 $ : 8 i u 8 7 4 = $ * * u i 0 4 3 * & 0 w 0 w i q 8 y 8 # X 5 i n u u - 8 2 3 > e u c $ 4 4 * # - w w ",
"u # * 8 8 8 * q ) 3.l 3 u 0 $ s e i u < & - 8 w * 4 e 3.2.8 4 i 5 w w ^ q u O & # u 8 # q ] e.i 0 u q 0 e i c w - # 3 9 4 u - 0 ",
"8 # * n w.L - = V j.$.q j.s N s.) w q * # y E n 7 : 5 1.9.u i d.i 0 ] w w w 8 & y U Z 5 # w s.Z 0 $.Z u v.m 0 5 u & 8 i $.8 * 0 ",
"3.w $ : 8 q 0 w 0 0 w w j.m E s 5 w a.w.2 & : 0 u w 5 4 0 e ^ 4.d i u w r y.L < u 4 w 0 i 5 w w i n ;.i i w s K c u @ 4 8 y w 0 ",
"E w o : w s 1.3.i - - w f Z 0 - i i m s 3 # = i c 3.] 5 - 4 f m w u y q ^ ) w &   q i ] 3.s $ 5 u Z Z w - w i ] $.q @ # u i 9.Z ",
"Z w * 8 u i Z } L q # q s u y % 4 w e m 4 7 q n i } 2.i 3 * 0 m 0 8 * y 0 T 8 u u w 0 n 3.L q * 8 u i 0 $ 8 8 0 n 0 0 u w u L s.",
";.u y l q : * w 9 2 & 2 u q 7 % * 0 / O.q j l - 3 4 8 7 * % 7 f w @ + 9 e / e 8 i 0 # w q q 9 & # i w : 3 % 3 L ;.i w u q 3 0 0 ",
"i $ q Z w i i w < . * u 8 & @ 3 0 ;.2.5 - n Z i t.8 @ * % 3 4 4 @ @ 8 e O.^ q * u i W Z q $ O % 5 7 8 % < 8 ;.d.w w 5 0 s c w w ",
"y 3 & 8 8 i i : $ j 9 3 * - 3 * 7 u i y * 2 4 8 L q * 4 l q * 2 9 % $ 4 w w 8 % 8 8 i f 0 & u i 3 & < 3 < 3 w i 8 & * y q i w @ ",
"7 * @ & & 8 3 8 s 0.$.- & * 8 u y 8 2 7 & @ & & < 7 u } j.i & & * 9 8 u w 7 3 . & o < 8 q w ;.,.8 * 2 3 7 7 8 8 u @ %   @ y 8 u ",
"3 % * 2 & 3 * w } } i 8 w @ u i i 8 2 * O * 3 3 < 4 u 1.s i 4 7 * i q 0 4 7 % % @ u & * 3 n t.r 8 w : : u d 8 7 @ * 9 * @ * O 9 ",
"& < q 9.e.i 5 * w * u w E ] T e q 3 $ $ 7 2.e.$.w : * 7 * y $.3.K m i u $ $ : u i.3.c u * 3 ; 4 u  .^ E ^ w 4 3 @ * j 6.e.L u $ ",
"L q w w w s ] s 8 3 @ 3 8 s.c.M i ] ;.i 3 q w i 4.m i 8 * @ 4 s k./ i s m E 0 8 5 w i m u 8 u % $ 5 ^ k.} Z }  .i q 0 i w i ] w ",
"c 8 8 * # w i 3.$.8 * % & u Z f ;.;.Z l 5 4 - $ i } 0.Z 6 # * 3 K ] ] s E d w w 3 @ w m ,. .8 @ # : 5 } Z s ;.] E q 3 # : i ] ;.",
"3 8 u n 8 w w s w w q u u * w u s w * 4 u u q 4 8 i i w : i u 6 i q c n 8 # q 8 j q 0 e m E w 8 j 9 3 8 j i 0 : 3 8 w i 0 8 d i ",
"m ^ m i n w w 0 # 0 } j.e 0 * 3 u q s V m  . .d e w 3 * u j.i.0 y @ & 8 i ^ N m ] i i i : = 4 L g.i 5 : 2 8 w e r Y 4./ e d q - ",
"i.3.s 0 i n 0 o + y i Z 0 w u q 2 u 3.k.t.0 4 u 5 3 # # y c i 7 q q q w u ^ t.d.8 q i 0 : @ - j ^ w 8 7 u 3 8  .c.0.w 5 i s 7 # ",
"m O.$.8 * 0 i w & 2 * < * 8 A N 8 : w ;.1.0 3 7 w e 3 & 3 < < < q L s 0 w w ^ V 8 8 8 u u & & 7 : 7 4 E E w $ 4  .1.8 : 8 y i 0 ",
": 5 i 8 $ 8 u m 8 * * & & - 0 m u = # : j d u & 4 c d 4 * $ * < 0 n w 0 w q 0 i u 3 & u #.9 4 * @ @ 3 0 W w 5 = 2 u l u 3 3 i z ",
"q - * 3 * - 3 8  .i 0 2 q - $ q Z ^ w $ : 3 * @ 3 4 d Z e : : 4 $ 7 w Z j q @ @ 2 & @ 3 8 s Z 4 < 3 * ; ; W W v - & * & # * 3 i ",
"= O * l n q : 8 R u.w 5 3.q 7  .i i w 3 # 3 u d 7 & 5 j.d.0 0 ^ 0 L Z m 0 y & & q n w : $ } v.=.9 b a 5 W W r e 2 @ 2 u U q # 4 ",
"d 7 * q L w 8 w i ] w w u. .J s.s q q u # 3 s c 8 7 4 Z #.i f v.u A m e 0 A 7 @ q c n 4 3 i L A w 1.....W W 5 5 u 3 3 i $.w : 5 ",
"e.q @ % q w i s u - q s  .K i 0 5 s 6.e.3 $ * 5 w $.i 3 3 u i c K Z e e m 3.Z # @ 3 i n U 4 * 8 e R / e , 5 W 1.6.7 # = 4 u #.s ",
"n 8 * - u n 2.s.n 8 - 8 u Z u < y u e s 7 # : Z } O.t.w $ 4 d d w q u y w m w 2 - y i m r.r.5 - 8 w y u * w s i N 7 & 2 w i ,.x.",
"E w 4 d 0 w w w j 3 2 3 s 0 3 & 3 0 m 1.w 8 5 q , e c u 3 3 4 c w & + - i M N 3 w 0 5 q N n 7 2 : j l 7 * X 4 s } q 7 z q 0 q s ",
";.u 0 Z 5 w w w 7 < O 7 i 4 # 3 $ i O.m q J $.q 5 4 3 < < < 8 w 0 - * y J -.i y K i 0 0 4 3 3 < $ u 8 3 2 8 i ;. .0 y L 0 q 0 : ",
"w - 8 n j N i : < & < y 3 3 - 2 w 0.} 3 O 8 z w e.j * - < 3 6 & - O y y s.m 4 * q u ] K 5 O * < u 7 2 @ & 8 w.] 4 = 7 u q ,.A - ",
"u 2 - * - 8 u y > ;.n & 2 $ & 1 2 0 q 7 2 < < 2 u 8 * e } 0 * < 2 * * 3 8 w - & 2 2 8 y 3 * s 2.< & 2 u @ - q q 8 2 2 2 3 q 8 * ",
"< @ O & O $ * 8 ^ 1.#.8 * * 6 7 y q 2 2 % % O * * : w O.4.w - & - q 0 0 q - 2 O + O * 2 8 Z s.;.u @ # & j q u $ 6 O O & = * 2 y ",
"2 & 3 i q q 2 y m i 8 i 0 i e Z i q - - < y j 0 7 * u c w i i w q m i i 3 * * 2 u u 0 - : n n 8 0 q 0 u Z i 8 - - & 2 j w - 2 7 ",
"q - u ] ;.L 5 3 3 * 3 q ;.} { M j 4 7 7 2 G y.S Z 7 3 < * 3 w i.s.N m e 5 y 2 y } ;.E u 4 8 2 < w K 3.0.L 0 0 q q q u 3.K s i 8 ",
"c u * 3 : w Z t.c q & * * u i.t m i.-.s q 2 - q K } t i < 1 6 y / i.m i } i q q 7 * w } ^ ^ u @ & 2 i -.T V -.-.N 0 y @ q i K t.",
"u 8 q 8 - w Z c s : # y w w s m V N 0 0 i 0 - = w K  .A - - - : r m ) e w w q e 7 : 0 i K A q & 5 4 7 s n ] m e q q q 0 o i i K ",
"w 0 L $.i 5 w w 8 ; w e.i @ u u u q 4 , w M j i q q u 0 0 ^ ^ > 0 0 w 5 e 0 w i E s 0 i w u 4 q -.w 4 $ 8 8 w 0 w w m ] 8 0 i w ",
"3.} i w c u 5 0 - 5 E M.w u * & 8 i ;.i./ V V K N 8 * & e f.t.8 0 $ q e i ,.,.m s i j q y $ 8 ] ,.s 0 2 8 : w ] m t.N 0 Z s 0 0 ",
"j.j.w 3 5 Z 8 : . u u 0 0 0 d i 3 3 n k.+.5 : 8 m 5 * & q w 8 6 q ] q 0 e ;.k.^ 0 w q u * # - w q q 0 ^ s 0 3 j v.K w u 8 0 q @ ",
"5 Z L u # q j 8 < # & @ = w d Z u - - i ^ e 4 3 5 w y - - @ % 1 q j j q # 0 s m q 2 8 l n - # # & * = i m u $ * i w 0 u 8 q j w ",
"3 7 u y @ & w $.s 4 7 @ & @ w w i 0 3 - 4 u 7 & 3 i Z 0 3 & & 3 # q 0 u q 3 - 8 j 3 # 0 i w q u & * 2 2 u i i w 0 i 8 q @ q i i ",
"w &   * 6 3 3 8 f  .w < j u - 8 w E s 2 @ * 3 3 & : m i.L 7 4 e 0 0 w i c y % * 2 3 * $ q L Z w 2 u y < 3 i Z m q O @ $ q $ 0 e ",
"4 2 < u #.l : & } h.m 0 i.^ w t.E 5 : : 2 4 i Z 7 & 0 t.i.e i ;.q Z a.i 0 0 u % 8 i u 8 * s t.-.s Z m e y.Z q y @ & u 8 u e 5 w ",
"] 3 @ 8 i d 0 q w 0 w m i.T i ^ c i ] Z * * i w u w q w w i E 3.0 m i i j K q @ i q 0 u u q u i s Z m i m Z w E u q X u i 0 5 u ",
"s.w @ * 5 Z ] ] w 3 4 i ^ f e 8 0 n 3.w.2 * 6 w s  .s 4 : 0 s E s w i 0 m i.w & # 0 w m ;.0 9 2 w ;.Z w w 5 e Z ] w # X i s } s ",
"s w 3 7 5 s  .3.c 8 - 3 s w 4 $ 4 0 i Z 3 3 4 i r 3.s.j 3 : 0 w j 5 @ i 5 w q q 0 w i w ,.s.y % 0 w i u # u i w i 0 q 0 w ] d ] ",
";.u j Z 8 4 4 0 y 3 & - i 8 * # $ 5 m } 8 i i > = 4 w 8 & * w s q & # O e r.K 8 l w 0 0 0 q 9 & = 0 8 9 @   5 ^ O.i q u w 0 w 8 ",
"E 3 7 U u d m 3 * # $ 3 q 7 * 3 8 ;.,.w $ i ] w Z q 3 - & 2 8 8 $ 3 * z ,.Z 0 y i 5 n s 8 9 * @ 0 u u & @ j Z 3.e q 8 n 0 Z w o ",
"i * * 9 7 E L 3 3 7 8 3 3 - 3 3 8 $.m 7 * 7 q q $.q - : 8 5 2 * 2 2 q y Z q 3 $ w u w y # @ 8 q u O @ u @ q c ] 0 & u 7 w w i u ",
"3 < < * * 3 7 7 q 6.E - * * < < 3 $ 3 8 < & < < 7 5 4 i s.s & * u * < 2 $ 4 8 % # & & y u 0 ] m 9 @ 8 @ q 3 - # y @ & $ # 8 3 8 "
};
