/* XPM */
static char *result[] = {
/* columns rows colors chars-per-pixel */
"64 64 224 2 ",
"   c #091C03",
".  c #0E2304",
"X  c #192F07",
"o  c #152A08",
"O  c #162D08",
"+  c #163007",
"@  c #193007",
"#  c #173208",
"$  c #1D340A",
"%  c #1E390C",
"&  c #1F3A10",
"*  c #262F0A",
"=  c #3C2C0A",
"-  c #21360B",
";  c #2D310A",
":  c #243B0D",
">  c #293D0E",
",  c #33320C",
"<  c #303D0E",
"1  c #243610",
"2  c #263D11",
"3  c #2A3F11",
"4  c #373D13",
"5  c #582C0D",
"6  c #47360F",
"7  c #493511",
"8  c #4B3A10",
"9  c #573C13",
"0  c #61300F",
"q  c #612F10",
"w  c #633211",
"e  c #683512",
"r  c #6B3A15",
"t  c #1F420E",
"y  c #25420E",
"u  c #2B430F",
"i  c #34420F",
"p  c #264212",
"a  c #2C4413",
"s  c #2E4914",
"d  c #2E4A19",
"f  c #324514",
"g  c #3B4412",
"h  c #334B15",
"j  c #3A4D14",
"k  c #314719",
"l  c #344C1A",
"z  c #394E1B",
"x  c #3C5315",
"c  c #395416",
"v  c #36511B",
"b  c #3B541C",
"n  c #3E591C",
"m  c #3A4F21",
"M  c #3C5421",
"N  c #3F5923",
"B  c #444311",
"V  c #464916",
"C  c #494B16",
"Z  c #574717",
"A  c #425517",
"S  c #455917",
"D  c #42561A",
"F  c #4A5518",
"G  c #445B1B",
"H  c #495E1B",
"J  c #545419",
"K  c #5D531A",
"L  c #525C1B",
"P  c #5C5B1D",
"I  c #68471A",
"U  c #73441C",
"Y  c #7A441B",
"T  c #714C1D",
"R  c #7C491F",
"E  c #64541B",
"W  c #6D551C",
"Q  c #635E1E",
"!  c #77551E",
"~  c #44601C",
"^  c #4C621C",
"/  c #52661C",
"(  c #5D641F",
")  c #556A1D",
"_  c #5A6D1E",
"`  c #5C701F",
"'  c #62601E",
"]  c #60711F",
"[  c #435C23",
"{  c #475825",
"}  c #4A5C24",
"|  c #535E2B",
" . c #675B21",
".. c #795921",
"X. c #466224",
"o. c #4A6425",
"O. c #4D6A25",
"+. c #46622A",
"@. c #4B652A",
"#. c #4E6A2B",
"$. c #526622",
"%. c #5C6721",
"&. c #546B21",
"*. c #5A6E21",
"=. c #56692B",
"-. c #526D2D",
";. c #547226",
":. c #5D7222",
">. c #55722D",
",. c #5B742B",
"<. c #57792F",
"1. c #5D792D",
"2. c #4C6531",
"3. c #4E6C33",
"4. c #526732",
"5. c #536C31",
"6. c #5A6E33",
"7. c #567332",
"8. c #5B7534",
"9. c #577934",
"0. c #5C7A35",
"q. c #5B7539",
"w. c #5E7C3A",
"e. c #636A22",
"r. c #6C6C24",
"t. c #786724",
"y. c #627523",
"u. c #6B7526",
"i. c #657A25",
"p. c #697C27",
"a. c #697529",
"s. c #667B2A",
"d. c #6A7E29",
"f. c #717727",
"g. c #727428",
"h. c #7A7D2E",
"j. c #617735",
"k. c #617B35",
"l. c #637D3B",
"z. c #7A7E31",
"x. c #617D41",
"c. c #834A1F",
"v. c #8B4D1E",
"b. c #82531F",
"n. c #844D21",
"m. c #8B4C21",
"M. c #855322",
"N. c #8C5222",
"B. c #875D23",
"V. c #935523",
"C. c #955A24",
"Z. c #9A5C27",
"A. c #8D6124",
"S. c #936226",
"D. c #5F8037",
"F. c #6B8227",
"G. c #6D822C",
"H. c #77872A",
"J. c #71852E",
"K. c #7B832E",
"L. c #73892E",
"P. c #7D922E",
"I. c #668134",
"U. c #6D8434",
"Y. c #6F8937",
"T. c #64833C",
"R. c #6A853D",
"E. c #6D8A3B",
"W. c #728630",
"Q. c #768A32",
"!. c #798D34",
"~. c #738C3B",
"^. c #778C3A",
"/. c #7D9136",
"(. c #75903E",
"). c #7E9239",
"_. c #668241",
"`. c #6A8443",
"'. c #698746",
"]. c #6C8B43",
"[. c #6D8A49",
"{. c #728D44",
"}. c #728D4B",
"|. c #6E9144",
" X c #6C9248",
".X c #749344",
"XX c #7C9444",
"oX c #74934A",
"OX c #79944D",
"+X c #75994D",
"@X c #7B9A4D",
"#X c #7C9653",
"$X c #769851",
"%X c #7C9D53",
"&X c #76A051",
"*X c #7FA355",
"=X c #848535",
"-X c #848B35",
";X c #8B8D33",
":X c #888738",
">X c #849230",
",X c #82953B",
"<X c #859A3E",
"1X c #899C3F",
"2X c #819741",
"3X c #869B42",
"4X c #8A9D42",
"5X c #839B4C",
"6X c #809D52",
"7X c #829D5A",
"8X c #8DA244",
"9X c #91A547",
"0X c #92A649",
"qX c #95AB4D",
"wX c #83A256",
"eX c #87A757",
"rX c #85A359",
"tX c #8CAC5D",
"yX c #96AF5E",
"uX c #8CB25F",
"iX c #849B60",
"pX c #8BA963",
"aX c #90AD65",
"sX c #8EB361",
/* pixels */
"` / *.!.3XQ.:.y.4XqX,Xi.1X!.K.8X!.d.] *._ p.,X,Xp._ W.0X8XG.~.).~.XX<XW.i._ ^ _ Q.,X!.y._ 2XqX2Xd.,X,XH.4X<XJ.i.( / p.,X/.G.:.p.",
",Xd._ d.W.G.i.i.d.!.Q.Q.9X,X!.<X!.H.>X,X*._ d.L.d.y.d.!.!.J.E..X.XE.W.J.!.<XW.` i.G.G.d.y.d.Q./.!.1X1X!.-X!.K.-X-Xi._ d.F.F.i.y.",
"1XJ./ ) i.W.,X,Xd.` i.!.,X>XJ.p.J.-X1X<Xe./ ` G.!.2X!.y.*.>.@X]. XD.&.k.0.XX/.` / y.L.).,Xd._ p.L./.,XH.F.H.!.1X1Xd.) _ F.Q.<X).",
"K.p._ u.Q.,X8X0X).i.` i.Q.Q.p.] d.L.K.Q.i.` G./.).8XQ.,.^ 1.E.T.9.0.b @.7.=.8.i.s.U.).1XqX<Xp._ i.L.P.i.] f.J.Q.Q.i.` d.Y.).9XqX",
"1XQ.d.!.d.y.i.J.Q.i.&.:.!.L.y.) _ i.!.1XG.G.G.d.p.s.) ,.&.,.I.1.0.=.C | -.A { j.8.j.i.` J.!.d.) ` L.L.i.) ( y.K.8X!.F.F.F.F.i.L.",
",Xp.d.,XW.!.W.:.:._ ) :.J.p._ _ i.,X1XQ.i.Q.!.G.!.j.l.>.;.E.0.c 8.eX7.'.,.{ G x O.,.H 1.p.i._ ^ :.F.p.y._ ] !.4X).s.F.!.Y.L.F.` ",
"K.*.y.W.d.)./.:.) y.p.y.y.y._ _ p.,X/.i._ G.U.G.).U.].R.T.^ >.G U.E.k.,.j.z h o.j.k.<.R.~.i.i.G.i.y.:._ _ i./.,Xd.*.:.W.Y.).Q._ ",
"p.:.) ) *.y.d.d.d.,X-Xy._ y.y._ y.d.G.y./ i.i.F.,.{.j.^ $.^ 0.) ,.I.,.8.} { }.rXrX+X|.@X%X1.*.!.F._ _ y.` i.d.p.i.*.) _ :.G.s.:.",
"y.) ^ ) ) _ y.G.3X8X,Xi./ ) i.Q.J.d.y.!.d.Q.F.) H H $.o.l.T.O.>.>.^ 1.-.h -.6X%X].6X%X_.T.7.-.,.p._ _ y.J.G.d.d.) ) ^ ^ ) _ :.G.",
"_ ^ p.4X!.W.y.:.G.d.G.Q.!.-X!.W.W.y.2X.XR.}.>.~ >.z a T.E.OXT.T.,.>.E.k.f n >.l.7.].8.d @.>.-.:.J.,X!.L.!.J.i.` ) _ Y.)./.F.:.y.",
"J.y.G.3X).).!.d.y._ *.d.!.0X8XQ.Q.2XtXOX`.l.R.} o.a z T.7.H [ >.E.%XD.@XOX`.j @.} q.5.[ @.o.G o.=.:.<X8X,X!.Q.J.G.F.Q.3X,X!.Q.i.",
"3X!.i./ *.W.,X4X,Xd.) / *.).8X!.{.eXwX}.T.l.,.[ y - z 5.-.[ y `.@X0.@XE.OXOXoXs & o p a y a v =.k.=.d.4X<X<X<X8X).J.:._ ` Q.4X<X",
"y.i.d.i.:.F./.1X,Xd.] d.:.i.U.5X.X+X6Xj.k.-.[ M u + % y z G 6.#X].wXaXwXT.].`.n d l d p : : b q.j.k.=.y.Q.,X!.G.` i.G.F.y.W.).,X",
"d.Q.,X,X!.J.F.J.F.i.!.8XW.i.i.W.6X6XoX].0.0.b   { iX`.b > ; z [.}.6XoXl.0.j.0.5.@.+.[ b s s b o.@.8.8.*.y.F.F.G.L.!.)./.L.G.J.F.",
"1X8X<XL./.L.d.` ) i./.1XL.d.G.F.E..X+X'.7.l.p a `.rX7X6.s f a @.7.T.j.].8.-.l.} #.[ b [ p y b b n h 6.l.i.i.F./.8X1X/.Q.Q.Q.d._ ",
"8X8XQ.` i.L.J.y.) ] d.i.y.F.F.^ &.l.T.>.#.v v #XpXT.G f 3 : z =.7.S >.OXl.8.=.c 6.[ n @.p f [ [ n b N j.W.F.F.L.9X1XJ.:.F.L.G.:.",
"i.L./.F.` i.L.!.i._ ) ) ] d.i.L.^ ) &.X.-.[ T.O.*X*XoXl.z M u n q.G b } } [ c } l.q.b h l h a h v h s o.k.J.` _ F.!./.F.` F.Q.Q.",
"i.] i.i.) ) d./.Q.p._ _ ] H.J.F.L.Q.1.t $XrXaX%X@X+X X$XG 6.[ h f s % - : $ 4.@.8.q.5.G b a 1 % - - a G ,.G.P.J.:.:.] ` ) ` F.Q.",
"i.) ) i.J.i.` F.<X1XW.y.L.L.P.Q.XX~.@XoXrX].%XpXwX+X<.T.n 7.X.v v a a > - { [.#.#.@.O.b v p $ $ % - a [ ,.:.L.L.` ) ` 1.G.i.` F.",
"i._ ` /.4X!.` :.,X0X,XJ./.F.5XwXE.+X{.wXeX;.].E.%X+X<.].~ O.h 5.5.> : f y @.=.o.O.@.@.z : : @ : 3 3 p D 0.O.:.i.i.` i./.<XJ.` i.",
"4XW.) *.i.F.G.J.y.d.L.!./.,XOXOX7.].G 7.*X'.w.D.R.9.D.o.n h f 4.4.@ - $ u j @.0.~ #.q.5.3.v d d : a N #.q.8.O.s.).i./ :.i.G.J.G.",
",XF.) :.G.).4X4XW.y.y.J.G.U.j.8.c u % 7.rX0.O.9.0.o.9.c X.#.[ h h $ 2 k : i @.@.n >.>.o.+.M N v & : a N 5.q.[ G Q.s.*.:.F.).4X4X",
"!.d.y.d.W.Q.).3X,Xd._ p.i.S D j % h @.@.n [ O.o.0.X.y n n @.l 2 2 : - 3 - z h - % n 7.>.[ N +.d % a l M M p M X.F.U.p.G.W.Q.).3X",
"3XQ.W.!.s.y.y.d.d.y.) ^.XX$.H 7.G n -.0.7.>.@.O.0.#.X.v a % & o X $ z h : > : s a [ v q.2.v v l a d M M a a & M (.W.d.Q.G.p.y.d.",
"^.*.d.,XW.).!.p.&.O.b yX6XOXx H [ b T.8.X.n b G c { [ s $ % z k $ m 5.{ z - y s n 3 > z b h a a h a a a a : X s [ :.s.Q./.).U.:.",
"d.*.*.d.i.Q.Q.y.:.s.~.].#.[.h : @ u @.5.u - y u 2 : : - h q._.3.3 M -.b h +.c h @.> $ % p 3 1 a d 2 2 2 k - @ p z o.:.i.s.!.W.` ",
"y._ / / ) y.i.i.Q.U.T.}.O.G a # 3 D > 3 f - % $ p f : X d q.@.l - z @.f b q.6.#.0.+.[ h 2 : - $ - 2 2 z 4.M x -.=.o.,.) ) y.i.d.",
"*.) _ y.y._ _ p.).XX8.}.n % : b x.pX4.- 4 , ; f 7.'.l.4.X.a + # % a z u 0.7.8.8.5.#.q.5.5.b h k 1 a [ @.7.q.O.,.F.G.1.` :.) _ J.",
"_ _ J.4X2X!.d.i.wX5X.XX.-.j.l.7X6Xj.O.f * , 4 i 3.$X&X*X}.N N m a - - v 5.7.7.o.-.-.7.~ +.M M l & 2 p N 3.6.[ G ;.F.F.<X3X!.s.` ",
"!.L.G.J.W.!.,XXX{.j._.G G T.w.8.o.{ @.@.h D n n %X$XO.9.'.+.+.l 3 2 X z +.+.o.h 7.x.7.6.X.N +.d % a z N M p v } / F.F.U.W.).).Q.",
"!.L.d.*._ F.2X].}.7.[ s @ b D =.D b -.0.8.>.@.@.9.o.[ h # : # . X @ z h - : % a D D v q.@.v d h a d m v s a % M 0.F.F.:.` J.3X<X",
"y.y.J.Q.G.d.U.].OXO.a u M q.#X6.[ b l.8.[ b c n l N [ s % : z m $ M 5.{ h : : s j < : h b d d a h a a p p % # a n O.,.G.F.J.!.!.",
"/.).).)./.Q.J.;.G O.7.8.}.OXl.O.@ y X.@.s % : y : - - % d x.[.5.3 M -.b z @.n h c f > : a p : a a 3 3 a l 1 $ a b @.l.W.!.Q.J.] ",
"8X9X/.F.J./.F.` T..XoXT._.R.O.n x M f z h : : $ l M : + m q.{ a % z @.h [ X.a X.o.b 3 - $ $ - - - @ O a a : 3 [ @.b 7.p.Q.Q.p._ ",
"/.<X!.:.:.J.L.Y.XXwXsXT.oX'.D.8.G n b n -. X&Xh 3. X*Xx.+.p o $ - a z u 7.w.#.0.0.5.b : $ % - a z M l d z a > M z v 7.1.i.J.J.p.",
":.G.!.G._ i.&XeXuX+X.X&X.X].D.w.o.>.@.c 9.%X+X[ &X'.9.+.8.b m { u - [ -.>.T.T.#.#.7.+.p a h v @.N m m d p : : z v b [ [ H u.Q.!.",
"i.) ) :.` eXuXeXuX+X;. X].T.D.9.o.0.9.#.-.0.w.T._.3.h a 2 $ * | z s ]..X9.<.D.0.<.#.N p v l [ 5.[ M l & $ $ : l N a & a S ) y.Q.",
"i.) ` J.)..XuXuXeXuX&X X9. X9.9.o.9.o.<.-.G z i - & 1 - $ * = 6.l.-.R.'.0.0.T.9.9.+.v % a s N 2.N +.d $ O 1 2 3 z z d $ x p.) u.",
"Q.:._ G.).L.|.&X X+X+X|.D.O.>.@.[ o.X.X.{ z g g 4 : - 1 $ , 7 C F @.l.8.O.9.9.o.b p % % % $ l 2.M l & 2 2 & 2 d M M z 3 d.Q.i.i.",
"8XG./ ) i.J.!.Y.<.<.~ O.9.o.o.@.X.v M s p 2 f k 3 - - : $ 4 g g g C 7.0.O.n o.[ p $ 1 1 a p 1 & # O O 2 k 2 a 3 3 : $ j i.W.<X!.",
"!.G.:.:.G.!.3X8XQ.3.9.D.9.X.7.5.h d a $ $ - s h s p u z { [ @.@.z f D b v G X.N s a p 2 d k : a l d 2 a a $ $ - X : H *.W.!.3X0X",
"/.J.F.U.G.F.W.!.!.y.#.3.X.X.@.h : p y : k z z D n ~ b O.w.6.w.5.G f j z z +.v s s m a : : : : f [ [ a : $ @ o . z y.p.W.J.d.J.!.",
"<XF.G.).G.W.G.y.p.) H G p v v % % - s o.T.R.>.<._.w.>.O.'.T.7.>.X.z a h b [ m % $ : - : : a k [ M l a $ $ $ a :./.J.U.!.G.W.d.y.",
"Q.:.i.!.W.,X).y._ ) _ i.z - : - @ p X.1.) W.~.Y.3X(.U.T.T.D.D._.o.f > h v l d 1 $ $ - : - : 2 h a d h # b G.<X3Xp.*.p.J.G.,X,X*.",
"p._ ) *.*.G.G.y.d.,X/.:.) / G > $ z y.d.) ) _ y.W.d.y.W.T.D.0.x.X.a l m p # : : O o o . . O o k G x : . ^ :.i.s.s.:.) :.y.G.d.y.",
"y.) / ) / ) y.d.,X4X,Xa.) _ i.d.d.p.y.*.) / / ) _ :.W.3X4Xz.E Z 8 6 8 8 J %._ / ^ ) _ *.*.W.2X,Xd.*._ _ J.F.y.i.:.) ^ ) &.*.:.d.",
"*./ y.^.d.p.y.i.!.W.d.L.J.L.Q.!.!.d.*._ _ d.Q.J.y.:.G.).W.t.N.Y U r 5 5 e.*.*.*.U.W.d.:.y.!.2Xd.J.J.d.J.).Q.i.1.` _ i.Y.d.i.y.s.",
"y.y.W.4X2X).W.y.y._ y.d.<X4X3X!.Q.d.p.p.y./.3X,X).G.y.` ) A.V.m.m.n.5 5 r.p.y.d.4X4X).W.y.p.y.) d.,X4X4X,XQ.F.F.i.i.W.8X).Q.U.p.",
"<XJ.y.` ] J.,X,X!.d._ ) ] ,X1X,X/.<X8X/.G.y.:.i.,X<X).Q.] V.V.v.N.N.w 0 A.,XL.y.:.y.L.,X,X,XJ.) ) y.Q.1X<X,X<X1XP.F.1.` ] P.8X).",
"p.d.J.G.y.d./.<X!.i.` i.] F.L./././.F.i.:.i._ :.J.W./.!.t.C.Z.v.N.N.w w U.d.p.d.d.y.p.!.,X,Xd.) u.y.p.Q././.!.J.i.d.G.i.] L.).).",
"i.G.!.,XL.J.G.J.G.i.J.<XL.] ] F.J.G.:.&.*.~ ^ :.s./ *.y.A.V.C.m.N.N.w w u.s.y.W./.L.G.J.W.d.i.d.<XL.] ] G.J.G.F.G.L././.J.J.L.G.",
"8X,XP.Q.!.L.G.u._ p.<X9XL.i.F.i.:.i.*.&.^ ^ &.^ ) *.*.e.C.V.C.v.V.N.w q t./.$.d.Q.*.U.d.y.) y.$.d.J.) ` :.y.&.W.G./.Q.G.L.!.F._ ",
"9X9XQ.:.d.!.J._ / y.G.d.i./ ) / &.&.H ^ H &.D H ^ O.) ' B.v.V.v.V.N.w w T *.H &.G ^ / &.*.H ^ ^ $.G H / &.*.H H ^ *.^ *./ i.F.) ",
"U.>X>XG.y.y.W.Q.y.) _ _ ) S / *.^ G H G &.) A / *./ n ' S.v.V.V.Z.M.9 w T L &.$.A / *./ A G G ) / A ^ *.^ G H H *.) G &.;.^ / F.",
":.i.G.G.) _ d.,XL.p.*.y.G ) $.^ *.^ ^ &.&.H ^ o.^ :.H ' S.V.V.V.Z.m.q e T %.;.H ^ / ^ *.H ^ &.^ A ^ ^ ^ *.H ^ &.1.^ $.^ ^ *./ L.",
"p.) / _ y.*.*.d.,X1Xd.%.S H z H &.H H &.^ G H x G _ / ..S.C.V.V.C.n.q w U J L V A c ^ =.^ ~ &.S x H x ^ *.H H &.) H H x ^ *._ d.",
"i.*.:.W.,XQ.*.y.,X0Xa.S A F H &.^ A H H j A F F ( ' K ! Z.Z.V.m.V.n.q e R T Z 8 g j ^ H x ^ H z x S H ) ^ x H H c x G H ) ^ c ^ ",
",Xp.) a.Q.Q.K.d.d.W.J.d.S H :.y./ G ^ $.$.A F ( P Q W N.C.Z.V.v.N.R w r m.N.T V g g j i j ^ &.^ x H :.,./ G ^ ) / x ^ :.:.^ A ^ ",
"4XJ./ _ d.!.,X3XJ.y.i.G.d.i.^ ^ ;.*.^ ) H *.L J E ! b.N.v.C.V.c.m.R w r c.b.I V g j j } ) ) ) ^ &.) ^ ^ ;.*.) &.^ ) ^ ~ ^ $.*.i.",
").J.y.y.W.Q.,X3X,Xa._ d.Q.p.*.) ) *.^ H L %.K  .! B.! N.m.c.n.c.Y R r r Y U Z V B A H $._ ~ ^ ~ &.x H ^ &.*.H ^ ^ ) G ) :.) *.y.",
"3XW.J.).J.y.i.d.J.] / ` Q.d.*.) ) A H H &.$.J ' r.( E ! ! Z U U 9 I I 9 I I 8 C C F H H S H S $.^ x ^ &.^ A H S ) ) ` F.J.i.` d.",
").y.d.,XW.!.!.y._ ) ) y.G.i.` y.d.J.y.i.:.L _ %.( e.Q ! r.r.J E Z K Q F E Q P S / L $.y.H H *.y.^ *./ *.y.H ^ y.F.` L.H.L.P.] J.",
"L._ *.d.d.!./.y._ d.d.y.y.` :.y.d.,X-Xp.y.u.d.d.-XK.g.=X-Xh.u.r.r.h.=Xh.:X=Xh.u.g.u.K.K.z.:X:Xh.u.f.g.h.K.K.:X-X!.f.H.h.-X>X>X;X",
"u._ ) *.) i.i.i.J.4X,X_ _ _ ` ` ` :.i.p._ _ ) ` i.p.] Q.8XQ.` ` i.] _ _ _ y.y./ _ ) :.i.y.d.2X8Xp._ *.y.y.y.` ` d.` / ) _ p.d.p."
};
